<svg width="118" height="41" viewBox="0 0 118 41" fill="none" xmlns="http://www.w3.org/2000/svg">
<path d="M13.5168 0.200439C16.3298 0.200439 17.2137 2.18068 17.9525 4.16061C18.2663 4.99958 25.5727 24.6618 25.7903 25.2518C25.8517 25.4148 25.8115 25.6868 25.5531 25.7835C25.2943 25.879 21.4978 27.3308 21.2883 27.4086C21.0784 27.4857 20.8421 27.3709 20.7649 27.1659C20.6871 26.9621 19.1132 22.6755 18.9357 22.1963C18.4124 22.1963 8.63331 22.1963 8.11087 22.1963C7.93247 22.6755 6.34242 26.9707 6.26926 27.1659C6.19703 27.3633 5.9685 27.4945 5.74682 27.4086C5.52421 27.322 1.71053 25.8698 1.48512 25.7835C1.26718 25.7015 1.16661 25.4574 1.24476 25.2518C1.51252 24.5144 8.70772 5.16909 9.07604 4.16061C9.7884 2.21219 10.7047 0.200439 13.5168 0.200439ZM0.665658 35.3797C0.438687 35.3797 0.255615 35.5654 0.255615 35.7934V40.3872C0.255615 40.6167 0.438998 40.7996 0.665658 40.7996H26.3682C26.5933 40.7996 26.7748 40.6167 26.7748 40.3872V35.7934C26.7748 35.5657 26.5933 35.3797 26.3682 35.3797H0.665658ZM13.4953 6.62062L9.83417 17.4214H17.2137L13.5401 6.62062H13.4953ZM68.4142 24.3286C67.8759 24.5098 67.5203 24.5538 67.0956 24.5538C66.2207 24.5538 65.7338 24.2133 65.7338 23.3306C65.7338 22.412 66.3527 22.1024 67.5645 22.1024C67.8566 22.1024 68.1511 22.1449 68.2868 22.1914V22.8487C68.2868 23.5597 68.3248 24.0257 68.4142 24.3286ZM71.5242 25.3842C70.8791 24.4186 70.7107 23.8501 70.7107 22.6329V20.1671C70.7107 18.8356 70.5537 18.3573 70.1944 17.8711C69.6982 17.1848 68.87 16.8874 67.3431 16.8874C66.2656 16.8874 65.217 17.0028 64.2035 17.2555L64.5659 19.0118C65.2537 18.9179 65.9723 18.8356 66.4795 18.8356C68.1003 18.8356 68.2875 19.0672 68.2875 20.2608V20.7072C67.9272 20.6126 67.5209 20.5444 67.0508 20.5444C64.6123 20.5444 63.3249 21.7163 63.3249 23.6558C63.3249 25.476 64.6989 26.468 66.3764 26.468C67.0047 26.468 67.6576 26.3545 68.1751 26.1489C68.487 26.0133 68.6228 25.9356 69.0294 25.6761C69.2704 26.0265 69.761 26.382 69.96 26.446L71.5242 25.3842ZM95.6457 24.3286C95.1058 24.5098 94.7528 24.5538 94.3265 24.5538C93.4504 24.5538 92.9551 24.2133 92.9551 23.3306C92.9551 22.412 93.5818 22.1024 94.796 22.1024C95.089 22.1024 95.3814 22.1449 95.5149 22.1914V22.8487C95.5146 23.5597 95.5545 24.0257 95.6457 24.3286ZM98.7561 25.3842C98.1075 24.4186 97.9409 23.8501 97.9409 22.6329V20.1671C97.9409 18.8356 97.7837 18.3573 97.4235 17.8711C96.9281 17.1848 96.1 16.8874 94.5722 16.8874C93.4931 16.8874 92.4354 17.0028 91.4245 17.2555L91.7853 19.0118C92.4725 18.9179 93.1939 18.8356 93.7119 18.8356C95.3275 18.8356 95.5149 19.0672 95.5149 20.2608V20.7072C95.1569 20.6126 94.7531 20.5444 94.2795 20.5444C91.8333 20.5444 90.5443 21.7163 90.5443 23.6558C90.5443 25.476 91.9198 26.468 93.6067 26.468C94.2341 26.468 94.8873 26.3545 95.4035 26.1489C95.7186 26.0133 95.8521 25.9356 96.2566 25.6761C96.5004 26.0265 96.992 26.382 97.19 26.446L98.7561 25.3842ZM117.744 26.2627C117.744 26.2627 116.409 23.4618 116.083 22.8269C115.714 22.1079 115.374 21.6113 114.62 21.4369V21.3938C115.125 21.2998 115.527 20.9988 115.959 20.0833C116.381 19.1896 116.503 18.9971 116.747 18.7863C116.988 18.5721 117.316 18.652 117.316 18.652L117.441 16.9979C117.09 16.9526 116.702 16.9514 116.301 16.974C115.639 17.0129 115.295 17.198 114.969 17.5226C114.716 17.7702 114.542 18.1395 114.328 18.5623C114.099 19.025 113.918 19.3982 113.684 19.87C113.451 20.3513 113.335 20.5676 112.702 20.5676H112.291V13.2562H109.844V26.2624H112.291V22.5234L112.623 22.5164C113.324 22.5164 113.446 22.6868 113.815 23.4123C114.25 24.2788 115.077 26.2627 115.077 26.2627H117.744ZM48.9641 26.2627H51.7827L47.5219 13.4756C47.0748 13.3272 46.5169 13.2345 45.9244 13.2345C45.2775 13.2345 45.0477 13.3192 44.5405 13.4756L40.0338 26.2627H42.7359C42.7359 26.2627 43.0996 25.1416 43.5317 23.7491H48.2032C48.6219 25.1404 48.9641 26.2627 48.9641 26.2627ZM44.2183 21.6049C44.2183 21.6049 44.9957 19.0399 45.1159 18.6385C45.4309 17.6059 45.9008 15.9628 45.9008 15.9628H45.9792C45.9792 15.9628 46.4126 17.6658 46.6981 18.6232C46.8065 19.0014 47.5521 21.6049 47.5521 21.6049H44.2183ZM75.6847 20.1448C74.822 20.1448 74.1224 20.8348 74.1224 21.6826C74.1224 22.5341 74.8217 23.2189 75.6847 23.2189C76.5465 23.2189 77.2452 22.5341 77.2452 21.6826C77.2452 20.8348 76.5462 20.1448 75.6847 20.1448ZM55.1291 13.2562H52.6819V26.2624H55.1291V13.2562ZM103.765 18.954C105.115 18.9842 105.281 19.2569 105.281 20.3737V26.2627H107.706V20.1668C107.706 18.8352 107.549 18.357 107.189 17.8708C106.694 17.1845 105.712 16.8871 104.059 16.8871C102.423 16.8871 101.382 17.0582 100.038 17.4507V26.2624H102.488V19.0672C103.134 18.9754 103.245 18.954 103.765 18.954ZM61.1813 13.0255C59.6545 13.0255 58.8244 13.3211 58.3291 14.0077C57.9698 14.4935 57.8122 14.9846 57.8122 16.3171V17.4507H56.5961V19.3949H57.8122V26.2624H60.2364L60.2308 19.3949H62.6524V17.4507H60.2308L60.2364 16.4083C60.2364 15.2162 60.4244 14.9849 62.0447 14.9849C62.2187 14.9849 62.4155 14.9941 62.6266 15.01L63.0092 13.1427C62.4092 13.0631 61.7975 13.0255 61.1813 13.0255ZM80.66 13.1454C81.4929 13.098 83.3519 13.0298 84.5229 13.0298C84.7309 13.0298 84.9494 13.0316 85.1733 13.0414C87.4729 13.0414 88.7877 14.6863 88.7877 16.6145C88.7877 17.9259 88.1768 18.7964 86.7446 19.3162C88.4324 19.6828 89.3157 20.9773 89.3157 22.558C89.3157 23.7191 88.9789 24.6401 88.3649 25.2698C87.5741 26.039 86.3745 26.468 84.7782 26.4674C83.3516 26.4674 81.5691 26.4255 80.6597 26.3722V13.1454H80.66ZM84.5232 15.278C84.1131 15.278 83.6169 15.2845 83.1181 15.3022C83.1181 15.5145 83.1181 18.2135 83.1181 18.4253C83.3192 18.4253 84.5254 18.4253 84.5254 18.4253C85.0768 18.4253 85.5267 18.2729 85.833 17.9788C86.1213 17.7038 86.2711 17.3118 86.2711 16.8468C86.2711 15.8499 85.7225 15.2826 84.701 15.278C84.6163 15.278 84.5795 15.278 84.5232 15.278ZM84.5696 24.2271C84.6073 24.2271 84.6452 24.2271 84.6826 24.2271C85.9479 24.2271 86.7331 23.5607 86.7409 22.2196C86.7266 21.7355 86.5404 21.2928 86.2066 20.9718C85.8355 20.6083 85.3146 20.4183 84.7044 20.4183C84.7044 20.4183 83.3233 20.4183 83.1178 20.4183C83.1178 20.6334 83.1178 23.996 83.1178 24.2118C83.5652 24.2212 84.0571 24.2249 84.5696 24.2271Z" fill="white" fill-opacity="0.4"/>
</svg>
