<svg width="6" height="12" viewBox="0 0 6 12" fill="none" xmlns="http://www.w3.org/2000/svg">
<path d="M0.995538 5.95653e-05C1.12361 -0.000376275 1.25016 0.027883 1.36588 0.0827593C1.48159 0.137637 1.58354 0.217737 1.66423 0.317173L5.80497 5.45954C5.93107 5.6129 6 5.80526 6 6.00378C6 6.2023 5.93107 6.39466 5.80497 6.54801L1.51849 11.6904C1.37297 11.8654 1.16387 11.9755 0.937177 11.9964C0.710485 12.0173 0.484775 11.9473 0.309701 11.8018C0.134626 11.6563 0.0245289 11.4473 0.00362819 11.2206C-0.0172726 10.994 0.0527357 10.7684 0.198252 10.5933L4.03037 5.99949L0.326846 1.40564C0.222013 1.27984 0.155421 1.12665 0.134949 0.964191C0.114477 0.801735 0.140982 0.636817 0.211328 0.488949C0.281674 0.341082 0.392918 0.216456 0.531894 0.129816C0.670871 0.0431743 0.831765 -0.00185349 0.995538 5.95653e-05Z" fill="white"/>
</svg>
