<svg width="15" height="15" viewBox="0 0 15 15" fill="none" xmlns="http://www.w3.org/2000/svg">
<g clip-path="url(#clip0)">
<path d="M10.9398 0H4.06036C1.82144 0 0 1.82144 0 4.06036V10.9396C0 13.1785 1.82144 15 4.06036 15H10.9398C13.1786 15 15 13.1785 15 10.9396V4.06036C15 1.82144 13.1786 0 10.9398 0ZM14.1206 10.9396C14.1206 12.6936 12.6937 14.1206 10.9398 14.1206H4.06036C2.30633 14.1206 0.879364 12.6936 0.879364 10.9396V4.06036C0.879364 2.30632 2.30633 0.879362 4.06036 0.879362H10.9398C12.6937 0.879362 14.1206 2.30632 14.1206 4.06036V10.9396Z" fill="white"/>
<path d="M6.42039 7.27352C6.90195 7.06387 7.14297 6.61332 7.14297 5.92186C7.14297 4.92451 6.57339 4.42578 5.43425 4.42578H3.79362C3.66316 4.42578 3.54987 4.45691 3.45362 4.51928C3.35715 4.58165 3.30908 4.66668 3.30908 4.77425V10.2997C3.30908 10.3904 3.3544 10.4697 3.44515 10.5377C3.53568 10.6057 3.65195 10.6397 3.79362 10.6397H5.59584C6.11712 10.6397 6.53082 10.4966 6.83695 10.2104C7.14297 9.92431 7.29597 9.46667 7.29597 8.83758V8.65906C7.29597 8.26241 7.22216 7.96063 7.07487 7.75372C6.92747 7.54692 6.70935 7.38693 6.42039 7.27352ZM4.40565 5.39487H5.34922C5.5646 5.39487 5.73317 5.45861 5.85505 5.5861C5.97681 5.71358 6.03781 5.88788 6.03781 6.10886C6.03781 6.33557 5.97968 6.5141 5.86352 6.64444C5.74736 6.77479 5.57879 6.83991 5.3578 6.83991H4.40565V5.39487ZM6.19082 8.74409C6.19082 9.36184 5.91593 9.67071 5.36627 9.67071H4.40565V7.70703H5.36627C5.6383 7.70703 5.84361 7.77798 5.98254 7.91954C6.12135 8.06122 6.19082 8.29079 6.19082 8.60813V8.74409Z" fill="white"/>
<path d="M11.1807 8.90576C11.2996 8.90576 11.396 8.90015 11.4697 8.88893C11.5433 8.87772 11.6241 8.84957 11.712 8.80471C11.7998 8.75985 11.865 8.6826 11.9074 8.57319C11.95 8.46379 11.9713 8.32497 11.9713 8.15651C11.9713 7.69543 11.7998 7.31251 11.457 7.00799C11.114 6.70346 10.7017 6.55103 10.2201 6.55103C9.70434 6.55103 9.26511 6.71834 8.90245 7.05262C8.53979 7.38701 8.3584 7.78664 8.3584 8.25127V8.97374C8.3584 9.49524 8.54974 9.91604 8.93221 10.2361C9.31478 10.5563 9.80917 10.7164 10.4156 10.7164C10.8406 10.7164 11.1962 10.6386 11.4824 10.4826C11.7685 10.3269 11.9118 10.1695 11.9118 10.0108C11.9118 9.90883 11.8721 9.80251 11.7928 9.69208C11.7133 9.58153 11.6142 9.52625 11.4952 9.52625C11.4327 9.52625 11.2968 9.58027 11.0871 9.68785C10.8775 9.79553 10.665 9.84932 10.4496 9.84932C10.1492 9.84932 9.90839 9.77425 9.72711 9.6241C9.54561 9.47396 9.45509 9.277 9.45509 9.03324V8.90576H11.1807ZM9.45509 8.03738C9.45509 7.85222 9.52867 7.70264 9.67607 7.58889C9.82336 7.47513 9.99616 7.41814 10.1946 7.41814C10.4041 7.41814 10.5814 7.47651 10.726 7.59278C10.8704 7.70928 10.9427 7.86023 10.9427 8.04539C10.9427 8.13008 10.9242 8.18696 10.8874 8.21602C10.8505 8.24521 10.7867 8.25974 10.6962 8.25974H9.45509V8.03738Z" fill="white"/>
<path d="M11.5546 5.21094H8.80454C8.5617 5.21094 8.36475 5.40789 8.36475 5.65062C8.36475 5.89346 8.5617 6.09041 8.80454 6.09041H11.5546C11.7974 6.09041 11.9944 5.89346 11.9944 5.65062C11.9944 5.40789 11.7974 5.21094 11.5546 5.21094Z" fill="white"/>
</g>
<defs>
<clipPath id="clip0">
<rect width="15" height="15" fill="white"/>
</clipPath>
</defs>
</svg>
