<svg width="17" height="17" viewBox="0 0 17 17" fill="none" xmlns="http://www.w3.org/2000/svg">
<path d="M13.4583 2.41667H12.0416V1.70833C12.0416 1.52047 11.967 1.3403 11.8342 1.20747C11.7013 1.07463 11.5212 1 11.3333 1C11.1454 1 10.9653 1.07463 10.8324 1.20747C10.6996 1.3403 10.625 1.52047 10.625 1.70833V2.41667H6.37496V1.70833C6.37496 1.52047 6.30033 1.3403 6.16749 1.20747C6.03466 1.07463 5.85449 1 5.66663 1C5.47877 1 5.2986 1.07463 5.16576 1.20747C5.03292 1.3403 4.95829 1.52047 4.95829 1.70833V2.41667H3.54163C2.97804 2.41667 2.43754 2.64055 2.03902 3.03906C1.64051 3.43758 1.41663 3.97808 1.41663 4.54167V13.0417C1.41663 13.6053 1.64051 14.1458 2.03902 14.5443C2.43754 14.9428 2.97804 15.1667 3.54163 15.1667H13.4583C14.0219 15.1667 14.5624 14.9428 14.9609 14.5443C15.3594 14.1458 15.5833 13.6053 15.5833 13.0417V4.54167C15.5833 3.97808 15.3594 3.43758 14.9609 3.03906C14.5624 2.64055 14.0219 2.41667 13.4583 2.41667ZM14.1666 13.0417C14.1666 13.2295 14.092 13.4097 13.9592 13.5425C13.8263 13.6754 13.6462 13.75 13.4583 13.75H3.54163C3.35376 13.75 3.1736 13.6754 3.04076 13.5425C2.90792 13.4097 2.83329 13.2295 2.83329 13.0417V8.08333H14.1666V13.0417ZM14.1666 6.66667H2.83329V4.54167C2.83329 4.35381 2.90792 4.17364 3.04076 4.0408C3.1736 3.90796 3.35376 3.83333 3.54163 3.83333H4.95829V4.54167C4.95829 4.72953 5.03292 4.9097 5.16576 5.04253C5.2986 5.17537 5.47877 5.25 5.66663 5.25C5.85449 5.25 6.03466 5.17537 6.16749 5.04253C6.30033 4.9097 6.37496 4.72953 6.37496 4.54167V3.83333H10.625V4.54167C10.625 4.72953 10.6996 4.9097 10.8324 5.04253C10.9653 5.17537 11.1454 5.25 11.3333 5.25C11.5212 5.25 11.7013 5.17537 11.8342 5.04253C11.967 4.9097 12.0416 4.72953 12.0416 4.54167V3.83333H13.4583C13.6462 3.83333 13.8263 3.90796 13.9592 4.0408C14.092 4.17364 14.1666 4.35381 14.1666 4.54167V6.66667Z" fill="white"/>
</svg>
