<svg width="16" height="15" viewBox="0 0 16 15" fill="none" xmlns="http://www.w3.org/2000/svg">
<path d="M8.47953 10.8427H13.3998C14.2959 10.8427 14.9999 10.1296 14.9999 9.27658V2.56616C14.9999 1.71311 14.2959 1.00006 13.3998 1.00006H2.59916C1.70311 1.00006 0.999063 1.71311 0.999063 2.56616V9.27658C0.999063 10.1296 1.70311 10.8427 2.59916 10.8427H4.19926V14.0009H4.20226L4.20426 13.9999L8.48053 10.8427H8.47953ZM4.7993 14.8039C4.58641 14.9609 4.32041 15.0279 4.05856 14.9907C3.79671 14.9535 3.55994 14.815 3.39921 14.6049C3.27037 14.4352 3.20049 14.228 3.2002 14.0149V11.8427H2.60016C1.16407 11.8427 6.43888e-07 10.6937 6.43888e-07 9.27658V2.56616C-0.000999419 1.14907 1.16307 0 2.59916 0H13.3998C14.8359 0 16 1.14907 16 2.56616V9.27658C16 10.6947 14.8359 11.8427 13.3998 11.8427H8.80955L4.7983 14.8039H4.7993Z" fill="#E5E5E5"/>
</svg>
