<svg width="30" height="30" viewBox="0 0 30 30" fill="none" xmlns="http://www.w3.org/2000/svg">
<g clip-path="url(#clip0)">
<path d="M4.32532 4.46439C7.11063 1.64263 10.8264 0.0580781 14.7882 0.00264838C15.2108 -0.00321099 15.5805 0.294797 15.6628 0.711105C15.9801 2.31722 17.3433 3.5188 18.9776 3.63312C19.2401 3.65152 19.4807 3.78652 19.6329 4.00114C19.7853 4.21577 19.8334 4.4873 19.7641 4.74118C19.4368 5.94095 19.6624 7.27859 20.3829 8.41109C21.1285 9.58296 22.2841 10.3603 23.5534 10.5437C24.0241 10.6117 24.3554 11.0419 24.3007 11.5145C24.2845 11.6556 24.2762 11.7973 24.2762 11.9357C24.2762 13.9446 25.9105 15.5789 27.9194 15.5789C28.231 15.5789 28.5408 15.5394 28.8402 15.4614C29.1173 15.3892 29.4122 15.4567 29.6304 15.6421C29.8488 15.8275 29.963 16.1075 29.9367 16.3927C29.5952 20.0998 27.8902 23.5324 25.136 26.0582C22.3643 28.6001 18.7653 30 15.0017 30C10.9951 30 7.22829 28.4398 4.39511 25.6066C1.56198 22.7735 0.00174713 19.0067 0.00174713 15C0.00174713 11.0306 1.5372 7.28902 4.32532 4.46439ZM5.63806 24.3636C8.13925 26.8648 11.4646 28.2422 15.0017 28.2422C18.3241 28.2422 21.5014 27.0065 23.9481 24.7627C26.1037 22.7858 27.5313 20.1804 28.0376 17.3354C27.9983 17.3363 27.9589 17.3367 27.9195 17.3367C25.0017 17.3367 22.6169 15.0109 22.5214 12.1159C21.0605 11.6971 19.7688 10.7204 18.8998 9.35462C18.0977 8.0938 17.7476 6.634 17.8914 5.23056C16.1525 4.78355 14.7344 3.48839 14.1384 1.78659C10.8955 1.99443 7.87645 3.36898 5.57636 5.69925C3.11501 8.19282 1.7595 11.4959 1.7595 15C1.75956 18.5371 3.13698 21.8626 5.63806 24.3636Z" fill="white"/>
<path d="M19.6505 15.8605C21.331 15.8605 22.6982 17.2277 22.6982 18.9082C22.6982 20.5887 21.331 21.956 19.6505 21.956C17.9699 21.956 16.6027 20.5887 16.6027 18.9082C16.6027 17.2277 17.97 15.8605 19.6505 15.8605ZM19.6505 20.1982C20.3618 20.1982 20.9404 19.6195 20.9404 18.9082C20.9404 18.1969 20.3618 17.6183 19.6505 17.6183C18.9392 17.6183 18.3605 18.1969 18.3605 18.9082C18.3605 19.6195 18.9392 20.1982 19.6505 20.1982Z" fill="white"/>
<path d="M12.3174 10.7176C10.5431 10.7176 9.09956 9.27411 9.09956 7.49983C9.09956 5.72555 10.5431 4.28204 12.3174 4.28204C14.0916 4.28204 15.5352 5.72555 15.5352 7.49983C15.5352 9.27411 14.0917 10.7176 12.3174 10.7176ZM12.3174 6.03985C11.5123 6.03985 10.8574 6.69481 10.8574 7.49983C10.8574 8.30491 11.5123 8.95981 12.3174 8.95981C13.1224 8.95981 13.7773 8.30485 13.7773 7.49983C13.7773 6.69475 13.1224 6.03985 12.3174 6.03985Z" fill="white"/>
<path d="M10.7806 18.2856C12.4066 18.2856 13.7295 19.6085 13.7295 21.2345C13.7295 22.8605 12.4066 24.1834 10.7806 24.1834C9.15455 24.1834 7.83168 22.8605 7.83168 21.2345C7.83168 19.6085 9.15455 18.2856 10.7806 18.2856ZM10.7806 22.4256C11.4374 22.4256 11.9717 21.8913 11.9717 21.2345C11.9717 20.5777 11.4374 20.0434 10.7806 20.0434C10.1238 20.0434 9.5895 20.5777 9.5895 21.2345C9.5895 21.8913 10.1238 22.4256 10.7806 22.4256Z" fill="white"/>
<path d="M3.70674 13.7559C3.70674 12.1299 5.02961 10.807 6.65565 10.807C8.28168 10.807 9.60449 12.1299 9.60449 13.7559C9.60449 15.382 8.28168 16.7048 6.65565 16.7048C5.02961 16.7048 3.70674 15.382 3.70674 13.7559ZM6.65565 14.947C7.31236 14.947 7.84668 14.4127 7.84668 13.7559C7.84668 13.0992 7.31236 12.5648 6.65565 12.5648C5.99887 12.5648 5.46455 13.0992 5.46455 13.7559C5.46455 14.4127 5.99887 14.947 6.65565 14.947Z" fill="white"/>
<path d="M7.51797 8.20782C7.4432 8.56817 7.15023 8.85024 6.78519 8.90537C6.4225 8.9601 6.0533 8.77342 5.8815 8.44981C5.70959 8.12608 5.75758 7.71809 6.00502 7.44598C6.25205 7.17434 6.65306 7.0834 6.99244 7.22455C7.37828 7.3851 7.59431 7.79959 7.51797 8.20782Z" fill="white"/>
<path d="M3.95405 18.9926C4.02296 18.6324 4.32554 18.3497 4.68624 18.2954C5.04864 18.2409 5.4186 18.4269 5.59051 18.7506C5.76243 19.0743 5.71386 19.483 5.46671 19.7549C5.21927 20.0272 4.81907 20.1158 4.47958 19.9758C4.0986 19.8188 3.86991 19.398 3.95405 18.9926Z" fill="white"/>
<path d="M18.7932 12.7559C18.7258 13.1158 18.4206 13.3993 18.061 13.4534C17.6976 13.5081 17.3299 13.3211 17.1567 12.9978C16.9831 12.6739 17.035 12.2667 17.2803 11.994C17.5265 11.7205 17.9289 11.6331 18.2676 11.7726C18.6486 11.9296 18.8773 12.3506 18.7932 12.7559Z" fill="white"/>
<path d="M15.3121 24.8344C15.3877 24.4739 15.6791 24.1921 16.0448 24.1366C16.4072 24.0816 16.7765 24.2688 16.9486 24.5918C17.1211 24.9154 17.072 25.3241 16.8251 25.5961C16.5784 25.8677 16.1767 25.9583 15.8378 25.8176C15.4575 25.6598 15.228 25.2397 15.3121 24.8344Z" fill="white"/>
<path d="M11.4771 13.0318C11.5917 12.6816 11.9026 12.4283 12.2748 12.4092C12.6416 12.3905 12.9891 12.6126 13.1295 12.951C13.2699 13.2893 13.1809 13.6928 12.9081 13.9385C12.6344 14.1849 12.2294 14.2346 11.9042 14.0619C11.5368 13.8667 11.3592 13.4289 11.4771 13.0318Z" fill="white"/>
<path d="M13.6441 17.3373C13.338 17.1358 13.1902 16.7474 13.2796 16.3929C13.3691 16.0374 13.6803 15.7679 14.0456 15.7325C14.4107 15.6972 14.7699 15.8985 14.9261 16.2313C15.0821 16.5634 15.0134 16.9685 14.7533 17.2284C14.4614 17.5201 13.9871 17.5686 13.6441 17.3373Z" fill="white"/>
<path d="M24.7078 18.9926C24.7767 18.6324 25.0793 18.3497 25.44 18.2954C25.8026 18.2408 26.1723 18.4268 26.3443 18.7506C26.5163 19.0744 26.4679 19.4828 26.2207 19.7549C25.9734 20.027 25.5727 20.1161 25.2334 19.9758C24.853 19.8186 24.6228 19.398 24.7078 18.9926Z" fill="white"/>
<path d="M24.6905 6.09551C23.0099 6.09551 21.6427 4.72828 21.6427 3.04775C21.6428 1.36723 23.01 0 24.6905 0C26.3711 0 27.7383 1.36723 27.7383 3.04775C27.7383 4.72828 26.3711 6.09551 24.6905 6.09551ZM24.6905 1.75781C23.9792 1.75781 23.4005 2.33648 23.4005 3.04775C23.4005 3.75902 23.9792 4.3377 24.6905 4.3377C25.4018 4.3377 25.9805 3.75902 25.9805 3.04775C25.9805 2.33648 25.4018 1.75781 24.6905 1.75781Z" fill="white"/>
<path d="M29.8983 9.91465C29.7285 10.2387 29.3547 10.4248 28.9939 10.37C28.6308 10.315 28.3336 10.0331 28.2612 9.67265C28.1889 9.31306 28.357 8.93531 28.6716 8.74717C28.987 8.55849 29.3957 8.58902 29.6803 8.82129C30.0053 9.08654 30.0866 9.54586 29.8983 9.91465Z" fill="white"/>
</g>
<defs>
<clipPath id="clip0">
<rect width="30" height="30" fill="white" transform="matrix(-1 0 0 1 30 0)"/>
</clipPath>
</defs>
</svg>
