<svg width="30" height="30" viewBox="0 0 30 30" fill="none" xmlns="http://www.w3.org/2000/svg">
<g clip-path="url(#clip0)">
<path d="M29.9711 14.2154C29.9561 13.9223 29.7957 13.6561 29.5437 13.5058C29.2917 13.3554 28.9812 13.3408 28.7162 13.4667C27.9976 13.8081 27.2267 13.9812 26.4249 13.9812C23.4744 13.9812 21.074 11.5791 21.074 8.62635C21.074 7.88739 21.2217 7.17164 21.5131 6.4989C21.6562 6.1683 21.5832 5.78391 21.3289 5.52884C21.0744 5.27371 20.6902 5.1997 20.3593 5.34209C19.9424 5.5214 19.4993 5.61228 19.0424 5.61228C17.2009 5.61228 15.7028 4.11286 15.7028 2.26984C15.7028 1.894 15.7654 1.52356 15.889 1.16893C15.9824 0.900974 15.9407 0.604419 15.7771 0.372671C15.6135 0.140865 15.348 0.00234385 15.0642 0.000644558L15.0483 0.000410173C15.0325 0.000234385 15.0166 0 15.0006 0C10.9963 0 7.23168 1.56036 4.40026 4.3936C1.56901 7.22666 0.00976562 10.9935 0.00976562 15C0.00976562 19.0065 1.56901 22.7733 4.40026 25.6063C7.23168 28.4396 10.9963 29.9999 15.0006 29.9999C19.0049 29.9999 22.7695 28.4396 25.6009 25.6063C28.4322 22.7733 29.9914 19.0065 29.9914 15C29.9915 14.7412 29.9846 14.4772 29.9711 14.2154ZM24.3575 24.3637C21.8582 26.8647 18.5351 28.2421 15.0006 28.2421C11.4661 28.2421 8.14303 26.8647 5.64367 24.3637C3.14419 21.8626 1.76765 18.5372 1.76765 15C1.76765 11.4628 3.14419 8.13731 5.64367 5.63625C7.89775 3.3807 10.8217 2.03909 13.9666 1.79744C13.9521 1.95412 13.9448 2.11169 13.9448 2.2699C13.9448 5.08222 16.2316 7.37022 19.0424 7.37022C19.1719 7.37022 19.3008 7.36542 19.4289 7.35587C19.3538 7.77213 19.316 8.19637 19.316 8.62635C19.316 12.5484 22.505 15.7391 26.4248 15.7391C27.0398 15.7391 27.6412 15.6623 28.224 15.5099C28.0982 18.8557 26.7365 21.9832 24.3575 24.3637Z" fill="white"/>
<path d="M8.67668 14.2602C10.2737 14.2602 11.573 12.9603 11.573 11.3625C11.573 9.76477 10.2737 8.46487 8.67668 8.46487C7.07959 8.46487 5.78027 9.76477 5.78027 11.3625C5.78027 12.9603 7.07959 14.2602 8.67668 14.2602ZM8.67668 10.2228C9.30442 10.2228 9.81515 10.7341 9.81515 11.3625C9.81515 11.991 9.30442 12.5023 8.67668 12.5023C8.04894 12.5023 7.53816 11.991 7.53816 11.3625C7.53816 10.7341 8.04888 10.2228 8.67668 10.2228Z" fill="white"/>
<path d="M9.24189 16.8727C7.75905 16.8727 6.55273 18.0796 6.55273 19.563C6.55273 21.0464 7.75905 22.2533 9.24189 22.2533C10.7247 22.2533 11.9311 21.0464 11.9311 19.563C11.9311 18.0796 10.7247 16.8727 9.24189 16.8727ZM9.24189 20.4955C8.72835 20.4955 8.31062 20.0771 8.31062 19.563C8.31062 19.0489 8.72835 18.6306 9.24189 18.6306C9.75542 18.6306 10.1732 19.0489 10.1732 19.563C10.1732 20.0771 9.75542 20.4955 9.24189 20.4955Z" fill="white"/>
<path d="M21.3973 17.3446C19.8003 17.3446 18.501 18.6445 18.501 20.2422C18.501 21.84 19.8003 23.1399 21.3973 23.1399C22.9944 23.1399 24.2937 21.84 24.2937 20.2422C24.2937 18.6445 22.9944 17.3446 21.3973 17.3446ZM21.3973 21.382C20.7696 21.382 20.2589 20.8707 20.2589 20.2422C20.2589 19.6138 20.7696 19.1025 21.3973 19.1025C22.0251 19.1025 22.5358 19.6138 22.5358 20.2422C22.5358 20.8707 22.0251 21.382 21.3973 21.382Z" fill="white"/>
<path d="M16.2032 22.2611C15.7264 22.2611 15.3398 22.6479 15.3398 23.125C15.3398 23.6021 15.7264 23.9889 16.2032 23.9889C16.68 23.9889 17.0665 23.6021 17.0665 23.125C17.0665 22.6479 16.68 22.2611 16.2032 22.2611Z" fill="white"/>
<path d="M11.0518 5.90671C11.5287 5.90671 11.9152 5.51991 11.9152 5.04277C11.9152 4.56563 11.5287 4.17883 11.0518 4.17883C10.575 4.17883 10.1885 4.56563 10.1885 5.04277C10.1885 5.51991 10.575 5.90671 11.0518 5.90671Z" fill="white"/>
<path d="M5.05086 17.7518C5.52768 17.7518 5.91421 17.365 5.91421 16.8878C5.91421 16.4107 5.52768 16.0239 5.05086 16.0239C4.57404 16.0239 4.1875 16.4107 4.1875 16.8878C4.1875 17.365 4.57404 17.7518 5.05086 17.7518Z" fill="white"/>
<path d="M13.3468 12.1759C12.87 12.1759 12.4834 12.5627 12.4834 13.0398C12.4834 13.517 12.87 13.9037 13.3468 13.9037C13.8236 13.9037 14.2101 13.5169 14.2101 13.0398C14.2101 12.5627 13.8236 12.1759 13.3468 12.1759Z" fill="white"/>
<path d="M18.5167 16.5039C18.9935 16.5039 19.38 16.1171 19.38 15.6399C19.38 15.1628 18.9935 14.776 18.5167 14.776C18.0399 14.776 17.6533 15.1628 17.6533 15.6399C17.6533 16.1171 18.0399 16.5039 18.5167 16.5039Z" fill="white"/>
</g>
<defs>
<clipPath id="clip0">
<rect width="30" height="30" fill="white"/>
</clipPath>
</defs>
</svg>
