<svg width="17" height="17" viewBox="0 0 17 17" fill="none" xmlns="http://www.w3.org/2000/svg">
<path d="M10.0618 16.4848C8.90268 16.4848 7.99849 16.4741 7.34918 16.4527C6.69987 16.4312 6.20082 16.3856 5.85202 16.3158C5.50322 16.2461 5.28321 16.187 5.19198 16.1387C5.10076 16.0904 4.95319 15.9965 4.74927 15.857C4.58829 15.7282 4.29583 15.6236 3.87191 15.5431C3.44798 15.4626 2.74233 15.3902 1.75496 15.3258C1.58324 15.315 1.44909 15.2506 1.35249 15.1326C1.33103 15.1004 1.2881 15.0306 1.22371 14.9233C1.15931 14.816 1.06809 14.6362 0.950033 14.384C0.831977 14.1318 0.721971 13.8554 0.620014 13.5549C0.518057 13.2544 0.429515 12.8788 0.354389 12.428C0.279262 11.9773 0.241699 11.5211 0.241699 11.0597C0.241699 9.49274 0.504641 8.29072 1.03052 7.4536C1.13785 7.29261 1.2881 7.21212 1.48128 7.21212C2.3828 7.21212 3.37285 6.66477 4.45145 5.57008C5.53005 4.47538 6.46108 2.98895 7.24454 1.1108C7.266 1.0786 7.30088 1.00347 7.34918 0.885417C7.39748 0.767361 7.42699 0.692235 7.43772 0.660038C7.44845 0.627841 7.47797 0.56613 7.52626 0.474905C7.57456 0.383681 7.61749 0.324653 7.65505 0.297822C7.69261 0.270991 7.74359 0.230745 7.80799 0.177083C7.87238 0.123422 7.93946 0.0885417 8.00922 0.0724432C8.07898 0.0563447 8.16484 0.0402462 8.26679 0.0241477C8.36875 0.00804924 8.48412 0 8.61291 0C8.80609 0 9.00464 0.0429293 9.20856 0.128788C9.41247 0.214646 9.60028 0.330019 9.772 0.474905C9.94372 0.619792 10.0832 0.78346 10.1906 0.965909C10.3945 1.29861 10.5125 1.7762 10.5447 2.39867C10.5769 3.02115 10.5581 3.60069 10.4884 4.13731C10.4186 4.67393 10.3247 5.18908 10.2067 5.68277C12.117 5.67203 13.4156 5.66667 14.1025 5.66667C14.7357 5.66667 15.2482 5.83838 15.6399 6.18182C16.0316 6.52525 16.2329 6.97601 16.2436 7.53409C16.2543 8.00631 16.206 8.36585 16.0987 8.61269C16.2812 8.79514 16.4341 8.98564 16.5575 9.18419C16.6809 9.38273 16.748 9.60543 16.7587 9.85227C16.7695 10.3567 16.5226 10.8718 16.0182 11.3977C16.0289 11.4192 16.0504 11.4702 16.0826 11.5507C16.1148 11.6312 16.139 11.6982 16.1551 11.7519C16.1711 11.8056 16.1846 11.8726 16.1953 11.9531C16.206 12.0336 16.2114 12.1114 16.2114 12.1866C16.1899 12.7768 15.8465 13.3027 15.1811 13.7642C15.2348 14.1184 15.2294 14.435 15.165 14.714C14.9074 15.8946 13.2063 16.4848 10.0618 16.4848ZM2.02863 14.2794C3.78873 14.4189 4.90489 14.6657 5.37712 15.0199C5.54883 15.1487 5.69909 15.2345 5.82787 15.2775C5.95666 15.3204 6.34302 15.3606 6.98696 15.3982C7.6309 15.4358 8.65584 15.4545 10.0618 15.4545C10.5018 15.4545 10.9016 15.4438 11.2611 15.4223C11.6206 15.4009 12.0365 15.3633 12.5087 15.3097C12.981 15.256 13.362 15.1594 13.6517 15.0199C13.9415 14.8804 14.1132 14.7033 14.1669 14.4886C14.2098 14.2633 14.1079 14.0218 13.861 13.7642C13.8074 13.6354 13.8074 13.5039 13.861 13.3698C13.9147 13.2356 14.0005 13.1417 14.1186 13.0881H14.1347C14.1884 13.0666 14.2527 13.0398 14.3279 13.0076C14.403 12.9754 14.513 12.9164 14.6579 12.8305C14.8028 12.7446 14.9235 12.64 15.0201 12.5166C15.1167 12.3932 15.1704 12.2724 15.1811 12.1544C15.1811 12.1114 15.1784 12.0712 15.173 12.0336C15.1677 11.9961 15.1623 11.9612 15.1569 11.929C15.1516 11.8968 15.1408 11.8646 15.1247 11.8324L15.0845 11.7519L15.0443 11.6875L15.004 11.6312L14.9718 11.5909L14.9477 11.5587L14.9396 11.5426C14.8967 11.489 14.8699 11.4299 14.8591 11.3655C14.8484 11.3011 14.8484 11.2367 14.8591 11.1723C14.8699 11.108 14.894 11.0462 14.9316 10.9872C14.9691 10.9282 15.0147 10.8772 15.0684 10.8343C15.1328 10.8021 15.2026 10.7565 15.2777 10.6974C15.3528 10.6384 15.4467 10.5284 15.5594 10.3674C15.6721 10.2064 15.7284 10.0455 15.7284 9.88447C15.7177 9.61616 15.5138 9.36395 15.1167 9.12784C15.0523 9.08491 14.9986 9.03393 14.9557 8.97491C14.9128 8.91588 14.8806 8.8488 14.8591 8.77367C14.8484 8.73074 14.8457 8.68513 14.8511 8.63684C14.8564 8.58854 14.8672 8.54025 14.8833 8.49195C14.8994 8.44366 14.9235 8.39804 14.9557 8.35511C14.9664 8.34438 14.9772 8.33097 14.9879 8.31487C14.9986 8.29877 15.0201 8.25852 15.0523 8.19413C15.0845 8.12973 15.1113 8.06802 15.1328 8.009C15.1543 7.94997 15.173 7.87752 15.1891 7.79167C15.2052 7.70581 15.2133 7.62532 15.2133 7.55019C15.2026 7.35701 15.1516 7.19602 15.0604 7.06723C14.9691 6.93845 14.8511 6.84991 14.7062 6.80161C14.5613 6.75331 14.4459 6.7238 14.3601 6.71307C14.2742 6.70234 14.1884 6.69697 14.1025 6.69697H10.3354L9.46613 6.71307C9.4232 6.71307 9.38027 6.7077 9.33734 6.69697C9.29441 6.68624 9.25417 6.67014 9.2166 6.64867C9.17904 6.62721 9.14416 6.60306 9.11196 6.57623C9.07977 6.5494 9.05294 6.51452 9.03147 6.47159C8.93488 6.33207 8.91878 6.17109 8.98318 5.98864C9.15489 5.49495 9.29173 4.95297 9.39369 4.36269C9.49564 3.77241 9.54394 3.20896 9.53857 2.67235C9.53321 2.13573 9.4554 1.744 9.30515 1.49716C9.29441 1.47569 9.27295 1.43813 9.24075 1.38447C9.20856 1.33081 9.18709 1.29324 9.17636 1.27178C9.16563 1.25032 9.14148 1.2208 9.10392 1.18324C9.06635 1.14568 9.02879 1.11884 8.99123 1.10275C8.95366 1.08665 8.90268 1.07055 8.83829 1.05445C8.7739 1.03835 8.69877 1.0303 8.61291 1.0303C8.58071 1.0303 8.54852 1.04104 8.51632 1.0625C8.48412 1.08396 8.43583 1.13226 8.37143 1.20739C8.30704 1.28251 8.24801 1.38447 8.19435 1.51326C7.36796 3.50947 6.36986 5.10054 5.20003 6.28646C4.03021 7.47238 2.89795 8.119 1.80325 8.22633C1.71739 8.41951 1.64227 8.61269 1.57787 8.80587C1.51348 8.99905 1.4464 9.30492 1.37664 9.72348C1.30688 10.142 1.272 10.5874 1.272 11.0597C1.272 11.5426 1.3203 12.0229 1.41689 12.5005C1.51348 12.9781 1.61275 13.3537 1.71471 13.6274C1.81667 13.901 1.92131 14.1184 2.02863 14.2794Z" fill="#E5E5E5"/>
</svg>
