<svg width="81" height="81" viewBox="0 0 81 81" fill="none" xmlns="http://www.w3.org/2000/svg">
<path d="M3.45825 70.9901C4.07957 70.9901 4.58325 70.4839 4.58325 69.8593C4.58325 69.2348 4.07957 68.7285 3.45825 68.7285C2.83693 68.7285 2.33325 69.2348 2.33325 69.8593C2.33325 70.4839 2.83693 70.9901 3.45825 70.9901Z" fill="#E3312D"/>
<path d="M7.0415 63.7029C7.24984 64.1636 9.95817 70.9066 9.95817 70.9066C9.95817 70.9485 9.99984 70.9485 9.99984 70.9904H12.2498L7.37484 59.8916L5.9165 63.2003C6.37484 63.0328 6.83317 63.2003 7.0415 63.7029Z" fill="white"/>
<path d="M18.7083 66.9695C18.7083 66.9695 20.6666 66.0899 20.4583 63.4932C20.2499 60.9384 18.5833 60.3521 17.8749 60.1008C17.0833 59.8495 13.1666 59.8495 12.8333 59.8914L13.7499 61.9855H14.8749C14.8749 61.9855 16.5833 61.9855 16.7916 62.0274C16.9999 62.0692 18.0416 62.153 18.2083 63.4513C18.3749 64.7497 17.4999 65.1685 17.0833 65.2942C16.7499 65.4198 15.5416 65.3779 15.1249 65.3779C15.9166 66.6344 16.9166 68.184 16.9166 68.184L18.7916 70.9901H21.3333C21.2916 70.9901 19.3749 68.0165 18.7083 66.9695Z" fill="white"/>
<path d="M28.75 59.8916H25.5H25H24L24.875 61.9857H25.9167H27.5417V70.9904H29.75V61.9857H32.4167V59.8916H28.75Z" fill="white"/>
<path d="M43.0833 70.9901C43.7046 70.9901 44.2082 70.4839 44.2082 69.8593C44.2082 69.2348 43.7046 68.7285 43.0833 68.7285C42.4619 68.7285 41.9583 69.2348 41.9583 69.8593C41.9583 70.4839 42.4619 70.9901 43.0833 70.9901Z" fill="#E3312D"/>
<path d="M46.7083 63.7029C46.9167 64.1636 49.625 70.9066 49.625 70.9066C49.625 70.9485 49.6667 70.9485 49.6667 70.9904H51.9167L47.0833 59.8916L45.625 63.2003C46.0417 63.0328 46.5 63.2422 46.7083 63.7029Z" fill="white"/>
<path d="M64.0416 63.5772C63.8333 62.9071 63.4583 62.2789 62.9999 61.7344C62.5416 61.19 61.9166 60.7292 61.1249 60.3942C60.3333 60.0591 59.4166 59.8916 58.2916 59.8916H55.9999H54.9999H53.0833L53.9999 61.9857L55.9166 62.0276H57.1666H58.9583C59.2083 62.0276 59.4999 62.0695 59.8749 62.1532C60.2499 62.237 60.5833 62.4045 60.9166 62.6558C61.2499 62.9071 61.5416 63.2422 61.7916 63.7029C62.0416 64.1636 62.1249 64.7499 62.1249 65.4619C62.1249 66.0064 62.0416 66.509 61.8749 66.9278C61.7083 67.3466 61.4583 67.7236 61.1249 67.9748C60.7916 68.268 60.4166 68.4774 59.9583 68.6031C59.4999 68.7287 58.9999 68.8125 58.4583 68.8125H57.6666H55.0416L55.9583 70.9066H58.8333C59.5833 70.9066 60.2916 70.781 60.9583 70.5297C61.6249 70.2784 62.2083 69.9433 62.7499 69.4407C63.2499 68.98 63.6666 68.3937 63.9583 67.7654C64.2499 67.0953 64.4166 66.3833 64.4166 65.5457C64.3749 64.9593 64.2499 64.2473 64.0416 63.5772Z" fill="white"/>
<path d="M73.4582 65.6293C73.2082 65.378 72.9165 65.1686 72.6248 65.0011C72.3332 64.8336 71.9998 64.7079 71.6665 64.5823C71.3332 64.4566 70.9998 64.2891 70.6665 64.1635C70.3332 63.9959 70.0832 63.8284 69.8748 63.619C69.6665 63.4096 69.5832 63.2002 69.5832 62.907C69.5832 62.5301 69.7082 62.2369 69.9998 62.0694C70.2498 61.9018 70.6248 61.7762 71.0832 61.7762C71.4582 61.7762 71.8748 61.8599 72.2915 61.9856C72.7082 62.1112 73.1248 62.3207 73.5415 62.5301L74.2915 60.8129C73.8748 60.5616 73.4165 60.3103 72.9165 60.1428C72.3748 59.9334 71.6665 59.8496 70.7915 59.8496C70.1248 59.8915 69.5415 60.0171 68.9998 60.3103C68.4998 60.6035 68.0832 60.9385 67.7915 61.3992C67.4998 61.8599 67.3748 62.4044 67.3748 63.0326C67.3748 63.5771 67.4582 63.9959 67.6665 64.3729C67.8748 64.7498 68.1248 65.043 68.4165 65.2943C68.7082 65.5456 69.0415 65.755 69.4165 65.9225C69.7915 66.09 70.1248 66.2576 70.4582 66.3832C70.7498 66.5089 70.9998 66.6345 71.2498 66.7602C71.4998 66.9277 71.6665 67.0533 71.8332 67.2627C71.9582 67.4303 72.0415 67.6397 72.0415 67.8491C72.0415 68.1841 71.9582 68.3936 71.7915 68.603C71.6248 68.7705 71.4165 68.8961 71.1248 68.9799C70.8748 69.0637 70.6248 69.1056 70.3332 69.1056C70.0832 69.1056 69.7915 69.0637 69.4998 68.9799C69.2082 68.8961 68.8748 68.7705 68.5832 68.6449C68.2915 68.5192 68.0415 68.3517 67.7915 68.1841L67.0415 69.9851C67.3748 70.1945 67.6665 70.362 67.9998 70.4877C68.4165 70.6552 68.8332 70.7808 69.2498 70.8646C69.6665 70.9484 70.0832 70.9902 70.4998 70.9902C71.2915 70.9902 71.9998 70.8646 72.5415 70.5714C73.0832 70.2782 73.4998 69.9013 73.7915 69.3987C74.0832 68.938 74.2082 68.3936 74.2082 67.8491C74.2082 67.3046 74.1248 66.8858 73.9998 66.5089C73.9165 66.1738 73.7082 65.8806 73.4582 65.6293Z" fill="white"/>
<path d="M1.83333 79.4086C1.58333 79.4086 1.33333 79.3667 1.08333 79.2411C0.833334 79.1154 0.666667 78.9898 0.5 78.7804C0.333334 78.5709 0.208333 78.3615 0.125 78.1521C0.0416663 77.9008 0 77.6495 0 77.3982C0 77.1051 0.0416663 76.8538 0.125 76.6025C0.208333 76.3512 0.333334 76.1418 0.5 75.9324C0.666667 75.7648 0.833334 75.5973 1.08333 75.4717C1.29167 75.346 1.54167 75.3041 1.79167 75.3041C2.125 75.3041 2.41667 75.3879 2.66667 75.5554C2.91667 75.723 3.125 75.9324 3.25 76.1837V73.7964H3.75V78.6547C3.75 78.7804 3.79167 78.8641 3.91667 78.8641V79.3248C3.83333 79.3248 3.79167 79.3667 3.75 79.3667C3.625 79.3667 3.54167 79.3248 3.41667 79.2411C3.33333 79.1573 3.29167 79.0735 3.29167 78.9479V78.5709C3.125 78.8222 2.91667 79.0316 2.66667 79.1992C2.375 79.3248 2.125 79.4086 1.83333 79.4086ZM1.91667 78.9479C2.04167 78.9479 2.16667 78.906 2.33333 78.8641C2.45833 78.8222 2.625 78.7385 2.75 78.6547C2.875 78.5709 3 78.4453 3.08333 78.3615C3.16667 78.2359 3.20833 78.1102 3.25 77.9846V76.77C3.20833 76.6444 3.125 76.5187 3.04167 76.3931C2.95833 76.2674 2.83333 76.1837 2.70833 76.0999C2.58333 76.0161 2.45833 75.9324 2.33333 75.8905C2.20833 75.8486 2.04167 75.8067 1.91667 75.8067C1.70833 75.8067 1.5 75.8486 1.33333 75.9324C1.16667 76.0161 1 76.1418 0.875001 76.3093C0.750001 76.4768 0.666667 76.6444 0.583334 76.8119C0.500001 77.0213 0.5 77.1888 0.5 77.3982C0.5 77.6077 0.541667 77.8171 0.625 77.9846C0.708333 78.1521 0.791667 78.3615 0.916667 78.4872C1.04167 78.6128 1.20833 78.7385 1.375 78.8222C1.54167 78.906 1.75 78.9479 1.91667 78.9479Z" fill="white"/>
<path d="M7.375 74.5923V73.8384H7.875V74.5923H7.375ZM7.375 79.3249V75.388H7.875V79.3249H7.375Z" fill="white"/>
<path d="M13.1251 79.3666C12.8751 79.3666 12.6251 79.3248 12.3751 79.1991C12.1667 79.0735 11.9584 78.9478 11.7917 78.7384C11.6251 78.5709 11.5001 78.3196 11.4167 78.1102C11.3334 77.9008 11.2917 77.6076 11.2917 77.3563C11.2917 77.105 11.3334 76.8118 11.4167 76.5605C11.5001 76.3093 11.6251 76.0998 11.7917 75.8904C11.9584 75.7229 12.1251 75.5554 12.3751 75.4297C12.5834 75.3041 12.8334 75.2622 13.1251 75.2622C13.4584 75.2622 13.7501 75.346 14.0001 75.5135C14.2501 75.681 14.4584 75.8904 14.6251 76.1417V75.3041H15.0834V79.241C15.0834 79.4923 15.0417 79.7436 14.9167 79.953C14.7917 80.1624 14.6667 80.3299 14.5001 80.4975C14.3334 80.665 14.1251 80.7487 13.8751 80.8325C13.6251 80.9163 13.4167 80.9582 13.1251 80.9582C12.6667 80.9582 12.2917 80.8744 12.0417 80.7069C11.7501 80.5393 11.5417 80.3299 11.3751 80.0786L11.7084 79.8273C11.8751 80.0786 12.0834 80.2462 12.3334 80.3718C12.5834 80.4975 12.8751 80.5393 13.1667 80.5393C13.3751 80.5393 13.5417 80.4975 13.7084 80.4556C13.8751 80.4137 14.0417 80.3299 14.1667 80.2043C14.2917 80.1205 14.3751 79.953 14.4584 79.8273C14.5417 79.6598 14.5834 79.4923 14.5834 79.2829V78.5709C14.4167 78.8222 14.2084 79.0316 13.9584 79.1572C13.6667 79.2829 13.3751 79.3666 13.1251 79.3666ZM13.2501 78.9478C13.4167 78.9478 13.5417 78.9059 13.7084 78.8641C13.8334 78.8222 14.0001 78.7384 14.0834 78.6546C14.2084 78.5709 14.2917 78.4452 14.3751 78.3615C14.4584 78.2777 14.5001 78.1102 14.5417 78.0264V76.8118C14.5001 76.6862 14.4167 76.5605 14.3334 76.4349C14.2501 76.3093 14.1251 76.2255 14.0001 76.1417C13.8751 76.058 13.7501 75.9742 13.6251 75.9323C13.5001 75.8904 13.3334 75.8486 13.2084 75.8486C13.0001 75.8486 12.7917 75.8904 12.6251 75.9742C12.4584 76.058 12.2917 76.1836 12.1667 76.3511C12.0417 76.5187 11.9584 76.6862 11.8751 76.8537C11.7917 77.0631 11.7917 77.2307 11.7917 77.4401C11.7917 77.6495 11.8334 77.8589 11.9167 78.0264C12.0001 78.1939 12.0834 78.4034 12.2084 78.529C12.3334 78.6546 12.5001 78.7803 12.6667 78.8641C12.8751 78.9059 13.0417 78.9478 13.2501 78.9478Z" fill="white"/>
<path d="M18.7085 74.5923V73.8384H19.2085V74.5923H18.7085ZM18.7085 79.3249V75.388H19.2085V79.3249H18.7085Z" fill="white"/>
<path d="M24.7085 79.1156C24.6668 79.1156 24.6252 79.1575 24.5835 79.1575C24.5418 79.1993 24.4585 79.1994 24.3752 79.2412C24.2918 79.2831 24.2085 79.2831 24.1252 79.325C24.0418 79.3669 23.9168 79.3669 23.8335 79.3669C23.7085 79.3669 23.6252 79.3669 23.5002 79.325C23.4168 79.2831 23.2918 79.2412 23.2502 79.1993C23.1668 79.1575 23.1252 79.0737 23.0835 78.9481C23.0418 78.8643 23.0002 78.7386 23.0002 78.613V75.8069H22.4585V75.3881H23.0002V74.0479H23.5002V75.3881H24.4168V75.8069H23.5002V78.4874C23.5002 78.613 23.5418 78.7386 23.6668 78.8224C23.7502 78.9062 23.8752 78.9062 24.0002 78.9062C24.1252 78.9062 24.2918 78.8643 24.3752 78.8224C24.5002 78.7805 24.5418 78.7386 24.5835 78.7386L24.7085 79.1156Z" fill="white"/>
<path d="M28.8334 79.4085C28.6667 79.4085 28.4584 79.3666 28.3334 79.3247C28.1667 79.241 28.0417 79.1572 27.9167 79.0734C27.7917 78.9897 27.7084 78.8221 27.6251 78.6965C27.5417 78.529 27.5417 78.4033 27.5417 78.2358C27.5417 78.0683 27.5834 77.9007 27.6667 77.7751C27.7501 77.6494 27.8751 77.5238 28.0001 77.3981C28.1251 77.2725 28.3334 77.2306 28.5001 77.1469C28.7084 77.105 28.9167 77.0631 29.1667 77.0631C29.3751 77.0631 29.5834 77.0631 29.7917 77.105C30.0001 77.1469 30.1667 77.1887 30.3334 77.2725V76.9374C30.3334 76.6024 30.2501 76.3092 30.0417 76.0998C29.8334 75.8904 29.5834 75.8066 29.2501 75.8066C29.0417 75.8066 28.8334 75.8485 28.6251 75.9323C28.4167 76.016 28.2084 76.1417 28.0001 76.2673L27.8334 75.9323C28.3334 75.5972 28.8334 75.4297 29.2917 75.4297C29.7917 75.4297 30.1667 75.5553 30.4584 75.8485C30.7501 76.1417 30.8751 76.5186 30.8751 76.9793V78.7384C30.8751 78.864 30.9167 78.9478 31.0417 78.9478V79.4085C30.9584 79.4085 30.8751 79.4504 30.8334 79.4504C30.7084 79.4504 30.5834 79.4085 30.5417 79.3666C30.4584 79.2828 30.4167 79.1991 30.4167 79.1153V78.8221C30.2501 79.0734 30.0001 79.241 29.7501 79.3666C29.4584 79.3247 29.1667 79.4085 28.8334 79.4085ZM28.9584 78.9897C29.2084 78.9897 29.4584 78.9478 29.7084 78.8221C29.9167 78.7384 30.0834 78.5708 30.2084 78.4033C30.2501 78.3614 30.2917 78.3196 30.2917 78.2358C30.2917 78.152 30.3334 78.152 30.3334 78.0683V77.44C30.1667 77.3563 30.0001 77.3144 29.7917 77.2725C29.5834 77.2306 29.4167 77.2306 29.2501 77.2306C28.8751 77.2306 28.5834 77.3144 28.3751 77.44C28.1667 77.6076 28.0417 77.7751 28.0417 78.0264C28.0417 78.152 28.0834 78.2777 28.1251 78.3614C28.1667 78.4871 28.2501 78.5708 28.3334 78.6546C28.4167 78.7384 28.5001 78.7803 28.6251 78.8221C28.7084 78.9897 28.8334 78.9897 28.9584 78.9897Z" fill="white"/>
<path d="M34.5 73.8384H35V78.4454C35 78.5711 35.0417 78.6967 35.125 78.7805C35.2083 78.8642 35.3333 78.9061 35.4583 78.9061C35.5 78.9061 35.5833 78.9061 35.6667 78.8642C35.75 78.8642 35.7917 78.8224 35.875 78.8224L35.9583 79.2412C35.875 79.2831 35.75 79.3249 35.625 79.3249C35.5 79.3668 35.375 79.3668 35.25 79.3668C35 79.3668 34.8333 79.283 34.7083 79.1574C34.5833 79.0318 34.5 78.8224 34.5 78.6129V73.8384Z" fill="white"/>
<path d="M44.4167 79.4085C44.25 79.4085 44.0417 79.3666 43.9167 79.3247C43.75 79.241 43.625 79.1572 43.5 79.0734C43.375 78.9478 43.2917 78.8221 43.2083 78.6965C43.125 78.529 43.125 78.4033 43.125 78.2358C43.125 78.0683 43.1667 77.9007 43.25 77.7751C43.3333 77.6494 43.4583 77.5238 43.5833 77.3981C43.7083 77.2725 43.9167 77.2306 44.0833 77.1469C44.2917 77.105 44.5 77.0631 44.75 77.0631C44.9583 77.0631 45.1667 77.0631 45.375 77.105C45.5833 77.1469 45.75 77.1887 45.9167 77.2725V76.9374C45.9167 76.6024 45.8333 76.3092 45.625 76.0998C45.4167 75.8904 45.1667 75.8066 44.8333 75.8066C44.625 75.8066 44.4167 75.8485 44.2083 75.9323C44 76.016 43.7917 76.1417 43.5833 76.2673L43.4167 75.9323C43.9167 75.5972 44.4167 75.4297 44.875 75.4297C45.375 75.4297 45.75 75.5553 46.0417 75.8485C46.3333 76.1417 46.4583 76.5186 46.4583 76.9793V78.7384C46.4583 78.864 46.5417 78.9478 46.6667 78.9478V79.4085C46.5833 79.4085 46.5 79.4504 46.4583 79.4504C46.3333 79.4504 46.2083 79.4085 46.1667 79.3666C46.125 79.3247 46.0417 79.1991 46.0417 79.1153V78.8221C45.875 79.0734 45.625 79.241 45.375 79.3666C45.0417 79.3247 44.75 79.4085 44.4167 79.4085ZM44.5417 78.9897C44.7917 78.9897 45.0417 78.9478 45.2917 78.8221C45.5 78.7384 45.6667 78.5708 45.7917 78.4033C45.8333 78.3614 45.875 78.3196 45.875 78.2358C45.875 78.152 45.9167 78.152 45.9167 78.0683V77.44C45.75 77.3563 45.5833 77.3144 45.375 77.2725C45.2083 77.2306 45 77.2306 44.8333 77.2306C44.4583 77.2306 44.1667 77.3144 43.9583 77.44C43.75 77.5657 43.625 77.7751 43.625 78.0264C43.625 78.152 43.6667 78.2777 43.7083 78.3614C43.75 78.4871 43.8333 78.5708 43.9167 78.6546C44 78.7384 44.0833 78.7803 44.2083 78.8221C44.2917 78.9897 44.4167 78.9897 44.5417 78.9897Z" fill="white"/>
<path d="M51.6251 79.3666C51.3751 79.3666 51.1251 79.3248 50.8751 79.1991C50.6667 79.0735 50.4584 78.9478 50.2917 78.7384C50.1251 78.5709 50.0001 78.3196 49.9167 78.1102C49.8334 77.9008 49.7917 77.6076 49.7917 77.3563C49.7917 77.105 49.8334 76.8118 49.9167 76.5605C50.0001 76.3093 50.1251 76.0998 50.2917 75.8904C50.4584 75.7229 50.6251 75.5554 50.8751 75.4297C51.0834 75.3041 51.3334 75.2622 51.6251 75.2622C51.9584 75.2622 52.2501 75.346 52.5001 75.5135C52.7501 75.681 52.9584 75.8904 53.1251 76.1417V75.3041H53.5834V79.241C53.5834 79.4923 53.5418 79.7436 53.4168 79.953C53.3334 80.1624 53.1668 80.3299 53.0001 80.4975C52.8334 80.665 52.6251 80.7487 52.3751 80.8325C52.1251 80.9163 51.9167 80.9582 51.6251 80.9582C51.1667 80.9582 50.7918 80.8744 50.5418 80.7069C50.2501 80.5393 50.0417 80.3299 49.8751 80.0786L50.2084 79.8273C50.3751 80.0786 50.5834 80.2462 50.8334 80.3718C51.0834 80.4975 51.3751 80.5393 51.6668 80.5393C51.8751 80.5393 52.0418 80.4975 52.2084 80.4556C52.3751 80.4137 52.5417 80.3299 52.6667 80.2043C52.7917 80.1205 52.8751 79.953 52.9584 79.8273C53.0417 79.6598 53.0834 79.4923 53.0834 79.2829V78.5709C52.9167 78.8222 52.7084 79.0316 52.4584 79.1572C52.1667 79.2829 51.8751 79.3666 51.6251 79.3666ZM51.7501 78.9478C51.9167 78.9478 52.0418 78.9059 52.2084 78.8641C52.3334 78.8222 52.5001 78.7384 52.5834 78.6546C52.6668 78.5709 52.7917 78.4452 52.8751 78.3615C52.9584 78.2777 53.0001 78.1102 53.0418 78.0264V76.8118C53.0001 76.6862 52.9168 76.5605 52.8334 76.4349C52.7501 76.3093 52.6251 76.2255 52.5001 76.1417C52.3751 76.058 52.2501 75.9742 52.1251 75.9323C52.0001 75.8904 51.8334 75.8486 51.7084 75.8486C51.5001 75.8486 51.2917 75.8904 51.1251 75.9742C50.9584 76.058 50.7917 76.1836 50.6667 76.3511C50.5417 76.5187 50.4584 76.6862 50.3751 76.8537C50.3334 77.0631 50.2917 77.2307 50.2917 77.4401C50.2917 77.6495 50.3334 77.8589 50.4167 78.0264C50.5001 78.2358 50.5834 78.4034 50.7084 78.529C50.8334 78.6546 51.0001 78.7803 51.1668 78.8641C51.3751 78.9059 51.5417 78.9478 51.7501 78.9478Z" fill="white"/>
<path d="M58.875 79.4086C58.5833 79.4086 58.3333 79.3668 58.0833 79.2411C57.8333 79.1155 57.625 78.9898 57.4583 78.7804C57.2917 78.571 57.1667 78.3616 57.0417 78.1103C56.9583 77.859 56.875 77.6077 56.875 77.3145C56.875 77.0214 56.9167 76.7701 57.0417 76.5188C57.125 76.2675 57.2917 76.0581 57.4583 75.8906C57.625 75.723 57.8333 75.5555 58.0833 75.4717C58.3333 75.3461 58.5833 75.3042 58.875 75.3042C59.1667 75.3042 59.4167 75.3461 59.6667 75.4717C59.9167 75.5974 60.125 75.723 60.2917 75.9324C60.4583 76.1 60.5833 76.3512 60.7083 76.5607C60.7917 76.812 60.8333 77.0632 60.8333 77.3145C60.8333 77.3564 60.8333 77.3983 60.8333 77.4402C60.8333 77.4821 60.8333 77.5239 60.8333 77.5239H57.5C57.5 77.7334 57.5833 77.9428 57.6667 78.1103C57.75 78.2778 57.875 78.4454 58 78.571C58.125 78.6966 58.2917 78.8223 58.4583 78.8642C58.625 78.9061 58.7917 78.9898 59 78.9898C59.125 78.9898 59.25 78.9898 59.375 78.9479C59.5 78.9061 59.625 78.8642 59.7083 78.8223C59.8333 78.7804 59.9167 78.6966 60 78.6129C60.0833 78.5291 60.1667 78.4453 60.2083 78.3197L60.6667 78.4454C60.625 78.571 60.5417 78.7385 60.4167 78.8223C60.2917 78.9479 60.1667 79.0317 60.0417 79.1155C59.9167 79.1992 59.75 79.283 59.5417 79.3249C59.25 79.3668 59.0833 79.4086 58.875 79.4086ZM60.3333 77.147C60.3333 76.9376 60.25 76.7282 60.1667 76.5607C60.0833 76.3931 59.9583 76.2256 59.8333 76.1C59.7083 75.9743 59.5417 75.8905 59.375 75.8068C59.2083 75.723 59.0417 75.6811 58.8333 75.6811C58.625 75.6811 58.4583 75.723 58.2917 75.8068C58.125 75.8905 57.9583 75.9743 57.8333 76.1C57.7083 76.2256 57.5833 76.3931 57.5417 76.5607C57.4583 76.7282 57.4167 76.9376 57.4167 77.147H60.3333Z" fill="white"/>
<path d="M67.375 79.325H66.875V77.1471C66.875 76.6864 66.7917 76.3514 66.6667 76.1419C66.5417 75.9325 66.3333 75.8069 66.0417 75.8069C65.875 75.8069 65.75 75.8488 65.5833 75.8907C65.4167 75.9325 65.2917 76.0163 65.1667 76.1419C65.0417 76.2676 64.9167 76.3514 64.8333 76.5189C64.75 76.6445 64.6667 76.8121 64.625 76.9796V79.3669H64.125V75.43H64.5833V76.3095C64.75 76.0163 64.9583 75.8069 65.25 75.5975C65.5417 75.43 65.875 75.3462 66.2083 75.3462C66.4167 75.3462 66.625 75.3881 66.75 75.4718C66.9167 75.5556 67 75.6812 67.125 75.8069C67.2083 75.9325 67.2917 76.1419 67.3333 76.3514C67.375 76.5608 67.375 76.8121 67.375 77.0634V79.325Z" fill="white"/>
<path d="M70.7083 77.3565C70.7083 77.0634 70.7499 76.8121 70.8333 76.5608C70.9166 76.3095 71.0416 76.1001 71.2499 75.9325C71.4166 75.765 71.6249 75.5975 71.8749 75.5137C72.1249 75.43 72.3749 75.3462 72.6666 75.3462C73.0416 75.3462 73.3749 75.43 73.6249 75.5975C73.9166 75.765 74.1249 75.9744 74.2499 76.2676L73.7499 76.4351C73.6249 76.2257 73.4999 76.0582 73.2916 75.9744C73.0833 75.8488 72.8749 75.8069 72.6249 75.8069C72.4166 75.8069 72.2499 75.8488 72.0833 75.9325C71.9166 76.0163 71.7499 76.142 71.6249 76.2676C71.4999 76.3932 71.4166 76.5608 71.3333 76.7702C71.2499 76.9796 71.2083 77.189 71.2083 77.3984C71.2083 77.6078 71.2499 77.8172 71.3333 78.0266C71.4166 78.2361 71.4999 78.4036 71.6249 78.5292C71.7499 78.6549 71.9166 78.7805 72.0833 78.8643C72.2499 78.9481 72.4583 78.9899 72.6249 78.9899C72.7499 78.9899 72.8749 78.9899 72.9999 78.9481C73.1249 78.9062 73.2499 78.8643 73.3333 78.7805C73.4166 78.6968 73.5416 78.6549 73.5833 78.5711C73.6666 78.4874 73.7083 78.4036 73.7499 78.3198L74.2499 78.4874C74.2083 78.613 74.1249 78.7386 73.9999 78.8643C73.8749 78.9899 73.7916 79.0737 73.6249 79.1575C73.4583 79.2412 73.3333 79.325 73.1666 79.3669C72.9999 79.4088 72.8333 79.4506 72.6249 79.4506C72.3333 79.4506 72.0833 79.4088 71.8333 79.2831C71.5833 79.1575 71.3749 79.0318 71.2083 78.8224C71.0416 78.613 70.9166 78.4036 70.7916 78.1523C70.7499 77.901 70.7083 77.6497 70.7083 77.3565Z" fill="white"/>
<path d="M77.8334 80.5397C77.8751 80.5397 77.9167 80.5397 77.9584 80.5397C78.0001 80.5397 78.0417 80.5397 78.0834 80.5397C78.1667 80.5397 78.2501 80.5397 78.2917 80.4978C78.3334 80.4559 78.3751 80.414 78.4584 80.3303C78.5001 80.2465 78.5834 80.1209 78.6251 79.9533C78.6667 79.7858 78.7918 79.5764 78.8751 79.3251L77.1667 75.3882H77.7084L79.1668 78.8225L80.5001 75.3882H81.0001L78.9584 80.4559C78.9168 80.5816 78.7918 80.7491 78.6668 80.8329C78.5418 80.9166 78.3751 81.0004 78.1251 81.0004C78.0834 81.0004 78.0417 81.0004 78.0001 81.0004C77.9584 81.0004 77.9168 81.0004 77.8334 81.0004V80.5397Z" fill="white"/>
<path d="M63.5832 41.7983L55.2082 26.7208L40.3749 0L25.5416 26.7208L10.7083 53.4416H40.3749L53.7916 53.3997C49.2499 45.1908 46.9582 45.9028 41.0832 45.9028C40.3749 45.9028 31.9166 45.9028 31.9166 45.9028H23.4166L32.0416 30.3227L40.3749 15.3289L48.7082 30.3227L52.8749 37.8195L55.0416 41.7565C56.0832 43.6412 57.1249 45.5259 57.3332 45.9028C61.2916 52.6458 60.6666 53.1065 70.0416 53.3997L63.5832 41.7983Z" fill="url(#paint0_linear)"/>
<defs>
<linearGradient id="paint0_linear" x1="9.46375" y1="29.1179" x2="68.6167" y2="26.0338" gradientUnits="userSpaceOnUse">
<stop offset="0.1727" stop-color="#E3312D"/>
<stop offset="0.7058" stop-color="#FDC800"/>
<stop offset="1" stop-color="#FFEF26" stop-opacity="0"/>
</linearGradient>
</defs>
</svg>
