<svg width="134" height="20" viewBox="0 0 134 20" fill="none" xmlns="http://www.w3.org/2000/svg">
<path fill-rule="evenodd" clip-rule="evenodd" d="M26.5832 14.1633C26.532 14.5199 26.4158 14.814 26.1978 15.1295C25.9584 15.4784 25.6617 15.7171 25.2594 15.8853C24.8835 16.0425 24.5413 16.1263 24.1336 16.1647C23.7778 16.1979 23.4823 16.173 23.152 16.0867C22.8838 16.0178 22.672 15.8964 22.4835 15.704C22.3204 15.5412 22.2255 15.3652 22.1762 15.1445C22.1024 14.7935 22.2187 14.4712 22.4957 14.247C22.6825 14.098 22.8626 13.9972 23.0918 13.9178C23.6417 13.7273 24.1262 13.5816 24.6913 13.4313C25.3745 13.2484 25.9381 13.0511 26.5967 12.7715C26.6587 13.2591 26.6552 13.6781 26.5832 14.1633ZM31.8925 14.5981C31.8611 13.1478 31.8442 11.9106 31.8318 10.4612C31.8277 9.66661 31.7356 9.00655 31.528 8.25079C31.2582 7.24297 30.6284 6.49028 29.6841 5.98923C29.1132 5.67373 28.5754 5.48766 27.9366 5.35837C25.888 4.94436 24.0943 4.91078 22.0305 5.24747C21.4448 5.34197 20.9636 5.47206 20.4238 5.6836C19.1752 6.18571 18.3011 7.07689 17.9009 8.3113C17.7475 8.77875 17.7046 9.20182 17.766 9.6874C17.7758 9.77737 17.8002 9.85228 17.8413 9.93346L22.6146 10.0424C22.6026 9.75765 22.6419 9.51399 22.7439 9.24554C22.8989 8.83674 23.2051 8.54576 23.6379 8.39581C24.2898 8.17601 24.9014 8.16575 25.5466 8.36622C25.9699 8.49764 26.2778 8.78715 26.4197 9.19182C26.5014 9.44281 26.4593 9.6898 26.2926 9.90587C26.145 10.0957 25.9699 10.2238 25.7417 10.3069C25.601 10.3615 25.481 10.4088 25.3353 10.4464C24.6754 10.6124 24.1124 10.7291 23.4252 10.8354C22.892 10.9185 22.4433 10.9967 21.913 11.0975C21.1803 11.2337 20.5814 11.3822 19.8843 11.5957C19.2488 11.7906 18.7324 12.0673 18.2384 12.4958C17.5994 13.0654 17.2342 13.7232 17.1106 14.5369C17.0295 15.0948 17.0505 15.5671 17.1775 16.103C17.5074 17.5097 18.5291 18.5386 19.9918 18.9373C21.6128 19.3763 23.1194 19.3066 24.6842 18.7144C25.4369 18.4254 26.0125 18.0282 26.5463 17.4356C26.65 17.7613 26.745 18.034 26.8634 18.3543C26.9298 18.5315 27.0165 18.6706 27.1471 18.8113H32.4039C32.1802 18.4786 32.0679 18.1515 32.0391 17.7594C31.9593 16.6447 31.9165 15.7151 31.8925 14.5981Z" fill="white" fill-opacity="0.4"/>
<path fill-rule="evenodd" clip-rule="evenodd" d="M58.4234 14.1633C58.371 14.5199 58.2557 14.814 58.0498 15.1295C57.8128 15.4784 57.5038 15.7171 57.0992 15.8853C56.722 16.0425 56.3818 16.1263 55.9731 16.1647C55.6305 16.1979 55.3343 16.173 54.9896 16.0867C54.722 16.0178 54.5126 15.8964 54.3224 15.704C54.1593 15.5412 54.0637 15.3652 54.0154 15.1445C53.941 14.7935 54.0568 14.4712 54.3356 14.247C54.5215 14.098 54.7019 13.9972 54.9309 13.9178C55.4953 13.7273 55.967 13.5816 56.531 13.4313C57.213 13.2484 57.7917 13.0511 58.4351 12.7715C58.4986 13.2591 58.4946 13.6781 58.4234 14.1633ZM63.7315 14.5981C63.7014 13.1478 63.6825 11.9106 63.6719 10.4612C63.6662 9.66661 63.5752 9.00655 63.3692 8.25079C63.0972 7.24297 62.4782 6.49028 61.5234 5.98923C60.9535 5.67373 60.4292 5.48766 59.7761 5.35837C57.7417 4.94436 55.9325 4.91078 53.8699 5.24747C53.2941 5.34197 52.8111 5.47206 52.2632 5.6836C51.0131 6.18571 50.1397 7.07689 49.7401 8.3113C49.5863 8.77875 49.5442 9.20182 49.6037 9.6874C49.6157 9.77737 49.6391 9.85228 49.6811 9.93346L54.4542 10.0424C54.4418 9.75765 54.4812 9.51399 54.5829 9.24554C54.7399 8.83674 55.0459 8.54576 55.4912 8.39581C56.1284 8.17601 56.7406 8.16575 57.3851 8.36622C57.8238 8.49764 58.125 8.78715 58.2581 9.19182C58.3399 9.44281 58.3 9.6898 58.1389 9.90587C57.9965 10.0957 57.824 10.2238 57.5883 10.3069C57.4399 10.3615 57.32 10.4088 57.1737 10.4464C56.5153 10.6124 55.9515 10.7291 55.2753 10.8354C54.7298 10.9185 54.2828 10.9967 53.7512 11.0975C53.0351 11.2337 52.42 11.3822 51.7242 11.5957C51.087 11.7906 50.586 12.0673 50.0789 12.4958C49.4395 13.0654 49.0733 13.7232 48.9509 14.5369C48.8681 15.0948 48.8879 15.5671 49.0154 16.103C49.3473 17.5097 50.3754 18.5386 51.8321 18.9373C53.4515 19.3763 54.9578 19.3066 56.523 18.7144C57.277 18.4254 57.8656 18.0282 58.3854 17.4356C58.489 17.7613 58.5842 18.034 58.7036 18.3543C58.7674 18.5315 58.8556 18.6706 58.9871 18.8113H64.2445C64.0195 18.4786 63.9065 18.1515 63.8789 17.7594C63.7998 16.6447 63.757 15.7151 63.7315 14.5981Z" fill="white" fill-opacity="0.4"/>
<path fill-rule="evenodd" clip-rule="evenodd" d="M86.2738 15.6629C85.7816 15.4526 85.431 15.121 85.2107 14.641C85.0034 14.2089 84.8837 13.8218 84.8095 13.3546C84.6618 12.4022 84.6791 11.5865 84.8708 10.6568C84.9713 10.1604 85.1389 9.76547 85.4244 9.35346C86.0476 8.45335 87.3374 8.20236 88.2874 8.79244C88.5359 8.94626 88.72 9.1182 88.8857 9.35346C89.1813 9.76547 89.3497 10.1604 89.4486 10.6568C89.6419 11.5865 89.6608 12.4022 89.5107 13.3546C89.4365 13.8218 89.315 14.2089 89.108 14.641C88.6159 15.6657 87.3591 16.1177 86.2738 15.6629ZM92.8993 7.06898C91.7177 5.99466 90.3921 5.36526 88.7605 5.1248C88.2009 5.04203 87.7247 5.00684 87.1598 5.00684C86.5923 5.00684 86.1052 5.04203 85.5473 5.1248C83.9157 5.36526 82.6019 5.99466 81.4059 7.06898C80.1416 8.23195 79.449 9.59445 79.2848 11.2615C79.185 12.2761 79.2699 13.1641 79.5663 14.1465C80.0094 15.6657 80.8389 16.8291 82.1636 17.7928C83.0286 18.4206 83.8869 18.7957 84.9647 19.0161C85.7199 19.1724 86.3762 19.2379 87.1598 19.2379C87.9328 19.2379 88.5862 19.1724 89.3564 19.0161C90.4177 18.7957 91.2827 18.4206 92.155 17.7928C93.4665 16.8291 94.3124 15.6657 94.7549 14.1465C95.0429 13.1641 95.1254 12.2761 95.0281 11.2615C94.8704 9.59445 94.1788 8.23195 92.8993 7.06898Z" fill="white" fill-opacity="0.4"/>
<path fill-rule="evenodd" clip-rule="evenodd" d="M11.524 6.99828C11.4768 7.30712 11.3672 7.55984 11.1709 7.81096C10.803 8.29601 10.2871 8.55779 9.6702 8.59058C9.20788 8.61298 8.83034 8.62271 8.38309 8.62271H6.01969V4.53706H9.55374C10.5865 4.53706 11.4392 5.2683 11.5407 6.25572C11.5672 6.5159 11.563 6.7393 11.524 6.99828ZM16.8356 3.80156C15.7211 1.558 13.5662 0.178705 10.9555 0.0459467C10.5669 0.0251533 10.2376 0.0178223 9.8489 0.0178223H0V18.8122H6.01969V13.0298H9.66555C10.6106 13.0298 11.4107 12.9477 12.3481 12.7562C15.1487 12.1643 17.1456 10.0644 17.4568 7.3667C17.6028 6.09284 17.4087 4.96199 16.8356 3.80156Z" fill="white" fill-opacity="0.4"/>
<path fill-rule="evenodd" clip-rule="evenodd" d="M77.6423 11.71C76.9241 11.1245 76.1972 10.7542 75.2917 10.5045C75.0937 10.4515 74.9261 10.4048 74.7263 10.3387C73.6055 10.0467 72.6556 9.85525 71.5058 9.69597C71.2022 9.65345 70.9458 9.60693 70.6453 9.53975C70.5074 9.50923 70.3933 9.47337 70.2638 9.41672C69.9461 9.28157 69.8025 8.92888 69.9485 8.62791C69.9553 8.61218 69.9634 8.59831 69.9717 8.58219C70.1434 8.29521 70.395 8.10087 70.7301 8.00024C71.317 7.83882 71.8617 7.85162 72.4541 8.03796C73.0088 8.23096 73.3581 8.71254 73.3341 9.26797H78.3364C78.3307 8.68989 78.2399 8.20111 78.0316 7.64435C77.8197 7.09239 77.5026 6.67292 77.0149 6.31024C76.5777 5.99167 76.1763 5.76068 75.6722 5.57647C75.1794 5.39586 74.7487 5.28309 74.2147 5.19725C72.9832 4.99532 71.9086 4.93787 70.6575 5.00691C69.9426 5.04743 69.3296 5.12941 68.6306 5.28429C67.6921 5.49396 66.9213 5.85118 66.1606 6.415C65.5152 6.89392 65.0927 7.45374 64.8146 8.20044C64.688 8.5306 64.6267 8.82651 64.6102 9.1764C64.5835 9.75995 64.6749 10.2602 64.9102 10.8175C65.3255 11.792 66.0559 12.4838 67.0866 12.8851C67.6228 13.0818 68.0808 13.2121 68.6299 13.3196C69.7267 13.5308 70.6511 13.6963 71.7437 13.8732C72.158 13.9376 72.4988 14.0178 72.8884 14.1403C73.211 14.2424 73.4348 14.4781 73.5056 14.7936C73.5824 15.1504 73.4803 15.4752 73.2199 15.7229C72.9543 15.9777 72.6549 16.123 72.2826 16.1774C71.7709 16.253 71.3311 16.2127 70.8547 16.0522C70.6261 15.9741 70.4436 15.8754 70.2572 15.7273C70.013 15.5361 69.8578 15.3137 69.7621 15.0264C69.6795 14.7706 69.6464 14.5559 69.6498 14.3029H64.4524V14.5879C64.4524 15.0603 64.5279 15.4495 64.7032 15.8792C64.9689 16.5267 65.3265 17.0282 65.8619 17.5134C66.5619 18.1313 67.2984 18.52 68.2237 18.7675C70.1466 19.2819 71.8673 19.384 73.8432 19.1005C74.7785 18.9652 75.536 18.7311 76.3637 18.3255C76.7328 18.1464 77.0334 17.9627 77.3492 17.7118C78.7457 16.5906 79.2697 14.8847 78.7052 13.2427C78.4938 12.6126 78.1605 12.1339 77.6423 11.71Z" fill="white" fill-opacity="0.4"/>
<path fill-rule="evenodd" clip-rule="evenodd" d="M44.7102 5.15457C43.2689 4.75642 41.8925 4.85186 40.5169 5.44834C39.6802 5.82315 39.0195 6.23449 38.3175 6.80604L38.1925 5.38303H33.0776V18.8113H38.5432V11.3337C38.5432 10.9081 38.647 10.5467 38.8745 10.1653C39.4194 9.28393 40.5472 8.93044 41.5556 9.32938C42.0088 9.51199 42.3199 9.83869 42.4628 10.2851C42.5432 10.5467 42.5781 10.7655 42.5781 11.0232V18.8113H48.22V10.1425C48.22 9.41082 48.1188 8.78982 47.8729 8.08431C47.383 6.6265 46.2703 5.58296 44.7102 5.15457Z" fill="white" fill-opacity="0.4"/>
<path fill-rule="evenodd" clip-rule="evenodd" d="M107.442 5.15457C106 4.75642 104.625 4.85186 103.253 5.44834C102.413 5.82315 101.753 6.23449 101.053 6.80604L100.932 5.38303H95.8093V18.8113H101.275V11.3337C101.275 10.9081 101.38 10.5467 101.607 10.1653C102.153 9.28393 103.285 8.93044 104.287 9.32938C104.741 9.51199 105.053 9.83869 105.196 10.2851C105.275 10.5467 105.312 10.7655 105.312 11.0232V18.8113H110.953V10.1425C110.953 9.41082 110.85 8.78982 110.61 8.08431C110.118 6.6265 109.002 5.58296 107.442 5.15457Z" fill="white" fill-opacity="0.4"/>
<path fill-rule="evenodd" clip-rule="evenodd" d="M112.035 18.8114H117.337V5.38306H112.035V18.8114Z" fill="white" fill-opacity="0.4"/>
<path fill-rule="evenodd" clip-rule="evenodd" d="M112.035 3.56985H117.337V0.0169678H112.035V3.56985Z" fill="white" fill-opacity="0.4"/>
<path fill-rule="evenodd" clip-rule="evenodd" d="M133.054 13.2697H127.914C127.897 13.5562 127.868 13.7963 127.814 14.0781C127.742 14.4788 127.574 14.8038 127.285 15.1201C127.009 15.4122 126.68 15.5819 126.269 15.6392C125.61 15.7304 125.01 15.5499 124.525 15.1174C124.098 14.7247 123.825 14.3094 123.665 13.7789C123.292 12.5074 123.312 11.3486 123.727 10.0889C123.906 9.56382 124.244 9.16981 124.735 8.88043C125.456 8.45737 126.325 8.49762 126.999 8.98307C127.519 9.35881 127.829 9.84693 127.936 10.4709H132.812C132.857 9.66898 132.699 8.98773 132.314 8.28835C131.988 7.68121 131.619 7.22469 131.07 6.76843C130.221 6.04533 129.357 5.58387 128.27 5.31862C126.743 4.94581 125.371 4.91288 123.814 5.21785C121.098 5.74902 119.078 7.55245 118.358 10.0889C118.038 11.2113 117.984 12.2091 118.187 13.3574C118.33 14.1762 118.584 14.8468 119.021 15.5793C119.588 16.5054 120.246 17.1966 121.158 17.852C122.268 18.6348 123.413 19.0559 124.81 19.188C125.85 19.291 126.743 19.2498 127.765 19.0552C129.281 18.7644 130.487 18.134 131.61 17.0599C132.669 16.0072 133.155 14.7205 133.054 13.2697Z" fill="white" fill-opacity="0.4"/>
</svg>
