<svg width="108" height="20" viewBox="0 0 108 20" fill="none" xmlns="http://www.w3.org/2000/svg">
<g clip-path="url(#clip0)">
<path d="M36.636 0.399372H30.8336V8.03011H24.7935V0.399372H18.9911V19.5976H24.7935V12.046H30.8336V19.5976H36.636V0.399372ZM56.8201 15.74V0.399372H51.0177V19.5976H61.5095L62.382 15.74H56.8201ZM46.728 0.399372H40.9256V19.5976H46.728V0.399372ZM70.2509 0.399372H64.4512V19.5976H70.2509V0.399372ZM98.8576 5.29919C98.8576 4.2543 99.8922 3.77141 101.559 3.77141C103.388 3.77141 105.376 4.17518 106.727 4.73992L106.251 0.560335C104.738 0.238409 103.388 -0.00167084 100.927 -0.00167084C96.2374 -0.00167084 93.0579 1.86714 93.0579 5.78209C93.0579 12.5289 102.121 11.1648 102.121 14.2968C102.121 15.4999 101.243 16.141 99.0981 16.141C97.1936 16.141 94.2492 15.4999 92.5015 14.616L93.139 19.0356C94.8867 19.6795 97.2693 19.9987 99.1791 19.9987C104.025 19.9987 107.999 18.3918 107.999 13.5711C107.999 7.1489 98.8576 8.35203 98.8576 5.29919ZM82.4905 15.0197C87.8904 15.0197 91.3102 12.207 91.3102 7.30714C91.3102 1.92716 87.6553 -0.00167084 81.6936 -0.00167084C79.3894 -0.00167084 76.607 0.159292 74.6216 0.399372V19.5976H80.424V15.0197H82.4905ZM85.5889 7.38898C85.5889 9.87709 84.3976 11.5658 81.3748 11.5658H80.424V3.63227C80.7617 3.61318 81.0777 3.61317 81.3748 3.61317C84.2355 3.61317 85.5889 4.97727 85.5889 7.38898ZM7.86717 15.0197C13.2698 15.0197 16.6869 12.207 16.6869 7.30714C16.6869 1.92716 13.032 -0.00167084 7.07299 -0.00167084C4.76608 -0.00167084 1.98645 0.159292 -0.00170898 0.399372V19.5976H5.80068V15.0197H7.86717ZM10.9683 7.38898C10.9683 9.87709 9.77428 11.5658 6.75424 11.5658H5.80068V3.63227C6.13834 3.61318 6.45709 3.61317 6.75424 3.61317C9.61491 3.61317 10.9683 4.97727 10.9683 7.38898Z" fill="white" fill-opacity="0.4"/>
</g>
<defs>
<clipPath id="clip0">
<rect width="108" height="20" fill="white"/>
</clipPath>
</defs>
</svg>
