<svg width="136" height="25" viewBox="0 0 136 25" fill="none" xmlns="http://www.w3.org/2000/svg">
<g clip-path="url(#clip0)">
<path d="M109.225 15.8623H109.123L104.784 0.767799H97.7839V19.7972H102.421L102.16 4.18122H102.262L106.921 19.7972H113.638V0.766863H108.97L109.225 15.8623ZM20.1684 0.766863L16.6764 19.9975H21.7722L24.3542 2.54191H24.4619L26.9756 19.9985H32.0414L28.5653 0.766863H20.1684ZM48.6722 0.768735L46.3429 15.4719H46.2372L43.9191 0.768735H36.2263L35.8087 19.9975H40.5253L40.6433 2.70481H40.75L43.9004 19.9975H48.6844L51.8357 2.71043L51.9405 2.70481L52.0632 19.9975H56.7817L56.3651 0.768735H48.6722ZM4.99061 5.71379C4.90167 5.32058 4.9232 4.92737 4.97095 4.71017C5.1067 4.09228 5.51489 3.4154 6.69545 3.4154C7.80205 3.4154 8.44616 4.11381 8.44616 5.15674V6.34479H13.1562V5.00227C13.1562 0.80712 9.46569 0.15271 6.79375 0.15271C3.44119 0.15271 0.703712 1.28833 0.199096 4.42557C0.061473 5.26815 0.0446212 6.04053 0.24497 7.01418C1.06415 10.9444 7.7646 12.0828 8.73732 14.5685C8.91988 15.0319 8.8609 15.6329 8.77102 15.9962C8.61842 16.6253 8.19432 17.2797 6.93512 17.2797C5.75737 17.2797 5.03836 16.5916 5.03836 15.5421L5.03555 13.6762H-0.0218496L-0.0246582 15.1629C-0.0246582 19.4527 3.28578 20.7418 6.8312 20.7418C10.2484 20.7418 13.0495 19.5641 13.5026 16.3538C13.7329 14.6892 13.5635 13.5976 13.482 13.1904C12.6834 9.16185 5.52893 7.97099 4.99061 5.71379ZM66.3591 5.75873C66.2664 5.37488 66.2926 4.98542 66.3366 4.7729C66.4686 4.15875 66.8731 3.48936 68.0433 3.48936C69.1368 3.48936 69.7791 4.17747 69.7791 5.20636V6.38599H74.4386V5.05563C74.4386 0.911975 70.7817 0.259438 68.1444 0.259438C64.8209 0.259438 62.1068 1.36978 61.6134 4.48736C61.4758 5.3262 61.4543 6.09295 61.6565 7.05257C62.4682 10.9416 69.1022 12.0716 70.0674 14.5301C70.2434 14.9935 70.19 15.5842 70.1039 15.9447C69.9504 16.5785 69.5263 17.2132 68.2849 17.2132C67.1127 17.2132 66.4068 16.5354 66.4068 15.4972L66.4031 13.6453H61.3906V15.1189C61.3906 19.3646 64.672 20.6388 68.1828 20.6388C71.5579 20.6388 74.3356 19.4714 74.7803 16.2948C75.0087 14.6518 74.8402 13.5695 74.7606 13.1641C73.9695 9.1787 66.8834 7.99439 66.3591 5.75873ZM87.7505 14.9888C87.7543 15.2332 87.7468 15.5159 87.7065 15.7219C87.6129 16.2003 87.2094 17.1056 85.8978 17.1056C84.5908 17.1056 84.1826 16.2003 84.089 15.7219C84.0487 15.5159 84.0394 15.2332 84.0413 14.9888V0.76499H79.2741V14.5479C79.2666 14.9045 79.3012 15.6264 79.3181 15.8183C79.642 19.403 82.4282 20.5611 85.8968 20.5611C89.3617 20.5611 92.1469 19.403 92.4812 15.8183C92.498 15.6264 92.5345 14.9036 92.5289 14.5479V0.76499H87.7496V14.9888H87.7505ZM125.283 9.18619V12.0023H127.215V14.7913C127.22 15.0337 127.211 15.3015 127.171 15.5215C127.086 16.0392 126.605 16.9127 125.245 16.9127C123.881 16.9127 123.401 16.0383 123.313 15.5215C123.277 15.3015 123.266 15.0337 123.271 14.7913V5.99278C123.271 5.68009 123.291 5.33837 123.348 5.09027C123.448 4.61655 123.854 3.69439 125.226 3.69439C126.669 3.69439 127.025 4.66804 127.112 5.09027C127.167 5.35709 127.171 5.81677 127.171 5.8149V6.89809H131.925V6.25585C131.923 6.25585 131.941 5.59864 131.886 4.99853C131.537 1.38195 128.606 0.243522 125.265 0.243522C121.923 0.243522 119.061 1.39131 118.646 4.99853C118.606 5.30935 118.564 5.91414 118.564 6.25585L118.562 14.3466C118.564 14.7089 118.575 14.9766 118.628 15.617C118.938 19.1184 121.923 20.3729 125.262 20.3729C128.602 20.3729 131.587 19.1184 131.899 15.617C131.951 14.9757 131.958 14.7079 131.959 14.3466V9.18619H125.283Z" fill="white" fill-opacity="0.4"/>
</g>
<defs>
<clipPath id="clip0">
<rect width="136" height="24" fill="white" transform="translate(0 0.0952148)"/>
</clipPath>
</defs>
</svg>
