<svg width="30" height="30" viewBox="0 0 30 30" fill="none" xmlns="http://www.w3.org/2000/svg">
<g clip-path="url(#clip0)">
<path d="M29.365 0.0186874L0.371032 8.13697C0.179705 8.19051 0.0382303 8.35232 0.010697 8.54909C-0.0168363 8.74587 0.0747851 8.94024 0.244086 9.04428L10.086 15.101L10.5069 19.0502C10.532 19.2844 10.7171 19.4693 10.9513 19.4941L14.9005 19.915L20.9558 29.7559C21.0467 29.9039 21.208 29.994 21.3816 29.9939C21.4047 29.994 21.4278 29.9923 21.4506 29.9889C21.6474 29.9616 21.8093 29.8203 21.8631 29.629L29.9813 0.635023C30.0301 0.461036 29.9813 0.274278 29.8535 0.146454C29.7258 0.0186874 29.539 -0.0301696 29.365 0.0186874ZM1.74125 8.79185L27.0889 1.6933L10.5284 14.1972L1.74125 8.79185ZM11.0843 15.032L26.9425 3.05754L14.968 18.9157L11.4582 18.5418L11.0843 15.032ZM21.2082 28.2588L15.8028 19.4716L28.3057 2.91103L21.2082 28.2588Z" fill="white"/>
<path d="M8.65048 20.6424L7.65067 21.6422C7.52074 21.7676 7.4686 21.9535 7.51435 22.1283C7.5601 22.3031 7.6966 22.4396 7.87135 22.4853C8.04609 22.5311 8.23197 22.4789 8.35751 22.349L9.35732 21.3492C9.54678 21.1531 9.54408 20.8412 9.35123 20.6484C9.15844 20.4556 8.84661 20.4529 8.65048 20.6424Z" fill="white"/>
<path d="M5.15128 24.8485C5.34647 25.0436 5.66293 25.0436 5.85812 24.8485L6.85793 23.8486C7.04738 23.6525 7.04469 23.3407 6.85184 23.1479C6.65899 22.955 6.34722 22.9523 6.15109 23.1418L5.15128 24.1416C4.95608 24.3368 4.95608 24.6533 5.15128 24.8485Z" fill="white"/>
<path d="M2.65221 27.3481C2.8474 27.5432 3.16386 27.5432 3.35906 27.3481L4.35887 26.3483C4.54832 26.1521 4.54562 25.8403 4.35277 25.6475C4.15992 25.4547 3.84815 25.452 3.65202 25.6414L2.65221 26.6412C2.45708 26.8364 2.45708 27.1529 2.65221 27.3481Z" fill="white"/>
<path d="M1.15243 28.1408L0.152623 29.1406C0.0226894 29.2661 -0.0294481 29.4519 0.016304 29.6268C0.0620562 29.8015 0.198551 29.9381 0.3733 29.9837C0.548048 30.0294 0.733928 29.9774 0.859468 29.8474L1.85928 28.8476C2.04873 28.6515 2.04604 28.3397 1.85319 28.1469C1.66039 27.9541 1.34856 27.9514 1.15243 28.1408Z" fill="white"/>
<path d="M12.3575 23.8487L13.3573 22.8489C13.5468 22.6528 13.5441 22.3409 13.3512 22.1481C13.1584 21.9553 12.8466 21.9526 12.6505 22.142L11.6507 23.1419C11.5207 23.2674 11.4686 23.4532 11.5144 23.628C11.5601 23.8028 11.6966 23.9393 11.8713 23.985C12.0462 24.0308 12.232 23.9786 12.3575 23.8487Z" fill="white"/>
<path d="M9.15026 26.3482C9.34545 26.5433 9.66191 26.5433 9.8571 26.3482L10.8569 25.3484C11.0464 25.1523 11.0437 24.8404 10.8508 24.6476C10.658 24.4548 10.3462 24.4521 10.1501 24.6416L9.15026 25.6414C8.95512 25.8366 8.95512 26.153 9.15026 26.3482Z" fill="white"/>
<path d="M7.15048 16.6432L6.15067 17.643C6.02074 17.7686 5.9686 17.9544 6.01435 18.1292C6.0601 18.3039 6.1966 18.4405 6.37135 18.4862C6.54615 18.5319 6.73197 18.4798 6.85751 18.3499L7.85733 17.35C8.04678 17.1539 8.04408 16.8421 7.85123 16.6493C7.65844 16.4564 7.34661 16.4538 7.15048 16.6432Z" fill="white"/>
<path d="M4.65146 19.1426L3.65165 20.1424C3.52171 20.2679 3.46958 20.4538 3.51533 20.6286C3.56108 20.8033 3.69757 20.9399 3.87232 20.9856C4.04707 21.0313 4.23295 20.9792 4.35849 20.8492L5.3583 19.8494C5.54776 19.6533 5.54506 19.3415 5.35221 19.1487C5.15942 18.9558 4.84765 18.9531 4.65146 19.1426Z" fill="white"/>
</g>
<defs>
<clipPath id="clip0">
<rect width="30" height="30" fill="white"/>
</clipPath>
</defs>
</svg>
