<svg width="30" height="30" viewBox="0 0 30 30" fill="none" xmlns="http://www.w3.org/2000/svg">
<g clip-path="url(#clip0)">
<path d="M8.65048 20.6423L7.65067 21.6421C7.52074 21.7676 7.4686 21.9535 7.51435 22.1283C7.5601 22.3031 7.6966 22.4396 7.87135 22.4853C8.04609 22.531 8.23197 22.4789 8.35751 22.3489L9.35732 21.3491C9.54678 21.153 9.54408 20.8412 9.35123 20.6484C9.15844 20.4555 8.84661 20.4528 8.65048 20.6423Z" fill="white"/>
<path d="M5.15128 24.8485C5.34647 25.0436 5.66293 25.0436 5.85812 24.8485L6.85793 23.8486C7.04738 23.6525 7.04469 23.3407 6.85184 23.1479C6.65899 22.955 6.34722 22.9523 6.15109 23.1418L5.15128 24.1416C4.95608 24.3368 4.95608 24.6533 5.15128 24.8485Z" fill="white"/>
<path d="M2.65221 27.3481C2.8474 27.5432 3.16386 27.5432 3.35906 27.3481L4.35887 26.3483C4.54832 26.1521 4.54562 25.8403 4.35277 25.6475C4.15992 25.4547 3.84815 25.452 3.65202 25.6414L2.65221 26.6412C2.45708 26.8364 2.45708 27.1529 2.65221 27.3481Z" fill="white"/>
<path d="M1.15243 28.1408L0.152623 29.1406C0.0226894 29.2661 -0.0294481 29.4519 0.016304 29.6268C0.0620562 29.8015 0.198551 29.9381 0.3733 29.9837C0.548048 30.0294 0.733928 29.9774 0.859468 29.8474L1.85928 28.8476C2.04873 28.6515 2.04604 28.3397 1.85319 28.1469C1.66039 27.9541 1.34856 27.9514 1.15243 28.1408Z" fill="white"/>
<path d="M12.3575 23.8486L13.3573 22.8488C13.5468 22.6527 13.5441 22.3409 13.3512 22.1481C13.1584 21.9552 12.8466 21.9525 12.6505 22.142L11.6507 23.1418C11.5207 23.2673 11.4686 23.4532 11.5144 23.628C11.5601 23.8027 11.6966 23.9393 11.8713 23.985C12.0462 24.0307 12.232 23.9786 12.3575 23.8486Z" fill="white"/>
<path d="M9.15026 26.3482C9.34545 26.5433 9.66191 26.5433 9.8571 26.3482L10.8569 25.3484C11.0464 25.1523 11.0437 24.8404 10.8508 24.6476C10.658 24.4548 10.3462 24.4521 10.1501 24.6416L9.15026 25.6414C8.95512 25.8366 8.95512 26.153 9.15026 26.3482Z" fill="white"/>
<path d="M7.15048 16.6432L6.15067 17.643C6.02074 17.7686 5.9686 17.9544 6.01435 18.1292C6.0601 18.3039 6.1966 18.4405 6.37135 18.4862C6.54615 18.5319 6.73197 18.4798 6.85751 18.3499L7.85733 17.35C8.04678 17.1539 8.04408 16.8421 7.85123 16.6493C7.65844 16.4564 7.34661 16.4538 7.15048 16.6432Z" fill="white"/>
<path d="M4.65146 19.1425L3.65165 20.1423C3.52171 20.2679 3.46958 20.4537 3.51533 20.6285C3.56108 20.8033 3.69757 20.9398 3.87232 20.9855C4.04707 21.0312 4.23295 20.9791 4.35849 20.8492L5.3583 19.8494C5.54776 19.6532 5.54506 19.3414 5.35221 19.1486C5.15942 18.9558 4.84765 18.9531 4.65146 19.1425Z" fill="white"/>
<path d="M29.794 0.205843C29.6048 0.0165855 29.3243 -0.0488637 29.0709 0.0372105L0.477178 9.73934C0.202725 9.83244 0.0135259 10.0845 0.000693863 10.374C-0.0121382 10.6635 0.153975 10.9313 0.419053 11.0483L13.2741 16.7258L18.9516 29.5808C19.0645 29.8364 19.3172 29.9999 19.5946 29.9999C19.6051 29.9999 19.6155 29.9997 19.626 29.9992C19.9155 29.9863 20.1676 29.7972 20.2607 29.5226L29.9628 0.92889C30.0487 0.675414 29.9833 0.395101 29.794 0.205843ZM2.63806 10.4911L26.6681 2.33748L13.6506 15.3548L2.63806 10.4911ZM19.5088 27.3618L14.645 16.3492L27.6623 3.33194L19.5088 27.3618Z" fill="white"/>
</g>
<defs>
<clipPath id="clip0">
<rect width="30" height="30" fill="white"/>
</clipPath>
</defs>
</svg>
