<svg width="30" height="30" viewBox="0 0 30 30" fill="none" xmlns="http://www.w3.org/2000/svg">
<g clip-path="url(#clip0)">
<path d="M29.794 0.205843C29.6048 0.0165855 29.3243 -0.0488637 29.0709 0.0372105L0.477178 9.73934C0.202725 9.83244 0.0135259 10.0845 0.000693863 10.374C-0.0121382 10.6635 0.153975 10.9313 0.419053 11.0483L13.2741 16.7258L18.9516 29.5808C19.0645 29.8364 19.3172 29.9999 19.5946 29.9999C19.6051 29.9999 19.6155 29.9997 19.626 29.9992C19.9155 29.9863 20.1676 29.7972 20.2607 29.5226L29.9628 0.92889C30.0487 0.675414 29.9833 0.395101 29.794 0.205843ZM2.63806 10.4911L26.6681 2.33748L13.6506 15.3548L2.63806 10.4911ZM19.5088 27.3618L14.645 16.3492L27.6623 3.33194L19.5088 27.3618Z" fill="white"/>
<path d="M5.5 19.6875C2.84238 19.6875 0.6875 21.8424 0.6875 24.5C0.6875 27.1576 2.84238 29.3125 5.5 29.3125C8.15762 29.3125 10.3125 27.1576 10.3125 24.5C10.3125 21.8424 8.15762 19.6875 5.5 19.6875ZM5.5 28.4961C3.29355 28.4961 1.50391 26.7064 1.50391 24.5C1.50391 23.5439 1.84014 22.6652 2.40088 21.9777L8.02227 27.5991C7.33477 28.1599 6.45605 28.4961 5.5 28.4961ZM8.59912 27.0223L2.97773 21.4009C3.66523 20.8401 4.54395 20.5039 5.5 20.5039C7.70645 20.5039 9.49609 22.2936 9.49609 24.5C9.49609 25.4561 9.15986 26.3348 8.59912 27.0223Z" fill="white"/>
</g>
<defs>
<clipPath id="clip0">
<rect width="30" height="30" fill="white"/>
</clipPath>
</defs>
</svg>
