<svg width="32" height="32" viewBox="0 0 32 32" fill="none" xmlns="http://www.w3.org/2000/svg">
<circle cx="16" cy="16" r="15" stroke="url(#paint0_linear)"/>
<g clip-path="url(#clip0)">
<path d="M23.8762 10.9753C23.7293 10.7959 23.4856 10.7294 23.269 10.8092L9.50952 15.7913C9.23464 15.8914 9.04169 16.1342 9.00587 16.4248C8.97039 16.7141 9.09765 16.9948 9.33637 17.1564L11.3032 18.5016C11.4937 18.632 11.7387 18.646 11.9428 18.5381L16.2091 16.2839L12.884 18.7716C12.7279 18.8884 12.6347 19.0747 12.6347 19.2699V21.5742C12.6347 21.8119 12.7648 22.0297 12.9742 22.1427C13.184 22.2558 13.4374 22.2445 13.6366 22.1129L15.1309 21.1198L16.6003 22.1237C16.729 22.2121 16.8824 22.2586 17.0371 22.2586C17.0894 22.2586 17.1419 22.2533 17.1937 22.2425C17.4 22.1994 17.5825 22.0716 17.6946 21.8921L23.9198 11.6068C24.041 11.4088 24.0236 11.1554 23.8762 10.9753ZM17.0043 21.3333L15.4825 20.2936C15.3767 20.2212 15.2547 20.1849 15.1328 20.1849C15.0136 20.1849 14.8942 20.2197 14.7897 20.2892L13.514 21.137V19.3999L19.3854 15.0072C19.6476 14.811 19.7136 14.454 19.5389 14.1767C19.364 13.8995 19.014 13.8058 18.7245 13.9587L11.6704 17.6859L10.0069 16.5481L22.6774 11.9604L17.0043 21.3333Z" fill="url(#paint1_linear)"/>
</g>
<defs>
<linearGradient id="paint0_linear" x1="1" y1="16" x2="31" y2="16" gradientUnits="userSpaceOnUse">
<stop stop-color="#F83600"/>
<stop offset="0.286458" stop-color="#F83B00"/>
<stop offset="1" stop-color="#FE8C00"/>
</linearGradient>
<linearGradient id="paint1_linear" x1="9" y1="16.5173" x2="24" y2="16.5173" gradientUnits="userSpaceOnUse">
<stop stop-color="#F83600"/>
<stop offset="0.286458" stop-color="#F83B00"/>
<stop offset="1" stop-color="#FE8C00"/>
</linearGradient>
<clipPath id="clip0">
<rect width="15" height="15" fill="white" transform="translate(9 9)"/>
</clipPath>
</defs>
</svg>
