<svg width="17" height="17" viewBox="0 0 17 17" fill="none" xmlns="http://www.w3.org/2000/svg">
<g clip-path="url(#clip0)">
<path d="M16.8592 2.23868C16.6927 2.03543 16.4165 1.96006 16.171 2.0505L0.576971 7.69685C0.265433 7.8103 0.0467589 8.08541 0.0061629 8.41485C-0.034044 8.74272 0.110182 9.06085 0.380736 9.24395L2.60975 10.7686C2.8257 10.9163 3.10339 10.9322 3.33465 10.8099L8.16985 8.25513L4.40143 11.0745C4.22452 11.2069 4.11881 11.4181 4.11881 11.6393V14.2508C4.11881 14.5202 4.26628 14.767 4.50363 14.8951C4.74137 15.0232 5.02852 15.0105 5.25433 14.8613L6.94782 13.7358L8.61316 14.8735C8.75908 14.9737 8.93287 15.0265 9.10823 15.0265C9.1675 15.0265 9.22703 15.0204 9.28566 15.0082C9.51951 14.9593 9.72638 14.8145 9.85335 14.611L16.9086 2.95446C17.046 2.73003 17.0263 2.44283 16.8592 2.23868ZM9.071 13.9778L7.34639 12.7995C7.22642 12.7173 7.08816 12.6763 6.95003 12.6763C6.81488 12.6763 6.6796 12.7157 6.56119 12.7944L5.11542 13.7553V11.7866L11.7697 6.80823C12.0668 6.58588 12.1416 6.18121 11.9436 5.86698C11.7454 5.55275 11.3487 5.44658 11.0207 5.61994L3.02596 9.84408L1.14065 8.55455L15.5006 3.35511L9.071 13.9778Z" fill="#E5E5E5"/>
</g>
<defs>
<clipPath id="clip0">
<rect width="17" height="17" fill="white"/>
</clipPath>
</defs>
</svg>
