<svg width="17" height="17" viewBox="0 0 17 17" fill="none" xmlns="http://www.w3.org/2000/svg">
<g clip-path="url(#clip0)">
<path d="M6.4685 15.5295C3.63119 15.5295 1.38869 15.0338 0.315811 14.1697L0.29493 14.1529L0.275994 14.1339C0.0211337 13.8789 -0.0623929 13.5444 0.0470737 13.2163L0.0570605 13.1891C0.189873 12.8569 0.515289 12.6333 0.867943 12.6312C1.59374 12.6186 2.22875 12.5321 2.80501 12.3642C1.88583 11.9367 1.24731 11.1965 0.867424 10.1252C0.73967 9.79105 0.849914 9.42063 1.14433 9.19975C1.21696 9.14515 1.29906 9.1039 1.38596 9.07627C0.875206 8.48666 0.49791 7.81572 0.286629 7.10614L0.280014 7.08409L0.275475 7.06152C0.203751 6.70264 0.364189 6.33364 0.658218 6.17476C0.781563 6.10395 0.915543 6.06724 1.05004 6.06413C0.905037 5.75181 0.799591 5.43119 0.737076 5.10863C0.563538 4.21474 0.706726 3.31865 1.16249 2.44525L1.26794 2.23436C1.35237 2.06562 1.51372 1.94707 1.69971 1.91685C1.8857 1.88676 2.07635 1.94824 2.20956 2.08144L2.40164 2.27378C3.91913 3.86468 5.27838 4.61953 7.62841 5.136C7.73334 4.23394 8.12334 3.39543 8.75251 2.73552C9.50127 1.95031 10.5011 1.50972 11.5679 1.49468H11.5749C12.3532 1.49468 13.3187 1.93903 13.9026 2.25238C14.4035 2.08844 15.007 1.83462 15.6332 1.56627C15.9262 1.42879 16.2874 1.4917 16.5178 1.72204C16.7436 1.94785 16.8062 2.26626 16.6864 2.57573C16.6408 2.70244 16.5892 2.82682 16.5318 2.94848C16.6175 2.98778 16.696 3.04109 16.7622 3.10736C16.9626 3.30775 17.0462 3.62136 16.975 3.90644L16.9673 3.93355C16.7274 4.70682 16.2664 5.33664 15.6568 5.73197C15.555 11.1535 11.4723 15.5295 6.4685 15.5295ZM1.27183 13.6145C2.28284 14.1864 4.20953 14.5325 6.4685 14.5325C8.64033 14.5325 10.6898 13.6001 12.2394 11.907C13.8016 10.2 14.6619 7.93323 14.6619 5.52419V5.49708C14.6619 5.27893 14.782 5.07984 14.9752 4.97738C15.3673 4.76973 15.6848 4.41603 15.8913 3.96377C15.6783 3.99736 15.4619 3.91189 15.3292 3.73368C15.175 3.52655 15.1733 3.24679 15.3249 3.03785C15.4068 2.92501 15.4809 2.80763 15.5471 2.68623C15.0064 2.91333 14.4929 3.11696 14.0471 3.25224C13.8851 3.30127 13.7046 3.28207 13.5566 3.19945C12.763 2.75731 12.0238 2.49298 11.5782 2.49168C9.93369 2.51684 8.59662 3.92525 8.59662 5.63288C8.59662 5.8094 8.51828 5.9749 8.38196 6.08709C8.24552 6.19915 8.06809 6.24402 7.89481 6.20978C5.18513 5.67594 3.57944 4.87543 1.90969 3.19751C1.67039 3.77091 1.60503 4.34846 1.71566 4.91875C1.82785 5.49643 2.12629 6.07528 2.57881 6.59266C2.75079 6.78902 2.77362 7.06995 2.63562 7.29161C2.49814 7.51249 2.23679 7.61573 1.98556 7.54841C1.7892 7.49575 1.60866 7.42662 1.43745 7.33778C1.78622 8.09536 2.38608 8.79599 3.14015 9.31272C3.3587 9.46252 3.45 9.74176 3.36233 9.99183C3.27452 10.2423 3.02926 10.4035 2.76415 10.3838C2.47531 10.3624 2.21941 10.3075 1.98388 10.215C2.4067 11.0761 3.08231 11.5499 4.12315 11.731C4.371 11.7742 4.56399 11.9699 4.60342 12.218C4.64298 12.4661 4.52016 12.712 4.29798 12.8299C3.41083 13.3002 2.4412 13.5526 1.27183 13.6145Z" fill="#E5E5E5"/>
</g>
<defs>
<clipPath id="clip0">
<rect width="17" height="17" fill="white"/>
</clipPath>
</defs>
</svg>
