<svg width="17" height="17" viewBox="0 0 17 17" fill="none" xmlns="http://www.w3.org/2000/svg">
<path d="M15.4063 8.50003C15.407 7.35104 15.1211 6.22 14.5744 5.2094C14.0277 4.19879 13.2376 3.34055 12.2754 2.71243C11.3133 2.08431 10.2097 1.70615 9.06456 1.61223C7.91941 1.5183 6.76892 1.71157 5.71732 2.17453C4.66572 2.63748 3.74624 3.3555 3.04218 4.26352C2.33813 5.17154 1.87175 6.24087 1.68529 7.37463C1.49884 8.5084 1.5982 9.67077 1.97437 10.7564C2.35055 11.8421 2.99166 12.8168 3.83961 13.5921C3.86591 13.6217 3.89545 13.6482 3.92766 13.6712C5.18848 14.7891 6.81515 15.4063 8.50018 15.4063C10.1852 15.4062 11.8119 14.7889 13.0726 13.6709C13.1046 13.6481 13.1339 13.6218 13.1601 13.5925C13.8681 12.9466 14.4335 12.16 14.8203 11.2832C15.2071 10.4063 15.4066 9.4584 15.4063 8.50003ZM2.65625 8.50003C2.6555 7.55329 2.88478 6.62054 3.32438 5.78203C3.76397 4.94353 4.4007 4.22439 5.17979 3.68649C5.95888 3.14858 6.857 2.80802 7.79687 2.69411C8.73674 2.58019 9.69021 2.69634 10.5752 3.03255C11.4603 3.36876 12.2504 3.91496 12.8776 4.62417C13.5047 5.33338 13.9502 6.18435 14.1757 7.10386C14.4011 8.02337 14.3998 8.98389 14.1717 9.90276C13.9437 10.8216 13.4959 11.6714 12.8667 12.3788C12.2746 11.5201 11.4414 10.8559 10.4724 10.47C10.9929 10.06 11.3726 9.49802 11.5589 8.86219C11.7452 8.22637 11.7287 7.5483 11.5118 6.92228C11.2948 6.29625 10.8882 5.75339 10.3484 5.36918C9.80863 4.98498 9.16255 4.77852 8.5 4.77852C7.83745 4.77852 7.19137 4.98498 6.65159 5.36918C6.11182 5.75339 5.70518 6.29625 5.48823 6.92228C5.27128 7.5483 5.2548 8.22637 5.44107 8.86219C5.62735 9.49802 6.00713 10.06 6.5276 10.47C5.55855 10.8559 4.72544 11.5201 4.13326 12.3788C3.18094 11.3114 2.65514 9.93055 2.65625 8.50003ZM6.375 7.96878C6.375 7.5485 6.49963 7.13765 6.73313 6.7882C6.96663 6.43874 7.2985 6.16637 7.6868 6.00554C8.07509 5.8447 8.50236 5.80262 8.91457 5.88461C9.32678 5.96661 9.70542 6.16899 10.0026 6.46618C10.2998 6.76337 10.5022 7.14201 10.5842 7.55422C10.6662 7.96643 10.6241 8.39369 10.4632 8.78198C10.3024 9.17028 10.03 9.50216 9.68059 9.73565C9.33113 9.96915 8.92029 10.0938 8.5 10.0938C7.93661 10.0932 7.39647 9.86906 6.9981 9.47069C6.59972 9.07231 6.37563 8.53217 6.375 7.96878ZM4.91957 13.1152C5.30415 12.5146 5.83366 12.0203 6.45935 11.678C7.08503 11.3356 7.78679 11.1562 8.5 11.1562C9.21321 11.1562 9.91497 11.3356 10.5407 11.678C11.1663 12.0203 11.6958 12.5146 12.0804 13.1152C11.0568 13.9115 9.79689 14.3438 8.5 14.3438C7.20311 14.3438 5.94323 13.9115 4.91957 13.1152Z" fill="white"/>
</svg>
