<svg width="35" height="56" viewBox="0 0 35 56" fill="none" xmlns="http://www.w3.org/2000/svg">
<path d="M13.7474 40.7036C9.35014 41.2535 1.60803 41.6376 0.72934 37.3174C0.609901 36.71 0.52966 36.0955 0.489116 35.4778C0.178274 31.1364 1.305 25.2802 2.96399 23.7795C3.91127 22.9231 5.73378 22.5929 7.75628 22.6875C11.7755 22.8771 16.5881 24.7471 16.9021 27.5169C17.2092 30.1839 18.1466 40.1549 13.7474 40.7036Z" fill="white"/>
<path d="M8.92706 41.4789C4.73214 41.4789 0.93634 40.5623 0.295265 37.4082C-0.553038 33.2358 0.48426 25.426 2.6671 23.4519C4.60016 21.7037 9.46539 22.0065 12.8644 23.2895C15.5633 24.3083 17.1551 25.7921 17.3464 27.4682C17.9033 32.3415 18.1831 40.5985 13.8033 41.1452C12.2242 41.3423 10.5458 41.4789 8.92706 41.4789ZM7.11382 23.1115C5.42734 23.1115 4.00019 23.4443 3.26447 24.1112C1.49667 25.7097 0.320734 33.0665 1.1673 37.2311C1.96003 41.1308 9.3557 40.8046 13.6945 40.2634C17.5551 39.7815 16.7913 30.425 16.4645 27.5689C16.3149 26.2599 14.8889 25.0032 12.5518 24.121C10.7669 23.4481 8.80956 23.1115 7.11382 23.1115Z" fill="#3E3232"/>
<path d="M3.86157 31.1518L1.65703 30.6158C1.15893 30.4942 0.650988 30.7825 0.576606 31.2311C0.319886 32.7749 0.0240957 35.9525 1.82605 36.4254C4.01005 36.9991 4.48673 34.8162 4.49194 31.8791C4.49252 31.5394 4.23348 31.2424 3.86157 31.1518Z" fill="white"/>
<path d="M2.47595 36.8777C2.22488 36.8751 1.97518 36.8403 1.733 36.774C-0.306865 36.2386 -0.0903738 33.0335 0.218442 31.1705C0.244551 31.0208 0.301586 30.8782 0.385905 30.7519C0.470225 30.6255 0.579977 30.5181 0.708148 30.4365C0.859326 30.3383 1.02908 30.2722 1.20688 30.2423C1.38467 30.2124 1.5667 30.2194 1.74168 30.2629L3.94594 30.8006C4.48051 30.9308 4.85329 31.374 4.85242 31.8784C4.84808 34.4288 4.47096 35.8551 3.62989 36.5026C3.30545 36.7518 2.91906 36.8777 2.47595 36.8777ZM1.42505 30.9485C1.31225 30.9476 1.20162 30.9796 1.10669 31.0405C1.05083 31.0773 0.95387 31.1586 0.933032 31.2892C0.763718 32.3068 0.334502 35.6595 1.91708 36.0742C2.46004 36.2169 2.87652 36.1694 3.18881 35.9295C4.0264 35.2847 4.12654 33.3082 4.12915 31.8776C4.12915 31.7082 3.98443 31.5546 3.77489 31.5036L1.57034 30.9662C1.52279 30.9545 1.47401 30.9486 1.42505 30.9485Z" fill="#3E3232"/>
<path d="M19.3301 22.9412C22.2394 22.7765 27.5347 26.3402 28.2921 26.0536C29.0495 25.7671 28.8964 22.6789 30.7276 21.637C33.1715 20.246 34.3104 22.7791 34.5321 25.7567C34.8328 29.7924 32.3105 32.8647 29.8434 32.9923C25.7449 33.203 22.4087 30.1747 20.8238 29.9079" fill="white"/>
<path d="M29.4307 33.4471C26.7474 33.4471 24.4346 32.1858 22.7221 31.2518C21.9056 30.8064 21.2 30.4218 20.7494 30.3459C20.6332 30.3264 20.5295 30.2614 20.4612 30.1654C20.3928 30.0694 20.3654 29.9502 20.385 29.8339C20.4046 29.7177 20.4695 29.6141 20.5655 29.5457C20.6616 29.4774 20.7808 29.45 20.897 29.4696C21.4947 29.57 22.2243 29.968 23.1479 30.4715C24.8589 31.4047 27.1998 32.683 29.82 32.5485C30.7389 32.5013 31.6746 31.9881 32.4537 31.1034C33.6433 29.7544 34.2386 27.8178 34.0875 25.7904C33.9347 23.7378 33.364 22.256 32.5568 21.8253C32.1174 21.5914 31.5904 21.6557 30.9458 22.0227C30.004 22.5587 29.6547 23.8018 29.374 24.8012C29.1424 25.6246 28.9601 26.2749 28.4478 26.4688C27.9905 26.6425 27.2672 26.3091 25.5307 25.4717C23.6205 24.5514 21.0052 23.2904 19.3535 23.3847C19.2363 23.3906 19.1214 23.3498 19.0341 23.2714C18.9468 23.1929 18.8941 23.0831 18.8874 22.9659C18.8808 22.8487 18.9208 22.7336 18.9986 22.6458C19.0765 22.5579 19.186 22.5045 19.3031 22.497C21.1867 22.3928 23.9206 23.7086 25.9168 24.6712C26.7645 25.0799 27.8093 25.5835 28.139 25.6228C28.2605 25.4781 28.4081 24.9514 28.5181 24.5606C28.8255 23.466 29.2466 21.9671 30.5059 21.2505C31.424 20.7278 32.2543 20.6575 32.9747 21.0412C34.4699 21.8377 34.869 24.3167 34.9737 25.7233C35.1425 27.9877 34.4667 30.1624 33.1214 31.69C32.182 32.7557 31.0257 33.3753 29.866 33.435C29.7198 33.4436 29.5745 33.4471 29.4307 33.4471Z" fill="#3E3232"/>
<path d="M25.2804 51.8254C25.2846 51.9191 25.28 52.013 25.2668 52.1059C25.2556 52.1793 25.2395 52.2518 25.2184 52.3229C24.5452 54.5596 19.4638 54.8658 17.1652 52.8729C17.1273 52.8404 17.0908 52.8069 17.0543 52.7745C17.0179 52.742 16.9843 52.707 16.9507 52.6732C16.5303 52.2604 16.2156 51.7524 16.0332 51.1922C16.0225 51.1632 16.013 51.1328 16.0043 51.103C15.9829 51.0356 15.9626 50.9655 15.9464 50.8952C15.8927 50.6906 15.8509 50.483 15.8211 50.2735C15.817 50.2478 15.813 50.2209 15.8104 50.1939C15.6619 49.1054 15.7348 47.7833 15.7872 46.1241C15.8741 43.4385 15.9114 39.8705 14.8877 34.9873L24.2263 39.9075C24.2263 39.9075 24.3302 40.3127 24.4422 40.9706C24.7739 42.9097 25.1733 47.0314 23.1742 49.3676C23.1742 49.3676 25.1712 50.3957 25.2786 51.7771C25.2789 51.7942 25.2804 51.8092 25.2804 51.8254Z" fill="white"/>
<path d="M21.2987 54.6403C19.7427 54.6403 18.0346 54.2145 16.8743 53.2094C15.1502 51.7156 15.2187 49.7276 15.3227 46.7184C15.4161 44.0048 15.5444 40.288 14.4529 35.0792C14.4315 34.965 14.4557 34.8468 14.5203 34.7502C14.585 34.6535 14.6849 34.586 14.7987 34.5622C14.9125 34.5383 15.0311 34.56 15.1291 34.6226C15.2271 34.6852 15.2967 34.7836 15.3229 34.8969C16.4364 40.2113 16.307 43.9897 16.2109 46.7491C16.109 49.6975 16.0532 51.322 17.4554 52.5376C18.8687 53.7622 21.4185 53.9998 23.0662 53.5217C24.0034 53.2499 24.6164 52.7787 24.7923 52.1949C25.1709 50.9377 22.9915 49.7751 22.969 49.7638L22.4694 49.5068L22.835 49.0799C25.3333 46.1613 23.8097 40.0805 23.7938 40.0194C23.7668 39.906 23.7854 39.7866 23.8456 39.6868C23.9058 39.5869 24.0028 39.5148 24.1157 39.4858C24.2286 39.4568 24.3484 39.4733 24.4492 39.5317C24.5501 39.5902 24.6239 39.6859 24.6549 39.7983C24.7209 40.055 26.1793 45.8855 23.8309 49.2431C24.6172 49.7551 26.0959 50.9478 25.643 52.4514C25.3776 53.3338 24.5501 54.0171 23.3134 54.3757C22.7241 54.5465 22.028 54.64 21.2987 54.6403Z" fill="#3E3232"/>
<path d="M17.0531 42.9542C16.9486 42.9608 16.8433 42.9652 16.7365 42.9698C14.7788 43.0497 13.2156 42.762 11.9679 42.2309C11.5835 42.0678 11.2137 41.8723 10.8623 41.6465C9.86903 41.0098 9.13563 40.193 8.59469 39.2964C8.334 38.8612 8.11128 38.4043 7.92902 37.9309C7.49488 36.8155 7.28592 35.6633 7.19243 34.6401C7.18259 34.5423 7.17478 34.4457 7.16812 34.3507C7.10892 33.5502 7.10447 32.7465 7.15481 31.9453C7.32846 29.1668 8.13364 26.9878 8.71133 24.9033C8.7368 24.8122 8.7614 24.7221 8.78571 24.631C8.82363 24.4863 8.86125 24.3456 8.89685 24.2032C9.02015 23.7089 9.12579 23.2157 9.20017 22.7179C9.22361 22.5656 9.24358 22.4134 9.26008 22.26C9.27339 22.1379 9.28584 22.0146 9.29452 21.8901C9.39119 20.6167 18.4088 21.3579 21.5852 23.0224C22.2263 23.359 22.6271 23.7312 22.6717 24.1335C22.7309 24.6734 22.8179 25.2099 22.9322 25.7409C22.9777 25.9601 23.0266 26.1768 23.0786 26.391C23.3342 27.4355 23.6633 28.4308 23.9976 29.3932C24.5819 31.0843 25.1842 32.6697 25.4331 34.2266C26.2305 39.2087 23.5273 42.5886 17.0531 42.9542Z" fill="white"/>
<path d="M16.1039 43.4278C8.53868 43.4278 6.97521 37.8023 6.72428 34.383C6.47045 30.927 7.24235 28.3216 7.92336 26.023C8.34679 24.5944 8.74648 23.2445 8.85155 21.857C8.90422 21.1601 9.7942 20.8354 11.7365 20.8038C14.7645 20.7517 22.8536 21.6883 23.1135 24.0841C23.3422 26.1865 24.0049 28.0782 24.6475 29.9079C25.1623 31.3771 25.6486 32.7649 25.8714 34.1561C26.2766 36.6857 25.8245 38.7716 24.5282 40.3562C22.9882 42.2374 20.3732 43.2672 16.7554 43.4145C16.5332 43.4235 16.3155 43.4278 16.1039 43.4278ZM9.73284 21.9864C9.61418 23.4457 9.20667 24.8207 8.77572 26.2754C8.08399 28.6099 7.36882 31.0237 7.61049 34.3179C7.88863 38.1039 9.60405 42.5376 16.1065 42.5376C16.3062 42.5376 16.5094 42.5335 16.7181 42.5248C20.0711 42.3885 22.4669 41.469 23.8379 39.7918C24.9667 38.4124 25.3548 36.563 24.9919 34.295C24.7817 32.9825 24.308 31.6323 23.8052 30.2006C23.1477 28.3233 22.4672 26.3825 22.2282 24.1785C22.2175 24.0804 22.069 23.5574 20.1944 22.9244C18.5687 22.3745 16.1184 21.9291 13.7981 21.7589C11.2732 21.5748 9.9939 21.7928 9.73284 21.9864Z" fill="#3E3232"/>
<path d="M20.8032 47.8428C18.8275 47.8428 17.0919 47.2003 16.9752 47.1563C16.8855 47.1224 16.8128 47.0542 16.7733 46.9668C16.7338 46.8794 16.7306 46.7798 16.7645 46.69C16.7984 46.6003 16.8666 46.5276 16.954 46.4881C17.0415 46.4486 17.141 46.4454 17.2308 46.4793C17.2739 46.4955 21.5557 48.0761 24.054 46.1804C24.1305 46.1248 24.2258 46.1014 24.3195 46.1152C24.4131 46.1291 24.4975 46.179 24.5547 46.2544C24.6119 46.3298 24.6373 46.4246 24.6255 46.5184C24.6136 46.6123 24.5654 46.6978 24.4913 46.7566C23.399 47.5855 22.0529 47.8428 20.8032 47.8428Z" fill="#3E3232"/>
<path d="M17.6873 53.3794C17.0144 55.6158 11.933 55.9217 9.63324 53.9293C7.33347 51.9369 8.55282 48.9376 8.23995 42.7691C8.15692 41.1274 7.97755 39.4921 7.70278 37.8715C7.60379 37.2837 7.48803 36.6744 7.35547 36.0435L12.5651 38.7884L16.6929 40.964C16.6929 40.964 16.9079 41.8033 17.0529 43.0209C17.3059 45.1482 17.3423 48.4349 15.6402 50.4238C15.642 50.425 18.1831 51.7332 17.6873 53.3794Z" fill="white"/>
<path d="M16.839 40.928C17.052 41.308 17.1863 41.7051 17.3053 42.1091C17.4174 42.5136 17.4993 42.9258 17.5504 43.3423C17.6643 44.1785 17.69 45.0243 17.6271 45.8658C17.5982 46.2881 17.5547 46.7115 17.4824 47.1329C17.41 47.5543 17.3258 47.9755 17.1976 48.3896C17.0694 48.8038 16.9203 49.2139 16.7154 49.6052C16.512 50.0006 16.2656 50.3724 15.9808 50.714L15.8466 50.0298C16.0176 50.1207 16.1568 50.2063 16.3053 50.3027C16.4538 50.3991 16.5947 50.4978 16.7322 50.6043C17.017 50.8194 17.2788 51.0632 17.5136 51.3319C17.7495 51.6109 17.9672 51.931 18.0925 52.3194C18.1573 52.5177 18.1921 52.7245 18.1958 52.933C18.1965 53.1442 18.1629 53.3542 18.0965 53.5547C17.9686 53.9463 17.7267 54.2866 17.445 54.5477C17.1693 54.7991 16.8554 55.0052 16.5151 55.1584C15.8576 55.4603 15.1673 55.6073 14.4799 55.6681C14.1367 55.6995 13.7918 55.7078 13.4475 55.693C13.1036 55.6809 12.7607 55.6467 12.4212 55.5905C11.7334 55.4833 11.0648 55.2768 10.4363 54.9775C10.1163 54.8207 9.81251 54.6325 9.52957 54.4157C9.24418 54.193 8.9858 53.9376 8.7597 53.6548C8.53528 53.366 8.34854 53.0499 8.20401 52.7139C8.06967 52.3831 7.96798 52.0399 7.9004 51.6893C7.77161 51.0005 7.74961 50.3233 7.74729 49.6593C7.74498 48.9954 7.77305 48.341 7.79476 47.6912C7.84194 46.3903 7.87001 45.1 7.83615 43.81C7.80228 42.5201 7.70735 41.2342 7.55396 39.954C7.51257 39.6357 7.46134 39.3173 7.40925 38.9989C7.34818 38.6823 7.29348 38.3645 7.25382 38.0438C7.20533 37.7235 7.17431 37.4008 7.16092 37.0772C7.14703 36.751 7.15079 36.4207 7.21359 36.076V36.0726C7.22113 36.0312 7.24478 35.9945 7.27935 35.9706C7.31393 35.9467 7.35659 35.9374 7.39796 35.9449C7.41932 35.9489 7.43964 35.9572 7.4577 35.9693C7.47576 35.9814 7.49118 35.997 7.50302 36.0153C7.6923 36.3093 7.82139 36.6184 7.93716 36.9313C8.03834 37.2454 8.12116 37.5652 8.18519 37.889C8.248 38.2123 8.29054 38.5393 8.32991 38.8661C8.36251 39.1941 8.39879 39.5214 8.43873 39.8478C8.5956 41.1552 8.68966 42.4706 8.72815 43.7866C8.76665 45.1026 8.73365 46.4183 8.68648 47.7228C8.66477 48.3743 8.63959 49.0226 8.63959 49.6619C8.63959 50.3013 8.66506 50.931 8.77678 51.5241C8.83241 51.8137 8.91596 52.0972 9.02626 52.3706C9.13946 52.6336 9.28532 52.8813 9.4604 53.1078C9.64197 53.3339 9.84903 53.5384 10.0775 53.7171C10.3125 53.8962 10.5646 54.052 10.83 54.1822C11.9124 54.7014 13.1876 54.8875 14.4044 54.7856C15.0121 54.7332 15.6153 54.5989 16.1429 54.3555C16.6705 54.1121 17.1073 53.7411 17.2546 53.2818C17.3291 53.0594 17.3276 52.8186 17.2503 52.5973C17.1762 52.3634 17.0251 52.1299 16.8413 51.9134C16.6465 51.6915 16.4296 51.4902 16.1939 51.3125C16.074 51.2208 15.9499 51.1331 15.8228 51.0503C15.6958 50.9675 15.5589 50.885 15.4422 50.8228L14.9519 50.5623L15.3082 50.1389C15.7869 49.5696 16.1305 48.8784 16.3502 48.1372C16.4632 47.7644 16.5471 47.3833 16.6011 46.9975C16.66 46.6078 16.6948 46.2149 16.7053 45.821C16.7284 45.03 16.6899 44.2346 16.6436 43.4361C16.5857 42.6385 16.5279 41.8362 16.5554 41.0049V41.0015C16.5563 40.968 16.5683 40.9357 16.5894 40.9096C16.6104 40.8835 16.6395 40.8651 16.6721 40.8572C16.7046 40.8492 16.7389 40.8522 16.7697 40.8656C16.8004 40.879 16.8259 40.9021 16.8422 40.9314L16.839 40.928Z" fill="#3E3232"/>
<path d="M23.5665 35.8963C23.4693 35.9223 23.3696 35.9381 23.269 35.9434L15.8155 36.3866C15.5072 36.4041 15.2004 36.3328 14.9316 36.1809C14.6628 36.0291 14.4433 35.8032 14.2992 35.5301C14.1918 35.3282 14.1294 35.1055 14.1163 34.8772L14.0109 33.1149L13.9762 32.5337L13.8795 30.9106C13.8555 30.4853 14.0008 30.0677 14.2837 29.7491C14.5665 29.4305 14.9639 29.2368 15.3892 29.2103L16.9998 29.1147C16.6367 29.2063 16.3168 29.4214 16.095 29.7231C15.8732 30.0248 15.7633 30.3943 15.7842 30.7682L15.911 32.91L16.0198 34.7351C16.0465 35.1602 16.2403 35.5576 16.5588 35.8404C16.8774 36.1232 17.2949 36.2686 17.7202 36.2447L23.5665 35.8963Z" fill="white"/>
<path d="M13.5946 48.2673C11.0619 48.2673 8.51175 47.3941 8.35025 47.3379C8.25963 47.3064 8.18526 47.2401 8.1435 47.1537C8.10173 47.0673 8.09599 46.9679 8.12754 46.8773C8.15909 46.7867 8.22534 46.7123 8.31172 46.6705C8.3981 46.6288 8.49754 46.623 8.58816 46.6546C8.64604 46.6743 14.2997 48.6091 16.8046 46.7078C16.8811 46.6498 16.9774 46.6246 17.0725 46.6376C17.1676 46.6507 17.2536 46.701 17.3115 46.7774C17.3695 46.8539 17.3948 46.9503 17.3817 47.0453C17.3687 47.1404 17.3184 47.2264 17.2419 47.2844C16.2689 48.023 14.9349 48.2673 13.5946 48.2673Z" fill="#3E3232"/>
<g opacity="0.35">
<path opacity="0.35" d="M7.13568 32.2918C7.12989 32.3815 7.12787 32.4724 7.12555 32.5633C7.12324 32.6296 7.12208 32.6959 7.12092 32.763C7.11783 32.9272 7.11783 33.0933 7.12092 33.2614C6.63498 33.0449 6.40373 32.8822 6.40373 32.8822C6.40373 32.8822 5.68769 32.3995 5.71461 31.4163C5.71461 31.3781 5.71808 31.3411 5.72271 31.3052C5.83509 31.5003 5.98582 31.6706 6.16582 31.8059C6.16582 31.8059 6.47695 32.0258 7.13568 32.2918Z" fill="#371A45"/>
</g>
<path d="M6.51894 30.6816C6.35629 30.8431 6.16903 31.0993 6.15977 31.4292C6.1398 32.1429 6.63529 32.5001 6.65642 32.516C6.68218 32.534 9.01436 34.1047 14.2998 33.841C14.4625 33.6329 14.6874 33.2555 14.65 32.894C14.6243 32.6439 14.4715 32.4092 14.1956 32.1947C13.2527 32.314 9.02999 32.7131 6.51894 30.6816Z" fill="#371A45"/>
<g opacity="0.35">
<path opacity="0.35" d="M11.3081 33.1705C9.94782 33.0762 8.37653 32.7653 7.1543 31.9451C7.32795 29.1666 8.13284 26.9864 8.71111 24.9023C9.96808 23.067 11.1735 28.3861 11.1735 28.3861C10.8311 29.5553 10.9825 31.3489 11.3081 33.1705Z" fill="#371A45"/>
</g>
<path d="M14.3121 39.1246C12.2862 39.6948 10.2446 39.8146 8.59339 39.2957C6.77002 38.7226 5.42564 37.3704 5.10786 34.987C4.61583 31.2951 6.69014 26.9152 8.29905 24.1709C8.62668 23.612 8.93578 23.1197 9.19887 22.7166C9.69986 21.9499 10.0382 21.501 10.0382 21.501L10.7962 26.1028L11.1725 28.3873C10.7814 29.7282 10.4124 31.5316 11.3461 32.577C11.8138 33.1002 13.9509 32.1139 15.0971 32.8259C17.4741 34.2985 17.7242 38.1649 14.3121 39.1246Z" fill="white"/>
<path d="M10.1549 21.5878C9.81685 22.4271 9.3885 23.1976 8.95234 23.9611C8.5237 24.7286 8.08406 25.4875 7.67192 26.2629C7.26643 27.0392 6.90523 27.8378 6.59005 28.655C6.27661 29.47 6.00455 30.2997 5.80861 31.144C5.61267 31.9882 5.48822 32.8423 5.47374 33.6935C5.45927 34.5447 5.55652 35.3945 5.83524 36.1658C6.10874 36.9389 6.58079 37.6225 7.22158 38.1133C7.85831 38.6088 8.64583 38.9139 9.46751 39.0653C10.2892 39.2166 11.1522 39.221 12.0034 39.135C12.4313 39.0908 12.8564 39.0231 13.2769 38.9324C13.4882 38.8899 13.6977 38.8381 13.907 38.7845L14.2181 38.7003C14.3139 38.6685 14.4117 38.6424 14.5058 38.6065C14.8771 38.4741 15.2222 38.2775 15.5255 38.0256C15.8174 37.7778 16.0512 37.4687 16.2102 37.1203C16.5286 36.4257 16.5133 35.5864 16.2319 34.8533C16.0911 34.4838 15.8863 34.1421 15.6268 33.8437C15.4983 33.6944 15.3565 33.5571 15.203 33.4336C15.1268 33.3716 15.0474 33.3136 14.9651 33.26C14.9263 33.2354 14.8783 33.1989 14.8476 33.1836C14.8139 33.1631 14.7787 33.1453 14.7423 33.13C14.4462 32.9978 14.0439 32.9763 13.6326 33.0027C13.2167 33.027 12.7889 33.1005 12.3218 33.1474C12.206 33.1595 12.0825 33.1679 11.954 33.1708C11.8098 33.1758 11.6655 33.1642 11.5239 33.1364C11.4315 33.1171 11.3419 33.0862 11.2573 33.0444C11.2063 33.0168 11.1578 32.9846 11.1126 32.9483C11.0889 32.9277 11.0654 32.9063 11.0431 32.884C11.0283 32.8696 11.0146 32.854 11.0023 32.8374C10.9196 32.7303 10.8287 32.6279 10.765 32.5098C10.7306 32.4519 10.6938 32.394 10.6628 32.3361L10.5798 32.1555C10.5193 32.036 10.4886 31.9107 10.4429 31.7877C10.3735 31.5441 10.3288 31.2941 10.3094 31.0415C10.2759 30.5606 10.3229 30.0775 10.4484 29.6121C10.5073 29.3862 10.5862 29.1659 10.684 28.9539C10.7789 28.7393 10.8968 28.5355 11.0356 28.3461C11.0543 28.3212 11.0802 28.3024 11.1097 28.2924C11.1393 28.2824 11.1712 28.2816 11.2012 28.29C11.2312 28.2985 11.258 28.3158 11.278 28.3398C11.298 28.3638 11.3102 28.3932 11.3132 28.4243V28.4275C11.3288 28.6542 11.3307 28.8818 11.3187 29.1088C11.3106 29.3296 11.2958 29.5446 11.279 29.7565C11.2384 30.1643 11.2233 30.5743 11.2339 30.9839C11.2399 31.176 11.2628 31.3672 11.3025 31.5553C11.3531 31.7318 11.4075 31.9092 11.5051 32.0551C11.5444 32.1356 11.6069 32.1972 11.6576 32.2681C11.6619 32.2733 11.6764 32.2939 11.6709 32.2843C11.669 32.2812 11.6663 32.2786 11.6631 32.2768C11.657 32.2736 11.6596 32.2716 11.6561 32.2728C11.672 32.2785 11.6883 32.2833 11.7048 32.2869C11.7821 32.3007 11.8607 32.3059 11.9392 32.3023C12.0327 32.3 12.1325 32.2939 12.237 32.2829C12.6552 32.2406 13.1053 32.1631 13.5794 32.1344C13.8244 32.1169 14.0704 32.1191 14.3151 32.1411C14.5683 32.1674 14.8334 32.2175 15.0939 32.3344C15.1599 32.3627 15.2239 32.3954 15.2855 32.4322C15.3527 32.4687 15.3932 32.5017 15.4482 32.5364C15.5532 32.6033 15.6508 32.6811 15.7486 32.7567C15.9419 32.9124 16.1206 33.0855 16.2826 33.2736C16.6087 33.6483 16.866 34.0777 17.0429 34.5418C17.2228 35.008 17.3147 35.5035 17.3141 36.0031C17.3156 36.5108 17.209 37.013 17.0015 37.4763C16.7901 37.9408 16.4789 38.3529 16.0901 38.6835C15.7086 39.0033 15.2735 39.2531 14.8051 39.4215C14.6893 39.4635 14.5735 39.4971 14.4578 39.5347C14.3446 39.5674 14.2358 39.5946 14.1246 39.6247C13.9026 39.6826 13.6801 39.7361 13.4552 39.7819C13.0053 39.8783 12.5506 39.9501 12.0929 39.9972C11.176 40.0892 10.2377 40.091 9.30949 39.9176C8.3813 39.7442 7.46209 39.3966 6.68962 38.7984C6.30294 38.4995 5.96299 38.1446 5.68097 37.7455C5.4031 37.3486 5.18015 36.9159 5.01819 36.4593C4.6923 35.5534 4.58869 34.6049 4.60518 33.6791C4.62168 32.7532 4.75655 31.8351 4.96291 30.9446C5.37881 29.1609 6.08848 27.4842 6.86993 25.8588C7.26181 25.0458 7.68668 24.2479 8.18015 23.4931C8.66841 22.7356 9.21021 22.0101 9.92249 21.4138C9.94785 21.3925 9.97964 21.3802 10.0128 21.379C10.0459 21.3778 10.0785 21.3877 10.1054 21.4072C10.1322 21.4267 10.1518 21.4546 10.1609 21.4865C10.17 21.5184 10.1682 21.5524 10.1558 21.5832L10.1549 21.5878Z" fill="#3E3232"/>
<path d="M28.5569 18.4645C27.634 20.4041 26.2274 22.0735 24.4726 23.3121C24.1036 23.5725 23.721 23.8131 23.3264 24.0328C23.1331 24.141 22.934 24.2443 22.7317 24.3448C21.0181 25.1857 19.1356 25.6254 17.2268 25.6304C16.985 25.6304 16.7439 25.6237 16.5032 25.6104C12.104 25.363 7.96262 22.8108 5.88831 18.5708C2.83112 12.3256 5.41684 4.78489 11.6612 1.72799C12.8315 1.15372 14.0841 0.7651 15.3739 0.576076C15.5209 0.5535 15.6688 0.534977 15.817 0.518191C16.2133 0.474198 16.6089 0.449309 17.0037 0.44352C18.8192 0.41918 20.6187 0.785682 22.2802 1.51815C22.5424 1.63392 22.8007 1.75838 23.0552 1.89151C25.4209 3.13518 27.3292 5.09973 28.5037 7.50056C30.2631 11.0943 30.1542 15.1147 28.5569 18.4645Z" fill="white"/>
<path d="M17.2272 25.675C16.9858 25.675 16.7415 25.6681 16.501 25.655C14.2584 25.5285 12.0898 24.8075 10.2178 23.566C8.34586 22.3246 6.83792 20.6074 5.84875 18.5908C2.78606 12.334 5.38567 4.75164 11.6419 1.68838C12.8165 1.11196 14.0738 0.722061 15.3685 0.532702C15.5077 0.510995 15.6579 0.491893 15.8133 0.474817C16.2081 0.430825 16.609 0.405646 17.0046 0.399568C18.827 0.375269 20.6333 0.743044 22.3011 1.47796C22.5662 1.59373 22.8278 1.72108 23.0788 1.85422C25.453 3.1021 27.368 5.07372 28.5463 7.48323C30.2521 10.9676 30.2715 14.9773 28.5992 18.4848C27.6712 20.4301 26.26 22.1049 24.5004 23.3495C24.13 23.6107 23.7461 23.8522 23.3502 24.073C23.1711 24.1735 22.9757 24.2756 22.7534 24.3859C22.1498 24.6814 21.5236 24.9286 20.8809 25.1251C19.6974 25.4875 18.4669 25.6728 17.2292 25.675H17.2272ZM17.1858 0.486974C17.1256 0.486974 17.0655 0.486974 17.0055 0.486974C16.6124 0.493052 16.2145 0.517942 15.8226 0.561645C15.6678 0.577852 15.5193 0.596667 15.3812 0.618085C14.0957 0.806413 12.8473 1.19366 11.6809 1.76594C5.46786 4.8075 2.88736 12.3366 5.92863 18.5494C6.91085 20.5519 8.40818 22.257 10.267 23.4897C12.1258 24.7224 14.2791 25.4384 16.5059 25.5642C16.745 25.5769 16.9875 25.5835 17.2272 25.5838C18.4561 25.5809 19.6778 25.3965 20.8528 25.0365C21.491 24.8416 22.1127 24.5962 22.7121 24.3028C22.9329 24.1934 23.1268 24.0916 23.3048 23.992C23.698 23.7729 24.0793 23.5333 24.4472 23.2739C26.1944 22.0382 27.5955 20.3751 28.5168 18.4434L28.557 18.4626L28.5168 18.4434C30.1775 14.9608 30.1584 10.9792 28.4647 7.51941C27.2945 5.1269 25.3929 3.16919 23.0353 1.93004C22.7864 1.79922 22.5265 1.6739 22.2632 1.55784C20.6632 0.852875 18.9342 0.488203 17.1858 0.486974Z" fill="#371A45"/>
<path d="M17.2265 25.9324C16.98 25.9324 16.7311 25.9254 16.4859 25.9121C11.8282 25.6516 7.66338 22.8882 5.61657 18.7054C2.49079 12.321 5.14336 4.58442 11.5275 1.45892C12.726 0.87085 14.0087 0.472951 15.3297 0.27952C15.4709 0.257813 15.6249 0.237843 15.7852 0.221635C16.1861 0.177064 16.5956 0.151305 16.9988 0.145227C18.8578 0.120099 20.7005 0.495188 22.4017 1.24504C22.6721 1.36428 22.9389 1.49308 23.1953 1.62766C25.618 2.90074 27.5721 4.91244 28.7743 7.37099C30.5146 10.9263 30.5343 15.0179 28.8281 18.5963C27.8811 20.5814 26.441 22.2905 24.6454 23.5605C24.2676 23.827 23.8759 24.0733 23.472 24.2983C23.2897 24.4001 23.0906 24.5046 22.8642 24.6166C21.1094 25.4783 19.1812 25.9287 17.2263 25.9335L17.2265 25.9324ZM17.1846 0.745207C17.1267 0.745207 17.0668 0.745207 17.0077 0.745207C16.6234 0.750995 16.2335 0.774146 15.85 0.818138C15.6975 0.834057 15.5537 0.852581 15.4197 0.87342C14.1597 1.05766 12.9361 1.43701 11.7929 1.99783C5.70745 4.97688 3.17991 12.3517 6.15867 18.4371C7.12085 20.3987 8.58763 22.0689 10.4085 23.2764C12.2293 24.4838 14.3387 25.1851 16.5201 25.3081C16.7539 25.3208 16.9918 25.3275 17.2271 25.3275C18.4303 25.3249 19.6265 25.1444 20.7769 24.7917C21.4023 24.6006 22.0115 24.3602 22.5988 24.0728C22.8145 23.9657 23.004 23.8659 23.1777 23.7683C23.5631 23.5536 23.9369 23.3187 24.2975 23.0644C26.0087 21.8543 27.3809 20.2255 28.2831 18.3338C29.9097 14.9224 29.8912 11.0224 28.2319 7.63322C27.0859 5.28975 25.2233 3.37224 22.914 2.15875C22.6703 2.03054 22.4159 1.90782 22.1581 1.79437C20.5908 1.10339 18.8971 0.745627 17.1843 0.743758L17.1846 0.745207Z" fill="#371A45"/>
<path d="M17.2281 26.0746C16.9783 26.0746 16.7268 26.0676 16.4793 26.054C11.7695 25.7892 7.55871 22.9968 5.48903 18.766C2.32968 12.3119 5.01062 4.48871 11.4656 1.32877C12.6775 0.734066 13.9746 0.331768 15.3104 0.136344C15.4522 0.114348 15.6088 0.094088 15.7714 0.0784591C16.1766 0.0335983 16.5893 0.00754883 16.9977 0.00118149C18.8768 -0.0240456 20.7394 0.354981 22.4591 1.11257C22.7324 1.23297 23.0024 1.36321 23.2614 1.49924C25.7106 2.78681 27.6864 4.8207 28.9023 7.30626C30.662 10.9009 30.682 15.0377 28.9567 18.6558C27.9993 20.6629 26.5432 22.3911 24.7277 23.6752C24.3456 23.9446 23.9495 24.1936 23.541 24.4211C23.3569 24.5241 23.1558 24.6295 22.9274 24.7426C22.3042 25.0481 21.6576 25.3034 20.9938 25.5061C19.7729 25.8801 18.5035 26.0716 17.2266 26.0746H17.2281ZM17.1855 0.887689C17.1277 0.887689 17.0698 0.887689 17.0119 0.887689C16.6319 0.893478 16.2466 0.916632 15.8672 0.960045C15.7161 0.975674 15.5748 0.993715 15.4432 1.01417C14.1974 1.1963 12.9876 1.57136 11.8572 2.12585C5.84242 5.07045 3.3444 12.3596 6.28842 18.3741C7.23942 20.3129 8.68911 21.9637 10.4887 23.1571C12.2884 24.3506 14.3732 25.0438 16.5291 25.1655C16.7607 25.1779 16.9954 25.1843 17.2281 25.1846C18.4171 25.1819 19.5991 25.0035 20.7359 24.6549C21.3542 24.4662 21.9564 24.2286 22.537 23.9444C22.7497 23.8388 22.9381 23.7401 23.1101 23.6437C23.4912 23.4313 23.8608 23.199 24.2174 22.9476C25.9085 21.7514 27.2647 20.1416 28.1565 18.272C29.7642 14.9005 29.7457 11.0453 28.1061 7.69582C26.9732 5.37923 25.1321 3.48356 22.8496 2.28358C22.6088 2.1571 22.3576 2.03584 22.1026 1.92354C20.5534 1.2408 18.8793 0.887275 17.1864 0.885375L17.1855 0.887689Z" fill="#3E3232"/>
<path d="M26.8065 21.1748C19.7057 26.7028 9.49629 23.5481 8.50994 14.6917C7.83876 8.66558 13.2206 3.3558 19.0496 3.08201C23.292 2.88259 27.5211 4.5436 29.6307 11.0435C29.6307 11.0435 30.1201 14.0651 29.3991 16.1304C28.6782 18.1957 27.6316 20.0834 27.6316 20.0834L26.8065 21.1748Z" fill="#3E3232"/>
<path d="M19.02 25.5706C16.1547 25.5706 13.398 24.6705 11.2447 22.9962C8.73245 21.0432 7.20689 18.2358 6.83267 14.8778C6.48825 11.7871 7.49835 8.67837 9.67829 6.12449C12.049 3.34602 15.542 1.59007 19.0221 1.42655C20.9751 1.33422 22.7519 1.60021 24.3026 2.21726L24.3373 2.23115L24.3689 2.25199C26.2813 3.52275 27.8206 5.27999 28.8286 7.34297C30.577 10.9148 30.5967 15.0252 28.8828 18.6204C27.9313 20.6148 26.4845 22.3319 24.6803 23.6078C24.3008 23.8756 23.9073 24.123 23.5015 24.349C23.3183 24.4514 23.1186 24.5562 22.8914 24.6691C22.272 24.9723 21.6296 25.2258 20.9702 25.4274L20.9146 25.4395C20.2869 25.5268 19.6538 25.5706 19.02 25.5706ZM19.7668 2.13246C19.5329 2.13246 19.2962 2.13805 19.0565 2.14924C15.7724 2.30379 12.4727 3.96538 10.2291 6.59423C8.18052 8.99587 7.22976 11.9078 7.55305 14.7977C7.90527 17.957 9.3359 20.5946 11.6901 22.4252C14.1551 24.342 17.4702 25.1802 20.7881 24.7267C21.4007 24.5382 21.9975 24.3019 22.573 24.0199C22.7875 23.9137 22.9782 23.8141 23.1501 23.7172C23.5338 23.5035 23.9059 23.2696 24.2647 23.0165C25.9671 21.8121 27.3323 20.1913 28.2298 18.309C29.8483 14.9143 29.8298 11.0334 28.1789 7.66105C27.2331 5.72498 25.7914 4.07397 24.0005 2.87599C22.7432 2.38194 21.3218 2.13246 19.7668 2.13246Z" fill="#3E3232"/>
<path d="M19.0074 24.3656C17.4444 24.37 15.8964 24.0608 14.4551 23.4562C10.8433 21.9324 8.5155 18.7554 8.06834 14.7397C7.75807 11.956 8.66744 9.15725 10.6286 6.85893C12.7593 4.36236 15.8996 2.78384 19.0288 2.63681C24.4802 2.38067 28.1897 5.16261 30.0536 10.9051L30.0695 10.9711C30.0901 11.0993 30.5682 14.1284 29.8203 16.2756C29.0968 18.3534 28.065 20.2196 28.0216 20.2986L27.9874 20.351L27.1258 21.4902L27.0798 21.5261C24.6799 23.3932 21.8227 24.3656 19.0074 24.3656ZM19.6899 3.50971C19.4861 3.50971 19.2798 3.51463 19.0708 3.52447C16.1821 3.66021 13.2791 5.12267 11.3047 7.43604C9.50475 9.54536 8.66889 12.1042 8.95137 14.6427C9.36206 18.3294 11.494 21.2439 14.8003 22.6389C18.5452 24.2189 23.0183 23.5361 26.4879 20.861L27.2592 19.8413C27.3871 19.6069 28.3301 17.8576 28.981 15.9845C29.6177 14.1576 29.2452 11.4695 29.1969 11.147C27.5411 6.07604 24.3441 3.50971 19.6899 3.50971Z" fill="#3E3232"/>
<path d="M9.4529 14.7933C9.4529 14.8113 9.4529 14.8304 9.4529 14.8483C9.4063 17.305 7.93024 19.2065 6.13581 19.1055C4.32778 19.0045 2.88211 16.9079 2.90555 14.424C2.92466 12.508 3.81348 10.92 5.05047 10.3431C5.41578 10.1688 5.81907 10.0892 6.22322 10.1116C8.03096 10.2141 9.4775 12.3107 9.4529 14.7933Z" fill="white"/>
<path d="M6.27527 19.5536C6.22057 19.5536 6.16587 19.5521 6.11088 19.5489C4.07218 19.4332 2.4352 17.1331 2.46124 14.4198C2.47658 12.8459 3.0317 11.4315 3.98419 10.5398C4.64321 9.92329 5.42726 9.62143 6.24836 9.66831C8.28706 9.78408 9.92404 12.0841 9.89799 14.7975C9.88266 16.3717 9.32754 17.7858 8.37476 18.6775C7.76031 19.2526 7.03762 19.5536 6.27527 19.5536ZM6.08715 10.5525C5.55287 10.5525 5.0377 10.771 4.59169 11.1892C3.82704 11.9053 3.3628 13.1162 3.35006 14.429C3.32836 16.6747 4.58909 18.5736 6.16095 18.6621C6.73488 18.6954 7.28971 18.4758 7.76754 18.0292C8.5322 17.3134 8.99644 16.1022 9.00917 14.7894C9.03088 12.544 7.76986 10.6448 6.19829 10.5563C6.16124 10.5537 6.12419 10.5525 6.08715 10.5525Z" fill="#3E3232"/>
<path d="M5.38871 18.4333C6.85652 18.3201 7.92519 16.6564 7.77564 14.7173C7.6261 12.7782 6.31497 11.298 4.84716 11.4112C3.37935 11.5244 2.31068 13.1881 2.46023 15.1272C2.60977 17.0663 3.9209 18.5465 5.38871 18.4333Z" fill="white"/>
<path d="M5.23125 18.4845C4.94284 18.4837 4.65749 18.4254 4.39192 18.3129C3.58993 17.9771 2.94306 17.1995 2.61688 16.1792C2.03051 14.3446 2.671 12.2865 4.04461 11.5916C4.32123 11.4501 4.62564 11.3714 4.93615 11.361C5.24666 11.3507 5.55564 11.4089 5.84107 11.5317C6.64335 11.8674 7.29021 12.6451 7.61639 13.6653C8.20248 15.4997 7.56227 17.5578 6.18838 18.253C5.89206 18.4045 5.56409 18.4839 5.23125 18.4845ZM4.99971 11.4489C4.6815 11.4503 4.36817 11.5272 4.08542 11.6732C2.75031 12.349 2.13036 14.3579 2.70371 16.1514C3.02207 17.1459 3.64955 17.903 4.42665 18.2284C5.00174 18.4692 5.5965 18.4495 6.1467 18.1705C7.48181 17.4947 8.10147 15.4858 7.52841 13.6922C7.21004 12.6977 6.58257 11.9406 5.80518 11.6153C5.55081 11.5069 5.27737 11.4503 5.00087 11.4489H4.99971Z" fill="#371A45"/>
<path d="M5.1981 18.9122C5.15353 18.9122 5.10925 18.9122 5.06439 18.9082C3.4876 18.8066 2.26275 16.967 2.27549 14.7196C2.2833 13.4019 2.7403 12.1935 3.49831 11.4871C3.98396 11.0341 4.55702 10.8147 5.15324 10.8535C6.73031 10.9548 7.95516 12.7947 7.94213 15.042C7.93432 16.3598 7.47732 17.5682 6.71961 18.2746C6.27013 18.6934 5.74656 18.9122 5.1981 18.9122ZM2.99847 14.724C2.98805 16.5262 3.95531 18.1102 5.11127 18.1861C5.50402 18.2107 5.8904 18.059 6.22671 17.7456C6.84145 17.1722 7.21249 16.1598 7.21915 15.0377C7.22957 13.2352 6.26405 11.65 5.10635 11.5756C4.71129 11.5507 4.32751 11.7027 3.9912 12.0161C3.37617 12.5895 3.00513 13.6016 2.99847 14.724Z" fill="#3E3232"/>
<g opacity="0.7">
<path opacity="0.7" d="M22.6283 5.76053C22.5626 5.66762 22.9686 5.77268 22.9686 5.77268L23.2581 5.79352C23.2581 5.79352 23.7724 5.85286 24.025 5.90061C24.2777 5.94837 24.5318 6.00914 24.7796 6.08121C25.0779 6.16581 25.3452 6.33511 25.5492 6.5686C26.4344 7.59656 27.0708 8.81473 27.409 10.1285C28.1164 12.8558 27.5586 14.9385 26.0985 16.9421C26.0985 16.9421 26.372 15.5014 25.8163 12.6482C25.506 11.0506 25.0062 9.11437 22.6283 5.76053Z" fill="#C4C4C4"/>
</g>
<g opacity="0.7">
<path opacity="0.7" d="M13.6886 13.9712C14.6154 13.8997 15.2991 12.9664 15.2158 11.8865C15.1325 10.8066 14.3138 9.98906 13.387 10.0605C12.4603 10.132 11.7765 11.0654 11.8598 12.1453C11.9431 13.2252 12.7619 14.0427 13.6886 13.9712Z" fill="#C4C4C4"/>
</g>
<g opacity="0.7">
<path opacity="0.7" d="M13.6025 16.9488C13.9813 16.8871 14.2301 16.4792 14.1582 16.0378C14.0863 15.5964 13.7209 15.2885 13.3421 15.3502C12.9633 15.4119 12.7145 15.8198 12.7864 16.2612C12.8583 16.7026 13.2237 17.0105 13.6025 16.9488Z" fill="#C4C4C4"/>
</g>
<path d="M33.3764 21.9265C33.0806 21.5939 32.5981 21.2588 31.8604 21.2724C30.2847 21.3013 29.3713 24.6696 31.0184 26.8351C31.7252 27.7636 32.6971 27.5297 33.0635 27.0883" fill="white"/>
<path d="M33.3534 22.7121L33.3331 22.6649C33.3242 22.6449 33.3143 22.6244 33.3042 22.6035C33.2842 22.5619 33.2588 22.5208 33.235 22.4799C33.1854 22.3983 33.1291 22.3209 33.0669 22.2484C32.9481 22.1081 32.805 21.9904 32.6443 21.9011C32.4857 21.8118 32.311 21.755 32.1303 21.7338C32.0842 21.7254 32.0374 21.7215 31.9905 21.7222C31.9453 21.7222 31.8904 21.7153 31.8536 21.7185C31.8182 21.7199 31.7831 21.7246 31.7485 21.7324L31.6962 21.7431L31.6446 21.7622C31.3639 21.8586 31.1011 22.1758 30.9277 22.5378C30.7494 22.904 30.6496 23.3265 30.6094 23.7514C30.5687 24.1793 30.5961 24.611 30.6904 25.0304C30.7862 25.448 30.9584 25.8387 31.1648 26.2019C31.2642 26.3767 31.3758 26.5442 31.4988 26.7032C31.6068 26.8377 31.7403 26.9495 31.8915 27.0323C32.0467 27.1127 32.2192 27.1536 32.394 27.1513C32.489 27.1483 32.5835 27.1348 32.6756 27.111C32.7718 27.0832 32.8642 27.0438 32.9508 26.9935L32.9676 26.9834C32.9958 26.9664 33.0288 26.9592 33.0616 26.9627C33.0943 26.9663 33.125 26.9805 33.1489 27.0031C33.1728 27.0258 33.1887 27.0556 33.1941 27.0881C33.1994 27.1206 33.194 27.154 33.1786 27.1831C32.908 27.6957 32.2348 27.9356 31.6333 27.7738C31.3315 27.6997 31.062 27.5298 30.8519 27.3272C30.6584 27.1346 30.4895 26.9187 30.3492 26.6844C30.076 26.2309 29.9055 25.7258 29.8077 25.2165C29.7072 24.7075 29.679 24.1869 29.7237 23.6701C29.7747 23.1543 29.8922 22.6394 30.1289 22.1515C30.2485 21.899 30.4029 21.6646 30.5877 21.4551C30.7798 21.2403 31.0273 21.0433 31.3352 20.9298L31.451 20.8896L31.572 20.8606C31.6532 20.8433 31.7357 20.833 31.8186 20.8297C31.8996 20.825 31.9633 20.8323 32.0365 20.8334C32.108 20.834 32.1793 20.8402 32.2498 20.8519C32.5405 20.8878 32.8214 20.9798 33.077 21.1228C33.3307 21.2645 33.5568 21.4508 33.7444 21.6727C33.8369 21.7802 33.9206 21.8949 33.9948 22.0157C34.0309 22.0768 34.0668 22.137 34.0987 22.2021C34.1152 22.2337 34.1311 22.2664 34.1461 22.3005L34.1693 22.3529L34.1945 22.4171C34.2395 22.5258 34.2394 22.6479 34.1944 22.7565C34.1494 22.8651 34.063 22.9514 33.9544 22.9964C33.8457 23.0414 33.7237 23.0414 33.615 22.9964C33.5064 22.9513 33.4201 22.865 33.3751 22.7563L33.3534 22.7121Z" fill="#3E3232"/>
<path d="M29.2063 33.3328C29.1821 33.3327 29.1579 33.3301 29.1343 33.3249C28.2052 33.12 27.519 32.6211 27.0944 31.8425C25.8974 29.6455 27.2411 25.9672 27.299 25.8126C27.332 25.7329 27.3946 25.6689 27.4736 25.6344C27.5527 25.5998 27.6421 25.5972 27.7231 25.6272C27.804 25.6572 27.8701 25.7174 27.9076 25.7952C27.9451 25.8729 27.9509 25.9622 27.9239 26.0442C27.9109 26.0795 26.6279 29.594 27.6805 31.5236C28.013 32.1334 28.5354 32.5096 29.2778 32.6732C29.358 32.6908 29.4289 32.7375 29.4768 32.8042C29.5248 32.871 29.5464 32.953 29.5375 33.0347C29.5287 33.1164 29.49 33.1919 29.4288 33.2468C29.3677 33.3017 29.2885 33.3321 29.2063 33.3322V33.3328Z" fill="#3E3232"/>
<path d="M5.43334 36.6691C5.42196 36.6691 5.41038 36.6685 5.39861 36.6674C5.31069 36.6582 5.23 36.6146 5.17426 36.546C5.11852 36.4774 5.0923 36.3894 5.10137 36.3015C5.10658 36.2506 5.68369 31.2505 10.7452 31.2505C10.7825 31.2505 10.8192 31.2505 10.8572 31.2505C10.942 31.2561 11.0216 31.2938 11.0795 31.3561C11.1374 31.4184 11.1693 31.5005 11.1688 31.5855C11.1682 31.6706 11.1351 31.7522 11.0763 31.8136C11.0175 31.8751 10.9375 31.9118 10.8525 31.9162H10.8476C6.28743 31.8539 5.78499 36.1837 5.76589 36.3684C5.75782 36.4509 5.71927 36.5274 5.65777 36.5831C5.59628 36.6387 5.51625 36.6693 5.43334 36.6691Z" fill="#3E3232"/>
</svg>
