<svg width="1131" height="598" viewBox="0 0 1131 598" fill="none" xmlns="http://www.w3.org/2000/svg">
<circle cx="1.5" cy="209.5" r="1.5" fill="white"/>
<circle cx="131.5" cy="63.5" r="1.5" fill="white"/>
<circle cx="416.5" cy="448.5" r="1.5" fill="white"/>
<circle cx="981.5" cy="596.5" r="1.5" fill="white"/>
<circle cx="899" cy="395" r="2" fill="white"/>
<circle cx="1067.5" cy="247.5" r="1.5" fill="white"/>
<circle cx="1129.5" cy="431.5" r="1.5" fill="white"/>
<circle cx="978.5" cy="40.5" r="1.5" fill="white"/>
<circle cx="612" cy="2" r="2" fill="white"/>
<circle cx="632.5" cy="190.5" r="1.5" fill="white"/>
<circle cx="601.5" cy="438.5" r="1.5" fill="white"/>
<circle cx="839.5" cy="475.5" r="1.5" fill="white"/>
<circle cx="76.5" cy="38.5" r="2.5" fill="white"/>
<circle cx="932" cy="191" r="2" fill="white"/>
<circle cx="353" cy="258" r="2" fill="white"/>
<circle cx="721.5" cy="138.5" r="2.5" fill="white"/>
<circle cx="946.5" cy="89.5" r="1.5" fill="white"/>
<circle cx="515.5" cy="47.5" r="1.5" fill="white"/>
<circle cx="641.5" cy="87.5" r="1.5" fill="white"/>
<circle cx="185.5" cy="437.5" r="1.5" fill="white"/>
<circle cx="22.5" cy="514.5" r="1.5" fill="white"/>
<circle cx="71.5" cy="375.5" r="2.5" fill="white"/>
</svg>
