<svg width="15" height="15" viewBox="0 0 24 24" fill="none" xmlns="http://www.w3.org/2000/svg">
<path d="M6.20435 7.10742H2.15845C1.7049 7.10742 1.33594 7.47638 1.33594 7.92993V23.1776C1.33594 23.631 1.7049 24 2.15845 24H6.20435C6.65771 24 7.02667 23.631 7.02667 23.1776V7.92993C7.02667 7.47638 6.65771 7.10742 6.20435 7.10742ZM5.61841 22.5917H2.7442V8.51568H5.61841V22.5917Z" fill="white"/>
<path d="M4.1814 0C2.59937 0 1.3125 1.28686 1.3125 2.86871C1.3125 4.45074 2.59937 5.7376 4.1814 5.7376C5.76306 5.7376 7.05011 4.45074 7.05011 2.86871C7.05011 1.28686 5.76324 0 4.1814 0ZM4.1814 4.32934C3.37592 4.32934 2.72076 3.67419 2.72076 2.86871C2.72076 2.06341 3.37592 1.40826 4.1814 1.40826C4.98669 1.40826 5.64185 2.06341 5.64185 2.86871C5.64185 3.674 4.98669 4.32934 4.1814 4.32934Z" fill="white"/>
<path d="M20.1114 8.89514C19.1443 8.08783 17.9147 7.65607 16.6506 7.6795C15.8654 7.69397 15.0982 7.8833 14.403 8.22607V7.89319C14.403 7.45941 14.0512 7.10767 13.6174 7.10767H9.49792C9.06415 7.10767 8.7124 7.45941 8.7124 7.89319V23.2145C8.7124 23.6485 9.06415 24 9.49792 24H13.6987C14.0876 24 14.403 23.6847 14.403 23.296V14.1611C14.403 13.379 15.0149 12.7173 15.7964 12.694C16.6086 12.67 17.277 13.3235 17.277 14.1305V23.3106C17.277 23.6913 17.5857 24 17.9664 24H22.0037C22.3843 24 22.6931 23.6913 22.6931 23.3106V14.4097C22.6931 12.2747 21.7521 10.2646 20.1114 8.89514ZM21.2848 22.5918H18.6854V14.1305C18.6854 12.5616 17.409 11.2852 15.84 11.2852C14.2711 11.2852 12.9947 12.5616 12.9947 14.1305V22.5918H10.1207V8.51574H12.9947V9.53912H12.9956C12.9954 9.70501 13.0531 9.87164 13.1718 10.0059C13.4294 10.297 13.8745 10.3241 14.1656 10.0663C14.8594 9.45214 15.7512 9.10461 16.6766 9.0874C17.6029 9.06982 18.502 9.38586 19.2091 9.97619C20.5284 11.0774 21.2848 12.6933 21.2848 14.4097V22.5918Z" fill="white"/>
</svg>
