<svg width="170" height="42" viewBox="0 0 170 42" fill="none" xmlns="http://www.w3.org/2000/svg">
<g clip-path="url(#clip0)">
<path d="M3.13055 24.194C4.50759 24.194 5.6239 23.0924 5.6239 21.7336C5.6239 20.3748 4.50759 19.2732 3.13055 19.2732C1.75352 19.2732 0.637207 20.3748 0.637207 21.7336C0.637207 23.0924 1.75352 24.194 3.13055 24.194Z" fill="#E3312D"/>
<path d="M11.1277 8.31069C11.6171 9.34953 17.5919 24.0026 17.5919 24.0026C17.5919 24.0026 17.5919 24.1302 17.6566 24.1848H22.6617L11.8665 0L8.65283 7.20807C9.12951 7.03559 9.65573 7.05444 10.1185 7.26061C10.5812 7.46677 10.9436 7.84379 11.1277 8.31069Z" fill="white"/>
<path d="M36.9662 15.4003C38.3056 14.6775 39.3921 13.5718 40.0827 12.2283C40.7733 10.8849 41.0357 9.36666 40.8355 7.87326C40.3923 2.29634 36.6984 1.03881 35.0731 0.501163C33.4478 -0.0364809 24.675 -0.00914583 23.89 -3.32268e-05L25.8939 4.55627H28.4334C28.4334 4.55627 32.2012 4.55627 32.6906 4.61094C33.507 4.63617 34.2828 4.9681 34.8595 5.53888C35.4362 6.10966 35.7703 6.8762 35.7934 7.68189C36.0889 10.525 34.2605 11.4363 33.3186 11.737C31.8694 11.9429 30.4038 12.013 28.9413 11.9466L32.9307 18.052L37.0493 24.1666H42.6825L36.9662 15.4003Z" fill="white"/>
<path d="M59.1938 0H52.0001H50.8827H48.6387L50.6611 4.60187H52.9051H56.5527V24.194H61.3824V4.60187H67.3388V0H59.1938Z" fill="white"/>
<path d="M91.0256 24.194C92.4026 24.194 93.5189 23.0924 93.5189 21.7336C93.5189 20.3748 92.4026 19.2732 91.0256 19.2732C89.6485 19.2732 88.5322 20.3748 88.5322 21.7336C88.5322 23.0924 89.6485 24.194 91.0256 24.194Z" fill="#E3312D"/>
<path d="M99.0228 8.32893C99.5122 9.36777 105.487 24.0026 105.487 24.0026C105.487 24.0026 105.487 24.1302 105.552 24.1849H110.548L99.7985 0.0273438L96.5848 7.23542C97.0556 7.07105 97.5726 7.09314 98.0273 7.29706C98.4819 7.50098 98.8387 7.87083 99.0228 8.32893Z" fill="white"/>
<path d="M137.43 8.03729C136.943 6.5522 136.158 5.17922 135.121 4.00041C133.975 2.73173 132.546 1.74289 130.947 1.11172C128.944 0.342381 126.806 -0.0262381 124.658 0.0273177H113.133L115.119 4.58362L119.367 4.62919H126.089C126.774 4.64686 127.454 4.75098 128.112 4.93901C128.973 5.15818 129.784 5.53533 130.504 6.05075C131.324 6.66006 131.986 7.45349 132.434 8.36535C133.405 10.6091 133.478 13.1331 132.637 15.4276C132.278 16.3189 131.708 17.1125 130.975 17.7422C130.219 18.3725 129.343 18.8466 128.398 19.1364C127.319 19.4647 126.194 19.6245 125.064 19.6103H117.501L119.524 24.1666H125.886C127.498 24.1771 129.099 23.9056 130.614 23.3647C132.066 22.8506 133.4 22.0577 134.539 21.0319C135.675 20.0105 136.587 18.7699 137.217 17.3868C137.891 15.8617 138.225 14.2115 138.196 12.548C138.184 11.0139 137.925 9.49135 137.43 8.03729Z" fill="white"/>
<path d="M158.346 12.4933C157.8 11.9645 157.178 11.5191 156.499 11.1719C155.827 10.8235 155.133 10.5191 154.421 10.2607C153.667 9.9938 152.928 9.68966 152.205 9.34942C151.564 9.05107 150.978 8.65087 150.469 8.16479C150.239 7.94228 150.06 7.67347 149.944 7.37666C149.829 7.07984 149.78 6.76198 149.8 6.44468C149.82 6.12738 149.909 5.81808 150.061 5.53781C150.213 5.25754 150.425 5.01287 150.681 4.82045C151.407 4.3725 152.255 4.15614 153.11 4.2008C154.021 4.21547 154.924 4.38183 155.779 4.69288C156.735 5.01468 157.662 5.41712 158.549 5.89575L160.174 2.18691C159.217 1.5958 158.203 1.10123 157.145 0.710672C155.619 0.211539 154.015 -0.0167722 152.408 0.0363337C151.039 0.0703322 149.695 0.406623 148.474 1.0205C147.387 1.5691 146.474 2.40116 145.833 3.42622C145.196 4.51631 144.877 5.75874 144.91 7.01659C144.877 8.01959 145.096 9.01507 145.547 9.91441C145.958 10.6788 146.528 11.3494 147.218 11.8827C147.907 12.4075 148.65 12.8595 149.435 13.2314C150.219 13.5959 150.986 13.9148 151.725 14.1973C152.334 14.4233 152.922 14.7039 153.479 15.0357C153.965 15.3211 154.399 15.6846 154.763 16.111C155.069 16.4744 155.236 16.9325 155.234 17.405C155.266 17.9961 155.061 18.5759 154.661 19.0179C154.263 19.4143 153.766 19.7002 153.221 19.8471C152.658 20.0012 152.078 20.0809 151.494 20.0841C150.87 20.0756 150.249 19.9899 149.647 19.8289C148.954 19.6482 148.28 19.4041 147.634 19.0999C147.006 18.8082 146.406 18.4604 145.842 18.0611L144.18 21.9977C144.867 22.4288 145.59 22.8008 146.341 23.1095C148.117 23.8398 150.022 24.2176 151.946 24.2212C153.504 24.2859 155.055 23.973 156.462 23.3099C157.6 22.7402 158.558 21.8735 159.232 20.804C159.851 19.7894 160.17 18.6251 160.156 17.4414C160.183 16.4535 160.016 15.4697 159.666 14.5436C159.374 13.7779 158.924 13.08 158.346 12.4933Z" fill="white"/>
<path d="M0.895803 37.7898L5.06061 32.1855H5.83632V39.0565H4.91286V33.5889L0.831161 39.0565H0.00927734V32.1855H0.932739L0.895803 37.7898Z" fill="white"/>
<path d="M10.4535 35.6031C10.4514 35.1333 10.5359 34.667 10.7029 34.2271C10.8647 33.807 11.1095 33.4229 11.4232 33.0971C11.7335 32.7738 12.1074 32.5164 12.5221 32.3408C12.9721 32.1543 13.4562 32.0612 13.9442 32.0674C14.5495 32.0548 15.1467 32.2061 15.6711 32.5048C16.1489 32.7895 16.5336 33.2039 16.7792 33.6985L15.8558 33.981C15.6667 33.6335 15.3818 33.346 15.0339 33.1518C14.7025 32.9755 14.3346 32.8765 13.9585 32.8623C13.5823 32.8481 13.2078 32.919 12.8638 33.0697C12.5597 33.2061 12.2865 33.4013 12.0604 33.6438C11.827 33.894 11.6479 34.1886 11.534 34.5095C11.3933 34.8571 11.3242 35.2288 11.3308 35.6031C11.3322 35.9766 11.401 36.3469 11.534 36.6966C11.6565 37.0332 11.8447 37.3428 12.0881 37.6078C12.316 37.8531 12.5885 38.054 12.8915 38.2002C13.2 38.3455 13.5377 38.4203 13.8796 38.4189C14.1015 38.4205 14.3224 38.3898 14.5352 38.3277C14.7487 38.2689 14.9535 38.1831 15.1447 38.0726C15.3266 37.9703 15.4917 37.8412 15.6342 37.6899C15.7566 37.5614 15.8509 37.4094 15.9112 37.2433L16.8347 37.5076C16.7325 37.7571 16.5889 37.9881 16.4099 38.191C16.2115 38.3966 15.9882 38.5772 15.745 38.7287C15.4832 38.8856 15.2003 39.0053 14.9046 39.0841C14.6035 39.1649 14.2932 39.2078 13.9812 39.2117C13.4981 39.2184 13.0193 39.122 12.5775 38.9292C12.1581 38.7447 11.7811 38.4781 11.4693 38.1455C11.1565 37.8138 10.9091 37.4275 10.7398 37.0064C10.5513 36.5619 10.454 36.0849 10.4535 35.6031Z" fill="white"/>
<path d="M25.4321 32.1855H26.4571L23.816 35.5117L26.6788 39.0565H25.663L23.2066 35.9217H22.2092V39.0565H21.2858V32.1855H22.2092V35.2109H23.1327L25.4321 32.1855Z" fill="white"/>
<path d="M30.8436 40.879C30.9552 40.992 31.0908 41.0791 31.2407 41.1341C31.3808 41.1788 31.5274 41.2004 31.6747 41.1979C31.796 41.1978 31.9147 41.163 32.0164 41.0977C32.1494 41.0089 32.2626 40.8942 32.3488 40.7605C32.4816 40.5519 32.5959 40.3324 32.6905 40.1044C32.8013 39.831 32.9306 39.4848 33.0784 39.0565L30.0402 32.1855H30.9636L33.5493 38.2272L35.9411 32.1855H36.8091L33.5401 40.1955C33.432 40.4929 33.2959 40.7797 33.1338 41.0521C33.0181 41.2554 32.8752 41.4424 32.709 41.608C32.573 41.7372 32.4131 41.8393 32.238 41.9087C32.0622 41.9653 31.8781 41.993 31.6932 41.9907C31.5253 42.0023 31.3569 41.98 31.1981 41.9251C31.0394 41.8703 30.8936 41.7841 30.7697 41.6718L30.8436 40.879Z" fill="white"/>
<path d="M40.6786 35.6027C40.6764 35.1329 40.7609 34.6667 40.9279 34.2267C41.0897 33.8067 41.3346 33.4226 41.6482 33.0968C41.9585 32.7735 42.3325 32.5161 42.7471 32.3404C43.1973 32.1547 43.6813 32.0617 44.1692 32.067C44.7747 32.0531 45.3723 32.2045 45.8961 32.5044C46.3739 32.7892 46.7586 33.2036 47.0043 33.6982L46.0808 33.9807C45.8918 33.6332 45.6068 33.3457 45.2589 33.1514C44.9275 32.9752 44.5597 32.8762 44.1835 32.862C43.8073 32.8477 43.4329 32.9187 43.0888 33.0694C42.786 33.2034 42.5154 33.3991 42.2946 33.6435C42.0584 33.8932 41.8761 34.1878 41.759 34.5092C41.6259 34.8586 41.5602 35.2295 41.5651 35.6027C41.5633 35.9757 41.629 36.346 41.759 36.6963C41.8861 37.0307 42.0739 37.3394 42.3131 37.6075C42.541 37.8528 42.8135 38.0537 43.1165 38.1998C43.425 38.3452 43.7628 38.4199 44.1046 38.4185C44.3295 38.4196 44.5534 38.389 44.7695 38.3274C44.9794 38.2669 45.181 38.1812 45.3697 38.0723C45.5516 37.97 45.7167 37.8409 45.8592 37.6895C45.9816 37.561 46.0759 37.409 46.1362 37.243L47.0597 37.5073C46.9575 37.7568 46.8139 37.9878 46.6349 38.1907C46.4386 38.3984 46.215 38.5792 45.97 38.7284C45.7091 38.8869 45.4259 39.0066 45.1296 39.0838C44.8285 39.1646 44.5182 39.2075 44.2062 39.2113C43.7231 39.2181 43.2443 39.1217 42.8025 38.9288C42.3831 38.7444 42.0061 38.4778 41.6944 38.1452C41.3712 37.8247 41.1113 37.4477 40.9279 37.0334C40.7484 36.5778 40.6636 36.0913 40.6786 35.6027Z" fill="white"/>
<path d="M51.0859 35.6027C51.0837 35.1329 51.1682 34.6667 51.3352 34.2267C51.5006 33.8085 51.745 33.425 52.0555 33.0968C52.3658 32.7735 52.7398 32.5161 53.1544 32.3404C53.6046 32.1547 54.0886 32.0617 54.5765 32.067C55.182 32.0531 55.7796 32.2045 56.3034 32.5044C56.7812 32.7892 57.1659 33.2036 57.4116 33.6982L56.4881 33.9807C56.2991 33.6332 56.0141 33.3457 55.6662 33.1514C55.309 32.9519 54.9038 32.8511 54.4934 32.8598C54.1522 32.8543 53.8142 32.926 53.5053 33.0694C53.1985 33.2011 52.9244 33.397 52.7019 33.6435C52.4657 33.8932 52.2834 34.1878 52.1663 34.5092C52.0332 34.8586 51.9675 35.2295 51.9724 35.6027C51.9706 35.9757 52.0362 36.346 52.1663 36.6963C52.2934 37.0307 52.4812 37.3394 52.7204 37.6075C52.9483 37.8528 53.2208 38.0537 53.5238 38.1998C53.8323 38.3452 54.1701 38.4199 54.5119 38.4185C54.7368 38.4196 54.9607 38.389 55.1768 38.3274C55.389 38.2652 55.5935 38.1796 55.7863 38.0722C55.9637 37.9675 56.1254 37.8387 56.2665 37.6895C56.3889 37.561 56.4832 37.409 56.5435 37.243L57.467 37.5073C57.3683 37.7585 57.2244 37.9901 57.0422 38.1907C56.8478 38.4005 56.6239 38.5816 56.3773 38.7284C56.1164 38.8869 55.8332 39.0066 55.5369 39.0837C55.2358 39.1646 54.9255 39.2075 54.6135 39.2113C54.1424 39.2178 53.6752 39.1262 53.2424 38.9424C52.8096 38.7587 52.4209 38.4871 52.1017 38.1452C51.7889 37.8135 51.5415 37.4272 51.3721 37.0061C51.1836 36.5616 51.0863 36.0846 51.0859 35.6027Z" fill="white"/>
<path d="M64.5868 39.0565H63.6634V32.9601H61.2439V32.1855H67.0248V32.9601H64.5776L64.5868 39.0565Z" fill="white"/>
<path d="M74.828 32.1857C75.0575 32.1795 75.2858 32.22 75.4987 32.3046C75.7116 32.3893 75.9045 32.5163 76.0655 32.6778C76.2226 32.8299 76.3453 33.0131 76.4256 33.2154C76.5163 33.4223 76.5604 33.6462 76.5549 33.8715C76.5553 34.0311 76.5367 34.1901 76.4995 34.3454C76.4573 34.5042 76.3952 34.6572 76.3148 34.801C76.2324 34.9479 76.1299 35.0828 76.0101 35.202C75.8793 35.3199 75.7295 35.4153 75.5668 35.4845C75.9355 35.5743 76.2616 35.7867 76.4903 36.0859C76.715 36.4033 76.8314 36.7831 76.8227 37.1703C76.8298 37.4339 76.7761 37.6956 76.6657 37.9357C76.5669 38.1625 76.4223 38.3672 76.2409 38.5372C76.0523 38.7045 75.8329 38.8344 75.5945 38.9199C75.3309 39.0131 75.0526 39.0594 74.7726 39.0566H71.402V32.1857H74.828ZM74.4679 35.2202C74.6293 35.2279 74.7906 35.2009 74.9404 35.1411C75.0903 35.0813 75.2252 34.9902 75.3359 34.8739C75.4453 34.758 75.5302 34.6217 75.5857 34.4731C75.6412 34.3245 75.6662 34.1664 75.6591 34.0082C75.6639 33.716 75.5696 33.4305 75.3913 33.1972C75.2902 33.0796 75.1619 32.9876 75.0173 32.9289C74.8727 32.8703 74.716 32.8466 74.5602 32.86H72.3254V35.2111L74.4679 35.2202ZM74.6803 38.3914C74.8588 38.3939 75.0356 38.3565 75.1974 38.282C75.3474 38.2147 75.4824 38.1187 75.5945 37.9995C75.7 37.8808 75.7843 37.7452 75.8438 37.5986C75.939 37.3799 75.9678 37.1387 75.9269 36.9041C75.8859 36.6696 75.7768 36.4519 75.613 36.2772C75.4976 36.1502 75.3546 36.0506 75.1947 35.9859C75.0347 35.9212 74.862 35.8931 74.6895 35.9036H72.3254V38.3914H74.6803Z" fill="white"/>
<path d="M84.4136 39.1933C83.9334 39.2011 83.4574 39.1046 83.0191 38.9108C82.6077 38.7261 82.2373 38.4628 81.9294 38.1362C81.6199 37.8038 81.3757 37.4176 81.2091 36.9972C81.0421 36.5636 80.9576 36.1033 80.9598 35.6394C80.9563 35.1716 81.0441 34.7075 81.2184 34.2725C81.3849 33.8521 81.6292 33.4658 81.9387 33.1334C82.2483 32.8088 82.6182 32.5458 83.0284 32.3588C83.4642 32.1669 83.9362 32.0676 84.4136 32.0676C84.8909 32.0676 85.3629 32.1669 85.7987 32.3588C86.2102 32.5436 86.5806 32.8068 86.8884 33.1334C87.2039 33.463 87.4517 33.8499 87.618 34.2725C87.7888 34.7085 87.8765 35.1719 87.8765 35.6394C87.8788 36.1041 87.7911 36.565 87.618 36.9972C87.4582 37.4189 87.2167 37.8058 86.9069 38.1362C86.5975 38.4651 86.2236 38.7286 85.808 38.9108C85.3695 39.1038 84.8936 39.2002 84.4136 39.1933ZM81.8833 35.6576C81.8784 36.0258 81.9474 36.3912 82.0864 36.7329C82.2065 37.0667 82.3881 37.3756 82.622 37.6442C82.8474 37.8922 83.1205 38.0935 83.4255 38.2365C83.7358 38.3755 84.0728 38.447 84.4136 38.4461C84.7524 38.4474 85.0872 38.3726 85.3924 38.2274C85.6978 38.0807 85.9733 37.88 86.2051 37.6351C86.6924 37.0963 86.959 36.3979 86.9531 35.6758C86.957 35.3078 86.888 34.9425 86.7499 34.6006C86.6302 34.2647 86.4451 33.9551 86.2051 33.6893C85.9767 33.4383 85.7006 33.234 85.3924 33.0879C85.085 32.9498 84.7513 32.8783 84.4136 32.8783C84.0757 32.8772 83.7417 32.9487 83.4347 33.0879C83.1294 33.2342 82.8563 33.4386 82.6313 33.6893C82.3937 33.9569 82.2089 34.2659 82.0864 34.6006C81.952 34.9372 81.8831 35.2958 81.8833 35.6576Z" fill="white"/>
<path d="M102.513 39.1934C101.959 39.2053 101.415 39.0495 100.953 38.7469C100.51 38.4617 100.137 38.0817 99.863 37.6352V41.8725H98.9396V32.1858H99.7615V33.5163C100.045 33.0879 100.424 32.7294 100.87 32.4683C101.317 32.1986 101.832 32.0596 102.356 32.0674C102.814 32.059 103.267 32.159 103.677 32.359C104.073 32.5544 104.428 32.8236 104.72 33.1518C105.02 33.4864 105.255 33.8725 105.413 34.2909C105.577 34.7189 105.662 35.1727 105.662 35.6304C105.667 36.0959 105.589 36.5585 105.432 36.9973C105.291 37.4138 105.071 37.8003 104.785 38.1364C104.506 38.4587 104.163 38.7222 103.779 38.9109C103.385 39.1026 102.952 39.1994 102.513 39.1934ZM102.255 38.4006C102.611 38.4044 102.963 38.3231 103.28 38.1637C103.585 38.0096 103.855 37.7956 104.074 37.5349C104.293 37.2621 104.461 36.9538 104.573 36.6237C104.686 36.2949 104.745 35.9503 104.748 35.6031C104.752 35.2409 104.683 34.8816 104.545 34.546C104.299 33.8944 103.81 33.36 103.178 33.0515C102.857 32.9061 102.507 32.8315 102.153 32.8328C101.904 32.8358 101.657 32.882 101.424 32.9695C101.171 33.0579 100.931 33.1805 100.713 33.334C100.496 33.4852 100.306 33.6698 100.149 33.8808C99.9999 34.0691 99.9014 34.2917 99.863 34.5278V36.6419C99.9713 36.8873 100.108 37.1197 100.269 37.3345C100.431 37.5411 100.621 37.7251 100.833 37.8812C101.039 38.0324 101.266 38.1551 101.507 38.2457C101.745 38.3387 101.998 38.3911 102.255 38.4006Z" fill="white"/>
<path d="M113.3 39.1931C112.816 39.201 112.337 39.1046 111.896 38.9106C111.478 38.7283 111.104 38.4613 110.797 38.127C110.48 37.7982 110.232 37.4112 110.067 36.9879C109.888 36.5478 109.797 36.0773 109.8 35.6028C109.799 35.1344 109.89 34.6703 110.067 34.2359C110.234 33.8169 110.483 33.4346 110.8 33.1109C111.117 32.7872 111.496 32.5285 111.914 32.3496C112.353 32.1583 112.829 32.0619 113.309 32.0671C113.789 32.0593 114.265 32.1558 114.703 32.3496C115.117 32.5296 115.489 32.7935 115.793 33.1241C116.102 33.4479 116.344 33.8288 116.504 34.245C116.679 34.6703 116.767 35.1256 116.763 35.5846V35.8032C116.769 35.8516 116.769 35.9007 116.763 35.949H110.797C110.824 36.3013 110.911 36.6464 111.056 36.9697C111.197 37.2706 111.391 37.5451 111.628 37.7807C111.856 38.0072 112.126 38.1896 112.422 38.3183C112.714 38.4415 113.028 38.5066 113.346 38.5097C113.571 38.5076 113.795 38.4738 114.011 38.4095C114.228 38.3577 114.436 38.2748 114.629 38.1634C114.816 38.0564 114.987 37.9245 115.137 37.7716C115.284 37.6234 115.403 37.4506 115.488 37.2613L116.273 37.48C116.163 37.7345 116.01 37.9687 115.821 38.1725C115.618 38.3805 115.388 38.5612 115.137 38.7102C114.87 38.8688 114.581 38.9885 114.278 39.0656C113.959 39.1502 113.63 39.1931 113.3 39.1931ZM115.867 35.2565C115.841 34.906 115.75 34.5631 115.599 34.245C115.462 33.9537 115.275 33.6884 115.045 33.4613C114.815 33.243 114.546 33.0698 114.251 32.951C113.959 32.8266 113.645 32.7615 113.327 32.7596C112.994 32.7579 112.664 32.823 112.358 32.951C112.061 33.0676 111.791 33.241 111.563 33.4613C111.331 33.6875 111.145 33.9569 111.019 34.2541C110.878 34.5718 110.794 34.9108 110.769 35.2565H115.867Z" fill="white"/>
<path d="M125.332 32.1855H126.348L123.716 35.5117L126.579 39.0565H125.563L123.116 35.9217H122.128V39.0565H121.204V32.1855H122.128V35.2109H123.051L125.332 32.1855Z" fill="white"/>
<path d="M129.82 38.3094C130.077 38.3006 130.325 38.2136 130.53 38.0603C130.735 37.9069 130.887 37.6947 130.965 37.4528C131.134 37.0392 131.255 36.6082 131.325 36.1679C131.427 35.6212 131.529 34.9195 131.621 34.0447L131.824 32.2222H135.915V39.0931H134.992V32.933H132.637L132.452 34.4639C132.332 35.3751 132.203 36.1315 132.064 36.7238C131.958 37.2191 131.791 37.6996 131.566 38.1545C131.416 38.4664 131.174 38.7268 130.873 38.9017C130.588 39.0511 130.272 39.1352 129.949 39.1478L129.82 38.3094Z" fill="white"/>
<path d="M142.758 39.1935C142.442 39.1963 142.129 39.1407 141.834 39.0295C141.564 38.9248 141.316 38.7702 141.105 38.5738C140.892 38.3846 140.725 38.1512 140.615 37.8904C140.496 37.6269 140.436 37.3408 140.44 37.052C140.439 36.7624 140.512 36.4772 140.652 36.2228C140.801 35.9631 141.006 35.739 141.253 35.5667C141.533 35.3708 141.846 35.2229 142.176 35.1293C142.561 35.0269 142.959 34.9779 143.358 34.9835C143.72 34.9825 144.082 35.013 144.439 35.0746C144.774 35.1265 145.102 35.2151 145.417 35.3389V34.7192C145.432 34.4553 145.393 34.1912 145.302 33.9424C145.212 33.6936 145.072 33.4651 144.891 33.2703C144.704 33.0853 144.478 32.9423 144.229 32.8511C143.981 32.7599 143.715 32.7226 143.451 32.7418C143.074 32.7423 142.701 32.8135 142.352 32.9514C141.949 33.1033 141.567 33.3054 141.216 33.5528L140.893 32.9605C141.655 32.4057 142.568 32.0884 143.515 32.0492C143.89 32.0252 144.266 32.0766 144.62 32.2004C144.974 32.3241 145.299 32.5176 145.574 32.7691C145.829 33.0366 146.027 33.352 146.155 33.6964C146.284 34.0408 146.341 34.4073 146.322 34.7739V37.9451C146.322 38.1911 146.433 38.3187 146.664 38.3187V39.1024C146.549 39.1265 146.431 39.1417 146.313 39.1479C146.116 39.1609 145.921 39.0989 145.768 38.9748C145.703 38.9137 145.652 38.8401 145.617 38.7586C145.582 38.6771 145.564 38.5894 145.565 38.5009V37.9542C145.243 38.3504 144.828 38.6632 144.356 38.8654C143.854 39.0886 143.308 39.2006 142.758 39.1935ZM142.97 38.51C143.418 38.5133 143.862 38.4232 144.272 38.2458C144.639 38.0994 144.959 37.8567 145.196 37.5441C145.269 37.4695 145.328 37.3832 145.371 37.289C145.412 37.2067 145.434 37.1164 145.436 37.0247V35.9038C145.135 35.7932 144.827 35.7049 144.512 35.6396C144.183 35.5817 143.85 35.5513 143.515 35.5484C142.963 35.5246 142.416 35.6642 141.945 35.9494C141.763 36.0566 141.611 36.2086 141.506 36.3907C141.401 36.5728 141.346 36.7786 141.345 36.9882C141.345 37.1925 141.389 37.3944 141.474 37.5806C141.558 37.7629 141.677 37.927 141.825 38.0635C141.979 38.2038 142.157 38.315 142.352 38.3916C142.55 38.4644 142.759 38.5044 142.97 38.51Z" fill="white"/>
<path d="M154.901 36.8148L157.515 32.1855H158.392V39.0565H157.515V33.7803L155.169 37.9447H154.634L152.279 33.8167V39.0929H151.355V32.222H152.279L154.901 36.8148Z" fill="white"/>
<path d="M163.49 32.1855H164.413V34.6277H165.928C166.242 34.6233 166.554 34.6726 166.851 34.7735C167.125 34.8658 167.379 35.008 167.599 35.1927C167.816 35.3858 167.989 35.6218 168.107 35.8853C168.353 36.5001 168.353 37.1841 168.107 37.7989C167.991 38.0637 167.818 38.3001 167.599 38.4915C167.377 38.6757 167.124 38.8206 166.851 38.9198C166.552 39.0132 166.241 39.0593 165.928 39.0565H163.517L163.49 32.1855ZM165.9 38.291C166.097 38.3026 166.294 38.2747 166.48 38.2089C166.666 38.1431 166.836 38.0408 166.98 37.9083C167.242 37.615 167.378 37.2325 167.359 36.8421C167.369 36.6479 167.34 36.4536 167.273 36.2706C167.207 36.0875 167.104 35.9194 166.971 35.7759C166.828 35.644 166.659 35.5422 166.475 35.4764C166.291 35.4106 166.095 35.3823 165.9 35.3932H164.385V38.291H165.9ZM169.123 32.1855H170.046V39.0565H169.123V32.1855Z" fill="white"/>
</g>
<defs>
<clipPath id="clip0">
<rect width="170" height="42" fill="white"/>
</clipPath>
</defs>
</svg>
