<svg width="170" height="44" viewBox="0 0 170 44" fill="none" xmlns="http://www.w3.org/2000/svg">
<path d="M7.2582 23.1761C8.56221 23.1761 9.61931 22.1229 9.61931 20.8237C9.61931 19.5244 8.56221 18.4712 7.2582 18.4712C5.9542 18.4712 4.89709 19.5244 4.89709 20.8237C4.89709 22.1229 5.9542 23.1761 7.2582 23.1761Z" fill="#E3312D"/>
<path d="M14.7787 8.01563C15.216 8.97405 20.9001 23.0018 20.9001 23.0018C20.9001 23.0889 20.9876 23.0889 20.9876 23.176H25.7098L15.4783 0.0869141L12.4176 6.97009C13.3795 6.62158 14.3415 6.97009 14.7787 8.01563Z" fill="white"/>
<path d="M39.2643 14.8119C39.2643 14.8119 43.3744 12.9822 42.9372 7.58021C42.4999 2.26536 39.002 1.04556 37.5154 0.522783C35.8538 1.10827e-05 27.6337 1.11051e-05 26.9341 0.0871398L28.858 4.44358H31.2191C31.2191 4.44358 34.8045 4.44358 35.2417 4.53071C35.6789 4.61784 37.8652 4.79209 38.2149 7.49308C38.5647 10.1941 36.7283 11.0654 35.8538 11.3268C35.1543 11.5881 32.6182 11.501 31.7438 11.501C33.4053 14.1149 35.504 17.3386 35.504 17.3386L39.4392 23.1762H44.7736C44.6861 23.1762 40.6635 16.9901 39.2643 14.8119Z" fill="white"/>
<path d="M60.3395 0.0869141H53.5185H52.4691H50.3704L52.2068 4.44335H54.393H57.8035V23.176H62.4383V4.44335H68.035V0.0869141H60.3395Z" fill="white"/>
<path d="M90.4218 23.1761C91.7258 23.1761 92.7829 22.1229 92.7829 20.8237C92.7829 19.5244 91.7258 18.4712 90.4218 18.4712C89.1178 18.4712 88.0607 19.5244 88.0607 20.8237C88.0607 22.1229 89.1178 23.1761 90.4218 23.1761Z" fill="#E3312D"/>
<path d="M98.0298 8.01563C98.467 8.97405 104.151 23.0018 104.151 23.0018C104.151 23.0889 104.239 23.0889 104.239 23.176H108.961L98.8168 0.0869141L95.7561 6.97009C96.6306 6.62158 97.5925 7.05722 98.0298 8.01563Z" fill="white"/>
<path d="M134.408 7.75424C133.971 6.36018 133.184 5.05326 132.222 3.92059C131.26 2.78791 129.949 1.8295 128.287 1.13247C126.625 0.43544 124.702 0.0869141 122.34 0.0869141H117.531H115.432H111.409L113.333 4.44335L117.356 4.53048H119.979H123.74C124.264 4.53048 124.876 4.61762 125.664 4.79187C126.451 4.96613 127.15 5.31464 127.85 5.83741C128.549 6.36019 129.161 7.05722 129.686 8.01563C130.211 8.97405 130.386 10.1938 130.386 11.675C130.386 12.8077 130.211 13.8533 129.861 14.7245C129.511 15.5958 128.987 16.38 128.287 16.9028C127.587 17.5127 126.8 17.9483 125.838 18.2097C124.876 18.4711 123.827 18.6453 122.69 18.6453H121.029H115.52L117.443 23.0018H123.477C125.051 23.0018 126.538 22.7404 127.937 22.2176C129.336 21.6948 130.561 20.9978 131.697 19.9523C132.747 18.9938 133.621 17.774 134.233 16.4671C134.846 15.0731 135.195 13.5919 135.195 11.8493C135.108 10.6295 134.846 9.1483 134.408 7.75424Z" fill="white"/>
<path d="M154.172 12.0238C153.647 11.501 153.035 11.0653 152.423 10.7168C151.811 10.3683 151.111 10.1069 150.412 9.84555C149.712 9.58416 149.012 9.23565 148.313 8.97426C147.613 8.62574 147.088 8.27723 146.651 7.84158C146.214 7.40594 146.039 6.9703 146.039 6.3604C146.039 5.57624 146.301 4.96634 146.914 4.61782C147.438 4.26931 148.225 4.00791 149.187 4.00791C149.974 4.00791 150.849 4.18217 151.723 4.44356C152.598 4.70494 153.472 5.14059 154.347 5.57623L155.921 2.00396C155.046 1.48119 154.084 0.958413 153.035 0.609898C151.898 0.174255 150.412 0 148.575 0C147.176 0.0871287 145.952 0.348507 144.815 0.958408C143.765 1.56831 142.891 2.26534 142.279 3.22376C141.667 4.18218 141.404 5.31484 141.404 6.62177C141.404 7.75445 141.579 8.62574 142.016 9.4099C142.454 10.1941 142.978 10.804 143.591 11.3267C144.203 11.8495 144.902 12.2851 145.689 12.6337C146.476 12.9822 147.176 13.3307 147.875 13.5921C148.488 13.8535 149.012 14.1149 149.537 14.3762C150.062 14.7248 150.412 14.9861 150.761 15.4218C151.024 15.7703 151.199 16.2059 151.199 16.6416C151.199 17.3386 151.024 17.7743 150.674 18.2099C150.324 18.5584 149.887 18.8198 149.275 18.9941C148.75 19.1683 148.225 19.2554 147.613 19.2554C147.088 19.2554 146.476 19.1683 145.864 18.9941C145.252 18.8198 144.552 18.5584 143.94 18.297C143.328 18.0356 142.803 17.6871 142.279 17.3386L140.705 21.0851C141.404 21.5208 142.016 21.8693 142.716 22.1307C143.591 22.4792 144.465 22.7406 145.339 22.9149C146.214 23.0891 147.088 23.1762 147.963 23.1762C149.624 23.1762 151.111 22.9148 152.248 22.3049C153.385 21.695 154.259 20.9109 154.871 19.8653C155.484 18.9069 155.746 17.7742 155.746 16.6416C155.746 15.5089 155.571 14.6376 155.309 13.8535C155.134 13.1564 154.696 12.5465 154.172 12.0238Z" fill="white"/>
<path d="M3.84774 40.6889C3.32305 40.6889 2.79836 40.6018 2.27366 40.3404C1.74897 40.079 1.39918 39.8176 1.04938 39.382C0.699589 38.9463 0.437242 38.5107 0.262345 38.0751C0.0874479 37.5523 0 37.0295 0 36.5067C0 35.8968 0.0874479 35.3741 0.262345 34.8513C0.437242 34.3285 0.699589 33.8929 1.04938 33.4572C1.39918 33.1087 1.74897 32.7602 2.27366 32.4988C2.71091 32.2374 3.2356 32.1503 3.76029 32.1503C4.45988 32.1503 5.07202 32.3246 5.59671 32.6731C6.1214 33.0216 6.55864 33.4572 6.82099 33.98V29.0137H7.87037V39.1206C7.87037 39.382 7.95782 39.5562 8.22017 39.5562V40.5147C8.04527 40.5147 7.95782 40.6018 7.87037 40.6018C7.60802 40.6018 7.43313 40.5147 7.17078 40.3404C6.99589 40.1661 6.90844 39.9919 6.90844 39.7305V38.9463C6.55864 39.4691 6.1214 39.9048 5.59671 40.2533C4.98457 40.5147 4.45988 40.6889 3.84774 40.6889ZM4.02264 39.7305C4.28498 39.7305 4.54733 39.6434 4.89712 39.5562C5.15947 39.4691 5.50926 39.2949 5.77161 39.1206C6.03395 38.9463 6.2963 38.685 6.47119 38.5107C6.64609 38.2493 6.73354 37.9879 6.82099 37.7265V35.1998C6.73354 34.9384 6.55864 34.677 6.38374 34.4156C6.20885 34.1543 5.9465 33.98 5.68416 33.8058C5.42181 33.6315 5.15947 33.4572 4.89712 33.3701C4.63478 33.283 4.28498 33.1958 4.02264 33.1958C3.58539 33.1958 3.14815 33.283 2.79835 33.4572C2.44856 33.6315 2.09877 33.8929 1.83642 34.2414C1.57408 34.5899 1.39918 34.9384 1.22428 35.2869C1.04938 35.7226 1.04938 36.0711 1.04938 36.5067C1.04938 36.9424 1.13683 37.378 1.31173 37.7265C1.48663 38.0751 1.66152 38.5107 1.92387 38.7721C2.18621 39.0335 2.53601 39.2949 2.8858 39.4691C3.2356 39.6434 3.67284 39.7305 4.02264 39.7305Z" fill="white"/>
<path d="M15.4784 30.6689V29.1006H16.5278V30.6689H15.4784ZM15.4784 40.5145V32.3243H16.5278V40.5145H15.4784Z" fill="white"/>
<path d="M27.5463 40.6016C27.0217 40.6016 26.497 40.5145 25.9723 40.2531C25.535 39.9917 25.0978 39.7303 24.748 39.2947C24.3982 38.9461 24.1358 38.4234 23.961 37.9877C23.7861 37.5521 23.6986 36.9422 23.6986 36.4194C23.6986 35.8967 23.7861 35.2867 23.961 34.764C24.1358 34.2412 24.3982 33.8056 24.748 33.3699C25.0978 33.0214 25.4476 32.6729 25.9723 32.4115C26.4095 32.1501 26.9342 32.063 27.5463 32.063C28.2459 32.063 28.8581 32.2372 29.3828 32.5858C29.9075 32.9343 30.3447 33.3699 30.6945 33.8927V32.1501H31.6564V40.3402C31.6564 40.863 31.569 41.3858 31.3066 41.8214C31.0443 42.257 30.7819 42.6056 30.4321 42.9541C30.0824 43.3026 29.6451 43.4768 29.1204 43.6511C28.5957 43.8254 28.1585 43.9125 27.5463 43.9125C26.5844 43.9125 25.7974 43.7382 25.2727 43.3897C24.6605 43.0412 24.2233 42.6056 23.8735 42.0828L24.5731 41.56C24.9229 42.0828 25.3601 42.4313 25.8848 42.6927C26.4095 42.9541 27.0217 43.0412 27.6338 43.0412C28.071 43.0412 28.4208 42.9541 28.7706 42.8669C29.1204 42.7798 29.4702 42.6056 29.7326 42.3442C29.9949 42.1699 30.1698 41.8214 30.3447 41.56C30.5196 41.2115 30.607 40.863 30.607 40.4273V38.9462C30.2573 39.4689 29.82 39.9046 29.2953 40.1659C28.6832 40.4273 28.071 40.6016 27.5463 40.6016ZM27.8087 39.7303C28.1585 39.7303 28.4208 39.6432 28.7706 39.5561C29.033 39.4689 29.3828 39.2947 29.5577 39.1204C29.82 38.9461 29.9949 38.6848 30.1698 38.5105C30.3447 38.3363 30.4321 37.9877 30.5196 37.8135V35.2867C30.4321 35.0254 30.2572 34.764 30.0824 34.5026C29.9075 34.2412 29.6451 34.0669 29.3828 33.8927C29.1204 33.7184 28.8581 33.5442 28.5957 33.457C28.3334 33.3699 27.9836 33.2828 27.7212 33.2828C27.284 33.2828 26.8468 33.3699 26.497 33.5442C26.1472 33.7184 25.7974 33.9798 25.535 34.3283C25.2727 34.6768 25.0978 35.0254 24.9229 35.3739C24.748 35.8095 24.748 36.158 24.748 36.5937C24.748 37.0293 24.8354 37.465 25.0103 37.8135C25.1852 38.162 25.3601 38.5976 25.6225 38.859C25.8848 39.1204 26.2346 39.3818 26.5844 39.5561C27.0217 39.6432 27.3714 39.7303 27.8087 39.7303Z" fill="white"/>
<path d="M39.2644 30.6689V29.1006H40.3138V30.6689H39.2644ZM39.2644 40.5145V32.3243H40.3138V40.5145H39.2644Z" fill="white"/>
<path d="M51.857 40.0792C51.7695 40.0792 51.6821 40.1663 51.5946 40.1663C51.5072 40.2534 51.3323 40.2535 51.1574 40.3406C50.9825 40.4277 50.8076 40.4277 50.6327 40.5148C50.4578 40.602 50.1955 40.602 50.0206 40.602C49.7582 40.602 49.5833 40.602 49.321 40.5148C49.1461 40.4277 48.8837 40.3406 48.7963 40.2535C48.6214 40.1663 48.5339 39.9921 48.4465 39.7307C48.359 39.5564 48.2716 39.295 48.2716 39.0337V33.196H47.1348V32.3247H48.2716V29.5366H49.321V32.3247H51.2449V33.196H49.321V38.7723C49.321 39.0337 49.4084 39.295 49.6708 39.4693C49.8457 39.6436 50.108 39.6436 50.3704 39.6436C50.6327 39.6436 50.9825 39.5564 51.1574 39.4693C51.4198 39.3822 51.5072 39.295 51.5946 39.295L51.857 40.0792Z" fill="white"/>
<path d="M60.5144 40.6889C60.1646 40.6889 59.7273 40.6017 59.465 40.5146C59.1152 40.3403 58.8529 40.1661 58.5905 39.9918C58.3282 39.8176 58.1533 39.4691 57.9784 39.2077C57.8035 38.8592 57.8035 38.5978 57.8035 38.2492C57.8035 37.9007 57.8909 37.5522 58.0658 37.2908C58.2407 37.0294 58.5031 36.7681 58.7654 36.5067C59.0277 36.2453 59.465 36.1582 59.8148 35.9839C60.252 35.8968 60.6893 35.8096 61.214 35.8096C61.6512 35.8096 62.0884 35.8096 62.5257 35.8968C62.9629 35.9839 63.3127 36.071 63.6625 36.2453V35.5483C63.6625 34.8512 63.4876 34.2413 63.0504 33.8057C62.6131 33.37 62.0884 33.1958 61.3889 33.1958C60.9516 33.1958 60.5144 33.2829 60.0771 33.4572C59.6399 33.6314 59.2026 33.8928 58.7654 34.1542L58.4156 33.4572C59.465 32.7601 60.5144 32.4116 61.4763 32.4116C62.5257 32.4116 63.3127 32.673 63.9249 33.2829C64.537 33.8928 64.7994 34.677 64.7994 35.6354V39.2948C64.7994 39.5562 64.8868 39.7304 65.1491 39.7304V40.6889C64.9743 40.6889 64.7994 40.776 64.7119 40.776C64.4496 40.776 64.1872 40.6888 64.0998 40.6017C63.9249 40.4275 63.8374 40.2532 63.8374 40.079V39.4691C63.4876 39.9918 62.9629 40.3403 62.4382 40.6017C61.8261 40.5146 61.214 40.6889 60.5144 40.6889ZM60.7767 39.8176C61.3014 39.8176 61.8261 39.7304 62.3508 39.4691C62.788 39.2948 63.1378 38.9463 63.4002 38.5978C63.4876 38.5106 63.5751 38.4235 63.5751 38.2492C63.5751 38.075 63.6625 38.075 63.6625 37.9007V36.5938C63.3127 36.4195 62.9629 36.3324 62.5257 36.2453C62.0884 36.1582 61.7387 36.1582 61.3889 36.1582C60.6018 36.1582 59.9897 36.3324 59.5524 36.5938C59.1152 36.9423 58.8528 37.2908 58.8528 37.8136C58.8528 38.075 58.9403 38.3364 59.0277 38.5106C59.1152 38.772 59.2901 38.9463 59.465 39.1205C59.6399 39.2948 59.8148 39.3819 60.0771 39.4691C60.252 39.8176 60.5144 39.8176 60.7767 39.8176Z" fill="white"/>
<path d="M72.4073 29.1006H73.4567V38.6847C73.4567 38.9461 73.5442 39.2075 73.7191 39.3818C73.894 39.556 74.1563 39.6432 74.4187 39.6432C74.5061 39.6432 74.681 39.6432 74.8559 39.556C75.0308 39.556 75.1183 39.4689 75.2932 39.4689L75.4681 40.3402C75.2932 40.4273 75.0308 40.5144 74.7685 40.5144C74.5061 40.6016 74.2438 40.6016 73.9814 40.6016C73.4567 40.6016 73.1069 40.4273 72.8446 40.1659C72.5823 39.9045 72.4073 39.4689 72.4073 39.0333V29.1006Z" fill="white"/>
<path d="M93.2202 40.6889C92.8704 40.6889 92.4331 40.6017 92.1708 40.5146C91.821 40.3403 91.5587 40.1661 91.2963 39.9918C91.034 39.7304 90.8591 39.4691 90.6842 39.2077C90.5093 38.8592 90.5093 38.5978 90.5093 38.2492C90.5093 37.9007 90.5967 37.5522 90.7716 37.2908C90.9465 37.0294 91.2089 36.7681 91.4712 36.5067C91.7335 36.2453 92.1708 36.1582 92.5206 35.9839C92.9578 35.8968 93.3951 35.8096 93.9198 35.8096C94.357 35.8096 94.7942 35.8096 95.2315 35.8968C95.6687 35.9839 96.0185 36.071 96.3683 36.2453V35.5483C96.3683 34.8512 96.1934 34.2413 95.7562 33.8057C95.3189 33.37 94.7942 33.1958 94.0947 33.1958C93.6574 33.1958 93.2202 33.2829 92.7829 33.4572C92.3457 33.6314 91.9084 33.8928 91.4712 34.1542L91.1214 33.4572C92.1708 32.7601 93.2202 32.4116 94.1821 32.4116C95.2315 32.4116 96.0185 32.673 96.6307 33.2829C97.2428 33.8928 97.5052 34.677 97.5052 35.6354V39.2948C97.5052 39.5562 97.6801 39.7304 97.9424 39.7304V40.6889C97.7675 40.6889 97.5926 40.776 97.5052 40.776C97.2428 40.776 96.9805 40.6888 96.893 40.6017C96.8056 40.5146 96.6307 40.2532 96.6307 40.079V39.4691C96.2809 39.9918 95.7562 40.3403 95.2315 40.6017C94.5319 40.5146 93.9198 40.6889 93.2202 40.6889ZM93.4825 39.8176C94.0072 39.8176 94.5319 39.7304 95.0566 39.4691C95.4938 39.2948 95.8436 38.9463 96.106 38.5978C96.1934 38.5106 96.2809 38.4235 96.2809 38.2492C96.2809 38.075 96.3683 38.075 96.3683 37.9007V36.5938C96.0185 36.4195 95.6687 36.3324 95.2315 36.2453C94.8817 36.1582 94.4445 36.1582 94.0947 36.1582C93.3076 36.1582 92.6955 36.3324 92.2582 36.5938C91.821 36.8552 91.5587 37.2908 91.5587 37.8136C91.5587 38.075 91.6461 38.3364 91.7336 38.5106C91.821 38.772 91.9959 38.9463 92.1708 39.1205C92.3457 39.2948 92.5206 39.3819 92.7829 39.4691C92.9578 39.8176 93.2202 39.8176 93.4825 39.8176Z" fill="white"/>
<path d="M108.349 40.6016C107.824 40.6016 107.299 40.5145 106.775 40.2531C106.337 39.9917 105.9 39.7303 105.55 39.2947C105.201 38.9461 104.938 38.4234 104.763 37.9877C104.588 37.5521 104.501 36.9422 104.501 36.4194C104.501 35.8967 104.588 35.2867 104.763 34.764C104.938 34.2412 105.201 33.8056 105.55 33.3699C105.9 33.0214 106.25 32.6729 106.775 32.4115C107.212 32.1501 107.737 32.063 108.349 32.063C109.048 32.063 109.66 32.2372 110.185 32.5858C110.71 32.9343 111.147 33.3699 111.497 33.8927V32.1501H112.459V40.3402C112.459 40.863 112.371 41.3858 112.109 41.8214C111.934 42.257 111.584 42.6056 111.235 42.9541C110.885 43.3026 110.447 43.4768 109.923 43.6511C109.398 43.8254 108.961 43.9125 108.349 43.9125C107.387 43.9125 106.6 43.7382 106.075 43.3897C105.463 43.0412 105.026 42.6056 104.676 42.0828L105.375 41.56C105.725 42.0828 106.163 42.4313 106.687 42.6927C107.212 42.9541 107.824 43.0412 108.436 43.0412C108.873 43.0412 109.223 42.9541 109.573 42.8669C109.923 42.7798 110.273 42.6056 110.535 42.3442C110.797 42.1699 110.972 41.8214 111.147 41.56C111.322 41.2115 111.409 40.863 111.409 40.4273V38.9462C111.06 39.4689 110.622 39.9046 110.098 40.1659C109.486 40.4273 108.873 40.6016 108.349 40.6016ZM108.611 39.7303C108.961 39.7303 109.223 39.6432 109.573 39.5561C109.835 39.4689 110.185 39.2947 110.36 39.1204C110.535 38.9461 110.797 38.6848 110.972 38.5105C111.147 38.3363 111.235 37.9877 111.322 37.8135V35.2867C111.235 35.0254 111.06 34.764 110.885 34.5026C110.71 34.2412 110.447 34.0669 110.185 33.8927C109.923 33.7184 109.66 33.5442 109.398 33.457C109.136 33.3699 108.786 33.2828 108.524 33.2828C108.086 33.2828 107.649 33.3699 107.299 33.5442C106.95 33.7184 106.6 33.9798 106.337 34.3283C106.075 34.6768 105.9 35.0254 105.725 35.3739C105.638 35.8095 105.55 36.158 105.55 36.5937C105.55 37.0293 105.638 37.465 105.813 37.8135C105.988 38.2491 106.162 38.5976 106.425 38.859C106.687 39.1204 107.037 39.3818 107.387 39.5561C107.824 39.6432 108.174 39.7303 108.611 39.7303Z" fill="white"/>
<path d="M123.565 40.689C122.953 40.689 122.428 40.6019 121.903 40.3405C121.379 40.0791 120.941 39.8177 120.592 39.3821C120.242 38.9464 119.979 38.5108 119.717 37.988C119.542 37.4652 119.367 36.9425 119.367 36.3326C119.367 35.7227 119.455 35.1999 119.717 34.6771C119.892 34.1544 120.242 33.7187 120.592 33.3702C120.941 33.0217 121.379 32.6732 121.903 32.4989C122.428 32.2375 122.953 32.1504 123.565 32.1504C124.177 32.1504 124.702 32.2375 125.226 32.4989C125.751 32.7603 126.188 33.0217 126.538 33.4573C126.888 33.8058 127.15 34.3286 127.413 34.7643C127.587 35.287 127.675 35.8098 127.675 36.3326C127.675 36.4197 127.675 36.5068 127.675 36.594C127.675 36.6811 127.675 36.7682 127.675 36.7682H120.679C120.679 37.2039 120.854 37.6395 121.029 37.988C121.204 38.3365 121.466 38.685 121.728 38.9464C121.991 39.2078 122.341 39.4692 122.69 39.5563C123.04 39.6435 123.39 39.8177 123.827 39.8177C124.09 39.8177 124.352 39.8177 124.614 39.7306C124.877 39.6435 125.139 39.5563 125.314 39.4692C125.576 39.3821 125.751 39.2078 125.926 39.0336C126.101 38.8593 126.276 38.685 126.363 38.4237L127.325 38.685C127.238 38.9464 127.063 39.295 126.8 39.4692C126.538 39.7306 126.276 39.9049 126.013 40.0791C125.751 40.2534 125.401 40.4276 124.964 40.5148C124.352 40.6019 124.002 40.689 123.565 40.689ZM126.626 35.9841C126.626 35.5484 126.451 35.1128 126.276 34.7643C126.101 34.4157 125.838 34.0672 125.576 33.8058C125.314 33.5445 124.964 33.3702 124.614 33.1959C124.264 33.0217 123.915 32.9346 123.477 32.9346C123.04 32.9346 122.69 33.0217 122.341 33.1959C121.991 33.3702 121.641 33.5445 121.379 33.8058C121.116 34.0672 120.854 34.4157 120.766 34.7643C120.592 35.1128 120.504 35.5484 120.504 35.9841H126.626Z" fill="white"/>
<path d="M141.404 40.5145H140.355V35.9838C140.355 35.0254 140.18 34.3284 139.918 33.8927C139.655 33.4571 139.218 33.1957 138.606 33.1957C138.256 33.1957 137.994 33.2829 137.644 33.37C137.294 33.4571 137.032 33.6314 136.77 33.8927C136.507 34.1541 136.245 34.3284 136.07 34.6769C135.895 34.9383 135.72 35.2868 135.633 35.6353V40.6017H134.583V32.4116H135.545V34.2413C135.895 33.6314 136.332 33.1957 136.944 32.7601C137.557 32.4116 138.256 32.2373 138.956 32.2373C139.393 32.2373 139.83 32.3244 140.093 32.4987C140.442 32.673 140.617 32.9343 140.88 33.1957C141.055 33.4571 141.229 33.8927 141.317 34.3284C141.404 34.764 141.404 35.2868 141.404 35.8096V40.5145Z" fill="white"/>
<path d="M148.4 36.4195C148.4 35.8096 148.488 35.2868 148.662 34.764C148.837 34.2413 149.1 33.8056 149.537 33.4571C149.887 33.1086 150.324 32.7601 150.849 32.5858C151.373 32.4116 151.898 32.2373 152.51 32.2373C153.297 32.2373 153.997 32.4116 154.522 32.7601C155.134 33.1086 155.571 33.5442 155.833 34.1541L154.784 34.5026C154.522 34.067 154.259 33.7185 153.822 33.5442C153.385 33.2828 152.947 33.1957 152.423 33.1957C151.986 33.1957 151.636 33.2828 151.286 33.4571C150.936 33.6314 150.586 33.8927 150.324 34.1541C150.062 34.4155 149.887 34.764 149.712 35.1997C149.537 35.6353 149.45 36.071 149.45 36.5066C149.45 36.9422 149.537 37.3779 149.712 37.8135C149.887 38.2492 150.062 38.5977 150.324 38.8591C150.586 39.1205 150.936 39.3819 151.286 39.5561C151.636 39.7304 152.073 39.8175 152.423 39.8175C152.685 39.8175 152.947 39.8175 153.21 39.7304C153.472 39.6432 153.735 39.5561 153.909 39.3819C154.084 39.2076 154.347 39.1205 154.434 38.9462C154.609 38.772 154.696 38.5977 154.784 38.4234L155.833 38.772C155.746 39.0333 155.571 39.2947 155.309 39.5561C155.046 39.8175 154.871 39.9918 154.522 40.166C154.172 40.3403 153.909 40.5145 153.56 40.6017C153.21 40.6888 152.86 40.7759 152.423 40.7759C151.811 40.7759 151.286 40.6888 150.761 40.4274C150.237 40.166 149.799 39.9046 149.45 39.469C149.1 39.0333 148.837 38.5977 148.575 38.0749C148.488 37.5522 148.4 37.0294 148.4 36.4195Z" fill="white"/>
<path d="M163.354 43.0415C163.441 43.0415 163.529 43.0415 163.616 43.0415C163.704 43.0415 163.791 43.0415 163.879 43.0415C164.053 43.0415 164.228 43.0415 164.316 42.9544C164.403 42.8673 164.491 42.7802 164.666 42.6059C164.753 42.4316 164.928 42.1703 165.015 41.8217C165.103 41.4732 165.365 41.0376 165.54 40.5148L161.955 32.3247H163.092L166.152 39.4693L168.951 32.3247H170L165.715 42.8673C165.628 43.1287 165.365 43.4772 165.103 43.6514C164.841 43.8257 164.491 44 163.966 44C163.879 44 163.791 44 163.704 44C163.616 44 163.529 44 163.354 44V43.0415Z" fill="white"/>
</svg>
