<svg width="126" height="20" viewBox="0 0 126 20" fill="none" xmlns="http://www.w3.org/2000/svg">
<g clip-path="url(#clip0)">
<path fill-rule="evenodd" clip-rule="evenodd" d="M124.527 0.701781V4.44537C122.583 3.71321 120.852 3.34302 119.337 3.34302C118.44 3.34302 117.725 3.50878 117.188 3.82926C116.651 4.15251 116.377 4.55038 116.377 5.02005C116.377 5.64444 116.983 6.19973 118.204 6.69708L121.732 8.41002C124.585 9.76657 126 11.5679 126 13.8306C126 15.7121 125.25 17.2123 123.735 18.3229C122.231 19.4447 120.207 20 117.686 20C116.523 20 115.479 19.9503 114.552 19.8453C113.624 19.7458 112.558 19.5413 111.375 19.2485V15.3309C113.544 16.063 115.518 16.4332 117.296 16.4332C119.417 16.4332 120.472 15.8199 120.472 14.5821C120.472 13.966 120.04 13.4687 119.163 13.0791L115.244 11.4132C113.798 10.7611 112.724 9.971 112.02 9.03441C111.328 8.08954 110.976 7.00652 110.976 5.76878C110.976 4.03645 111.707 2.64124 113.153 1.58031C114.61 0.527674 116.543 0 118.947 0C119.727 0 120.628 0.0690464 121.625 0.196147C122.63 0.331532 123.596 0.497291 124.527 0.701781Z" fill="white" fill-opacity="0.7"/>
<path fill-rule="evenodd" clip-rule="evenodd" d="M13.5421 0.701903V4.4455C11.598 3.71334 9.86997 3.34315 8.35512 3.34315C7.45507 3.34315 6.74339 3.50891 6.2061 3.82939C5.66888 4.15263 5.3947 4.5505 5.3947 5.02017C5.3947 5.64456 6.00949 6.19985 7.23078 6.6972L10.7589 8.41014C13.6003 9.76669 15.0182 11.568 15.0182 13.8307C15.0182 15.7122 14.265 17.2124 12.7612 18.3231C11.2463 19.4448 9.23302 20.0001 6.70463 20.0001C5.54148 20.0001 4.49465 19.9504 3.56692 19.8454C2.63918 19.746 1.58405 19.5415 0.393276 19.2486V15.331C2.56998 16.0631 4.54454 16.4333 6.31136 16.4333C8.43269 16.4333 9.48783 15.82 9.48783 14.5823C9.48783 13.9661 9.05856 13.4689 8.18896 13.0793L4.27036 11.4133C2.81364 10.7613 1.73913 9.97112 1.04683 9.03453C0.343385 8.08966 0 7.00664 0 5.76891C0 4.03658 0.725589 2.64136 2.17947 1.58044C3.62511 0.527796 5.56085 0.00012207 7.96468 0.00012207C8.75393 0.00012207 9.64291 0.0691685 10.6509 0.196269C11.6479 0.331654 12.6144 0.497413 13.5421 0.701903Z" fill="white" fill-opacity="0.7"/>
<path fill-rule="evenodd" clip-rule="evenodd" d="M23.3319 0.35083V19.6491H17.5854V0.35083H23.3319Z" fill="white" fill-opacity="0.7"/>
<path fill-rule="evenodd" clip-rule="evenodd" d="M42.0194 19.6491H27.7766V0.35083H41.8449V3.91767H33.3069V8.19721H40.7123V11.4131H33.3069V15.9055H42.0194V19.6491Z" fill="white" fill-opacity="0.7"/>
<path fill-rule="evenodd" clip-rule="evenodd" d="M45.1958 19.6491V0.35083H52.2105L56.9987 12.1646L62.0085 0.35083H68.6715V19.6491H63.307V6.92081L57.7409 19.8259H54.4288L49.0757 6.92081V19.6491H45.1958Z" fill="white" fill-opacity="0.7"/>
<path fill-rule="evenodd" clip-rule="evenodd" d="M87.3511 19.6491H73.1084V0.35083H87.1766V3.91767H78.6853V8.19721H86.0906V11.4131H78.6853V15.9055H87.3511V19.6491Z" fill="white" fill-opacity="0.7"/>
<path fill-rule="evenodd" clip-rule="evenodd" d="M107.34 19.6491H101.245L94.4048 7.27167V19.6491H90.5273V0.35083H96.8002L103.463 12.5155V0.35083H107.34V19.6491Z" fill="white" fill-opacity="0.7"/>
</g>
<defs>
<clipPath id="clip0">
<rect width="126" height="20" fill="white"/>
</clipPath>
</defs>
</svg>
