<svg width="161" height="20" viewBox="0 0 161 20" fill="none" xmlns="http://www.w3.org/2000/svg">
<path d="M31.9037 5.7033V13.22C31.9037 14.0161 31.484 14.1405 31.0786 14.2655V14.5316H34.67V14.2655C34.2664 14.1394 33.8455 14.0183 33.8455 13.22V5.7033C33.8455 5.25052 33.991 5.13997 34.6062 5.13997C36.2881 5.13997 37.1126 5.17219 37.7106 6.07441L37.9205 5.95053L37.242 4.02441H28.4911L27.812 5.95053L28.0225 6.07441C28.7504 5.18386 29.3162 5.13997 31.1436 5.13997C31.7577 5.14108 31.9037 5.25052 31.9037 5.7033ZM35.9954 6.78108C36.5284 6.92164 36.8044 7.04664 36.8044 7.82719V13.2194C36.8044 14.0155 36.5302 14.14 35.9954 14.265V14.5316H42.7718L43.5475 12.6516L43.3359 12.5116C42.6568 13.3761 41.9449 13.5739 41.0077 13.5739H39.2603C38.7111 13.5739 38.5818 13.5622 38.5818 13.0416V10.7927H40.6995C41.524 10.7927 41.6528 10.9822 41.7839 11.4505H42.1059V9.20164H41.7839C41.6528 9.67108 41.524 9.87497 40.6995 9.87497H38.5823V7.98386C38.5823 7.59275 38.7117 7.46441 39.2608 7.46441C39.2608 7.46441 40.6201 7.46441 40.7489 7.46441C41.7023 7.46441 42.2048 7.70164 42.9322 8.44775L43.1421 8.30886L42.4636 6.51164H35.9954V6.78108ZM44.7107 7.70386L46.7818 10.5294L44.8234 13.2172C44.226 14.0283 43.8706 14.1366 43.3192 14.2627V14.5283H46.4575V14.2627C45.859 14.1533 45.6002 13.9333 46.0044 13.3266L47.3752 11.26L48.8185 13.2689C49.3521 14.0039 48.7851 14.2039 48.2993 14.2683V14.535H53.9751V14.2683C53.4093 14.175 53.1505 13.9866 53.4409 13.2383L53.8106 12.3039H57.2083L57.5648 13.2383C57.7919 13.8494 57.7103 14.175 57.0467 14.2683V14.535H60.5404V14.2683C60.1362 14.1427 59.7642 13.8189 59.5871 13.3616L56.8863 6.51664H55.0428L52.4553 12.895C52.1799 13.5527 51.9298 13.8694 51.6544 14.0489C51.4416 13.9189 51.245 13.7144 50.9833 13.365L48.7092 10.2444L50.5475 7.73552C51.0328 7.06275 51.4382 6.9233 51.9229 6.78108V6.51441H48.9622V6.78108C49.5758 6.82775 49.7546 7.15719 49.3987 7.66941L48.1164 9.50441L46.9578 7.82386C46.4725 7.13664 46.8273 6.85497 47.362 6.77386V6.50886H43.433V6.77386C43.9822 6.92164 44.2582 7.07775 44.7107 7.70386ZM55.5448 7.90552L56.8736 11.4061H54.1648L55.5448 7.90552ZM61.3029 14.5316C61.3029 14.4044 61.4322 14.1389 61.5927 14.1389C61.963 14.3122 62.596 14.67 63.7593 14.67C65.7171 14.67 67.0902 13.7339 67.0902 12.14C67.0902 10.64 66.2329 10.0294 64.5832 9.67108L63.079 9.34219C62.2223 9.15497 61.9474 8.91552 61.9474 8.40553C61.9474 7.81164 62.4316 7.42108 63.4999 7.42108C64.6954 7.42108 65.6343 7.96886 66.3134 8.72441L66.5244 8.58386L65.9103 6.51941H65.5216C65.5216 6.69219 65.4417 6.87886 65.279 6.87886C64.9219 6.69108 64.3728 6.39553 63.4355 6.39553C61.7537 6.39553 60.4444 7.23775 60.4444 8.76941C60.4444 9.9383 61.1723 10.6727 62.757 11.0177L64.1802 11.33C65.1335 11.5283 65.4733 11.86 65.4733 12.4394C65.4733 13.2355 64.8115 13.6577 63.7271 13.6577C62.2068 13.6577 61.2373 12.8872 60.4444 12.0016L60.2328 12.1422L60.8963 14.5333L61.3029 14.5316Z" fill="white" fill-opacity="0.4"/>
<path d="M72.3293 4.29785C72.8313 4.43785 73.2344 4.5634 73.2344 5.34452V13.2228C73.2344 14.019 72.8307 14.1445 72.3293 14.2684V14.534H76.0818V14.2684C75.5804 14.1434 75.1756 14.0206 75.1756 13.2228V5.34452C75.1756 4.56118 75.5804 4.43674 76.0818 4.29785V4.03174H72.3293V4.29785ZM82.6305 6.78229C83.1152 6.92229 83.3912 7.04785 83.3912 7.82896V11.1112H83.3429L79.1707 6.51563H76.7298V6.78229C77.2151 6.98118 77.5388 7.14007 77.5388 7.8284V13.2201C77.5388 13.9695 77.264 14.1423 76.7298 14.2656V14.5323H79.495V14.2656C79.058 14.1406 78.6382 13.9701 78.6382 13.2201V8.56396H78.6865L84.2014 14.6423H84.4912V7.8284C84.4912 7.04674 84.8965 6.92118 85.2203 6.78229V6.51507H82.6328L82.6305 6.78229ZM89.8599 9.67341L88.3557 9.34563C87.4984 9.15785 87.223 8.9184 87.223 8.40785C87.223 7.81674 87.7089 7.42229 88.7743 7.42229C89.9721 7.42229 90.911 7.97063 91.5895 8.72563L91.8006 8.58507L91.187 6.52063H90.7978C90.7978 6.69341 90.7173 6.88063 90.5557 6.88063C90.1992 6.69285 89.6506 6.39729 88.7128 6.39729C87.0286 6.39729 85.7159 7.23952 85.7159 8.77118C85.7159 9.93952 86.4444 10.6745 88.0291 11.0201L89.45 11.3323C90.4045 11.5306 90.7454 11.8628 90.7454 12.4417C90.7454 13.2378 90.0848 13.6556 88.998 13.6556C87.4812 13.6556 86.5025 12.8901 85.7148 12.0028L85.5037 12.1423L86.1667 14.5295H86.5709C86.5709 14.4028 86.7009 14.1401 86.8619 14.1401C87.2322 14.3134 87.8647 14.6712 89.0285 14.6712C90.9846 14.6712 92.3589 13.7367 92.3589 12.1428C92.3664 10.6423 91.509 10.0317 89.8599 9.67341ZM92.8517 6.51618L92.1875 8.58063L92.3991 8.72063C93.2881 7.57896 93.5313 7.47007 94.7112 7.47007C95.1166 7.47007 95.2448 7.50174 95.2448 7.98563V13.2212C95.2448 14.0167 95.0027 14.1412 94.3403 14.2667V14.5328H97.899V14.2667C97.251 14.1406 96.9922 14.0234 96.9922 13.2212V7.98563C96.9922 7.50174 97.1222 7.47007 97.5276 7.47007C98.7098 7.47007 99.0203 7.57507 99.904 8.72063L100.116 8.58063L99.4527 6.51618H92.8517ZM107.259 12.1578C106.759 11.3767 106.243 11.0317 105.644 10.8912V10.8445C107.066 10.6251 107.877 9.90729 107.877 8.73396C107.877 7.17729 106.584 6.51396 104.498 6.51396H100.245V6.78118C100.783 6.92063 101.056 7.04674 101.056 7.82729V13.2201C101.056 14.0162 100.781 14.1401 100.245 14.2656V14.5317H103.721V14.2656C103.219 14.1395 102.88 14.0167 102.88 13.2201V11.219H103.737C104.74 11.219 104.885 11.609 105.532 12.9223C106.067 14.0006 106.778 14.6712 108.119 14.6712C108.8 14.6712 109.074 14.544 109.348 14.4051V14.1856C108.263 14.0323 107.906 13.174 107.259 12.1578ZM104.302 10.2834H102.877V8.15729C102.877 7.64118 103.009 7.50174 103.416 7.50174H104.336C105.338 7.50174 105.923 7.87729 105.923 8.81396C105.918 9.79896 105.255 10.2834 104.302 10.2834ZM114.618 6.78229C115.037 6.87785 115.443 7.04785 115.443 7.82896V11.7823C115.443 13.0956 114.926 13.6745 113.39 13.6745C111.757 13.6745 111.173 13.0956 111.173 11.7823V7.82896C111.173 7.04785 111.48 6.87563 111.984 6.78229V6.51618H108.589V6.78229C109.089 6.86063 109.413 7.04785 109.413 7.82896V11.9084C109.413 14.0473 111.337 14.6745 113.15 14.6745C115.171 14.6745 116.609 14.0162 116.609 11.7795V7.82674C116.609 7.04507 116.855 6.89174 117.355 6.77952V6.51452H114.622L114.618 6.78229ZM123.223 11.7206L120.827 6.51618H117.853V6.78229C118.387 6.92229 118.662 7.04785 118.662 7.82896V13.2206C118.662 13.9223 118.355 14.1084 117.853 14.2662V14.5328H120.49V14.2662C119.94 14.1273 119.698 13.9223 119.698 13.2206V8.18952L122.688 14.6584H122.916L125.827 8.18952V13.2206C125.827 14.0167 125.471 14.1551 125.068 14.2662V14.5328H128.463V14.2662C127.93 14.1406 127.654 14.0184 127.654 13.2206V7.82896C127.654 7.04785 127.93 6.92174 128.463 6.78229V6.51618H125.536L123.223 11.7206ZM134.123 13.5795H132.376C131.826 13.5795 131.697 13.5678 131.697 13.0495V10.8006H133.816C134.64 10.8006 134.771 10.9867 134.899 11.4562H135.222V9.20785H134.899C134.771 9.67618 134.642 9.88007 133.816 9.88007H131.697V7.98952C131.697 7.59896 131.826 7.47229 132.376 7.47229C132.376 7.47229 133.734 7.47229 133.864 7.47229C134.817 7.47229 135.318 7.70785 136.049 8.4534L136.257 8.31285L135.575 6.51563H129.107V6.78285C129.642 6.92229 129.916 7.0484 129.916 7.82896V13.2217C129.916 14.0178 129.642 14.1428 129.107 14.2667V14.5334H135.883L136.66 12.6534L136.448 12.5134C135.771 13.3773 135.06 13.5795 134.123 13.5795ZM142.758 6.78229C143.242 6.92229 143.52 7.04785 143.52 7.82896V11.1112H143.468L139.297 6.51563H136.854V6.78229C137.341 6.98118 137.664 7.14007 137.664 7.8284V13.2201C137.664 13.9695 137.388 14.1423 136.854 14.2656V14.5323H139.62V14.2656C139.177 14.1406 138.763 13.9701 138.763 13.2201V8.56396H138.811L144.325 14.6423H144.619V7.8284C144.619 7.04674 145.024 6.92118 145.346 6.78229V6.51507H142.76L142.758 6.78229ZM146.105 6.51618L145.443 8.58063L145.653 8.72063C146.543 7.57896 146.786 7.47007 147.966 7.47007C148.37 7.47007 148.5 7.50174 148.5 7.98563V13.2212C148.5 14.0167 148.258 14.1412 147.596 14.2667V14.5328H151.155V14.2667C150.506 14.1406 150.248 14.0234 150.248 13.2212V7.98563C150.248 7.50174 150.38 7.47007 150.786 7.47007C151.967 7.47007 152.277 7.57507 153.162 8.72063L153.372 8.58063L152.71 6.51618H146.105ZM157.943 9.67341L156.44 9.34563C155.584 9.15785 155.31 8.9184 155.31 8.40785C155.31 7.81674 155.793 7.42229 156.86 7.42229C158.056 7.42229 158.994 7.97063 159.675 8.72563L159.879 8.58507L159.27 6.52063H158.877C158.877 6.69341 158.793 6.88063 158.633 6.88063C158.277 6.69285 157.728 6.39729 156.786 6.39729C155.102 6.39729 153.789 7.23952 153.789 8.77118C153.789 9.93952 154.518 10.6745 156.101 11.0201L157.522 11.3323C158.469 11.5306 158.817 11.8628 158.817 12.4417C158.817 13.2378 158.158 13.6556 157.069 13.6556C155.551 13.6556 154.574 12.8901 153.786 12.0028L153.575 12.1423L154.232 14.5295H154.638C154.638 14.4028 154.769 14.1401 154.931 14.1401C155.302 14.3134 155.937 14.6712 157.095 14.6712C159.043 14.6712 160.425 13.7367 160.425 12.1428C160.45 10.6423 159.592 10.0317 157.943 9.67341Z" fill="white" fill-opacity="0.4"/>
<path d="M19.9042 6.43051V4.04218H15.9344L15.4335 6.45274H16.8613L16.4041 8.6744H14.9758L14.4813 11.0788C14.4428 11.2422 14.4141 11.36 14.3968 11.4733C14.2795 12.2111 14.6119 12.1738 15.6808 12.1738L15.192 14.5388H13.3233C11.5569 14.5388 10.12 14.5244 10.4931 12.7738C10.5524 12.5066 10.6231 12.2366 10.6731 11.9777L11.3407 8.67663H9.967L10.4253 6.45496H11.7984L12.2981 4.0444H11.0141V0.400513H6.26113V7.80163H0.574951C0.715826 9.72051 2.47303 9.99996 3.11415 11.3633C3.55575 12.3027 3.94158 13.9588 5.23073 13.97C6.218 13.9816 6.218 12.7355 7.48933 12.7355C8.75893 12.7355 9.32243 15.0661 10.4517 16.985C11.2981 18.4916 12.704 19.5027 13.9782 19.5894C15.0241 19.6594 15.5301 19.3161 15.5301 19.3161C15.2478 18.7672 15.1064 18.22 15.1064 17.3966C15.1064 16.1627 16.0948 14.93 17.2235 14.1083C18.7754 13.0127 20.4688 12.5977 21.0329 12.4644V8.6244C21.0329 8.6244 19.9042 8.04107 19.9042 6.43051ZM13.4291 12.1677L15.0989 4.03885H13.1749L11.5074 12.1677H13.4291ZM15.6147 1.46885H13.6901L13.3221 3.26162H15.2455L15.6147 1.46885Z" fill="white" fill-opacity="0.6"/>
</svg>
