<svg width="186" height="163" viewBox="0 0 186 163" fill="none" xmlns="http://www.w3.org/2000/svg">
<g filter="url(#filter0_b)">
<path d="M183.743 79.3502C184.636 80.8972 184.636 82.8032 183.743 84.3502L140.705 158.895C139.812 160.442 138.161 161.395 136.375 161.395L50.2979 161.395C48.5116 161.395 46.861 160.442 45.9678 158.895L2.92946 84.3502C2.03629 82.8032 2.03629 80.8972 2.92946 79.3502L45.9678 4.80559C46.861 3.25859 48.5116 2.30559 50.2979 2.30559L136.375 2.30559C138.161 2.30559 139.812 3.25859 140.705 4.80559L183.743 79.3502Z" stroke="url(#paint0_linear)" stroke-width="3"/>
</g>
<defs>
<filter id="filter0_b" x="-19.2404" y="-19.1943" width="225.153" height="202.089" filterUnits="userSpaceOnUse" color-interpolation-filters="sRGB">
<feFlood flood-opacity="0" result="BackgroundImageFix"/>
<feGaussianBlur in="BackgroundImage" stdDeviation="10"/>
<feComposite in2="SourceAlpha" operator="in" result="effect1_backgroundBlur"/>
<feBlend mode="normal" in="SourceGraphic" in2="effect1_backgroundBlur" result="shape"/>
</filter>
<linearGradient id="paint0_linear" x1="185.186" y1="81.8502" x2="1.48608" y2="81.8502" gradientUnits="userSpaceOnUse">
<stop offset="0.0989583" stop-color="#F7971E"/>
<stop offset="1" stop-color="#FFD200"/>
</linearGradient>
</defs>
</svg>
