<svg width="6" height="12" viewBox="0 0 6 12" fill="none" xmlns="http://www.w3.org/2000/svg">
<path d="M5.00446 11.9999C4.87639 12.0004 4.74984 11.9721 4.63412 11.9172C4.51841 11.8624 4.41646 11.7823 4.33577 11.6828L0.195025 6.54046C0.068932 6.3871 0 6.19474 0 5.99622C0 5.7977 0.068932 5.60534 0.195025 5.45199L4.48151 0.309616C4.62703 0.134589 4.83613 0.0245216 5.06282 0.00362666C5.28951 -0.0172683 5.51522 0.052721 5.6903 0.198197C5.86537 0.343674 5.97547 0.552721 5.99637 0.779351C6.01727 1.00598 5.94726 1.23163 5.80175 1.40665L1.96963 6.00051L5.67315 10.5944C5.77799 10.7202 5.84458 10.8734 5.86505 11.0358C5.88552 11.1983 5.85902 11.3632 5.78867 11.5111C5.71832 11.6589 5.60708 11.7835 5.4681 11.8702C5.32913 11.9568 5.16823 12.0019 5.00446 11.9999Z" fill="white"/>
</svg>
