<svg width="17" height="17" viewBox="0 0 17 17" fill="none" xmlns="http://www.w3.org/2000/svg">
<path d="M10.9793 8.49992C10.9793 8.82549 10.9152 9.14787 10.7906 9.44865C10.666 9.74944 10.4834 10.0227 10.2532 10.253C10.023 10.4832 9.74968 10.6658 9.4489 10.7904C9.14811 10.915 8.82573 10.9791 8.50016 10.9791C8.17459 10.9791 7.85221 10.915 7.55143 10.7904C7.25064 10.6658 6.97734 10.4832 6.74713 10.253C6.51692 10.0227 6.3343 9.74944 6.20971 9.44865C6.08512 9.14787 6.021 8.82549 6.021 8.49992C6.021 7.8424 6.28219 7.21182 6.74713 6.74688C7.21206 6.28195 7.84265 6.02075 8.50016 6.02075C9.15768 6.02075 9.78826 6.28195 10.2532 6.74688C10.7181 7.21182 10.9793 7.8424 10.9793 8.49992Z" fill="#E5E5E5"/>
<path fill-rule="evenodd" clip-rule="evenodd" d="M8.5002 2.47925C6.0692 2.47925 4.16166 3.56583 2.79528 4.77425C1.43103 5.98196 0.576782 7.33275 0.233949 7.93483C0.134741 8.10695 0.0825195 8.30213 0.0825195 8.50079C0.0825195 8.69946 0.134741 8.89463 0.233949 9.06675C0.576782 9.66883 1.43103 11.0203 2.79528 12.2259C4.16237 13.4343 6.0692 14.5209 8.5002 14.5209C10.9312 14.5209 12.8387 13.4343 14.2051 12.2259C15.5694 11.0189 16.4236 9.66812 16.7664 9.06604C16.8657 8.89392 16.9179 8.69875 16.9179 8.50008C16.9179 8.30142 16.8657 8.10624 16.7664 7.93412C16.4236 7.33204 15.5694 5.98125 14.2051 4.77496C12.838 3.56583 10.9312 2.47925 8.5002 2.47925ZM1.15691 8.46112C1.46928 7.91287 2.25553 6.67046 3.49937 5.57112C4.73895 4.4725 6.40707 3.54175 8.5002 3.54175C10.5933 3.54175 12.2607 4.47321 13.501 5.57042C14.7449 6.67046 15.5311 7.91287 15.8435 8.46042C15.851 8.47232 15.8551 8.48602 15.8555 8.50008C15.8551 8.51414 15.851 8.52784 15.8435 8.53975C15.5311 9.088 14.7449 10.3297 13.501 11.4297C12.2614 12.527 10.5933 13.4584 8.5002 13.4584C6.40707 13.4584 4.73966 12.527 3.49937 11.4297C2.25553 10.3297 1.46928 9.088 1.15691 8.53975C1.14938 8.52786 1.14522 8.51415 1.14487 8.50008C1.14535 8.48626 1.14951 8.47281 1.15691 8.46112Z" fill="#E5E5E5"/>
</svg>
