<svg width="32" height="32" viewBox="0 0 32 32" fill="none" xmlns="http://www.w3.org/2000/svg">
<circle cx="16" cy="16" r="15" stroke="url(#paint0_linear)"/>
<g clip-path="url(#clip0)">
<path d="M17.5127 23.9707H15.1059C14.7039 23.9707 14.3769 23.6443 14.3769 23.2431V17.825H12.9727C12.5707 17.825 12.2437 17.4985 12.2437 17.0974V14.7757C12.2437 14.3745 12.5707 14.0481 12.9727 14.0481H14.3769V12.8855C14.3769 11.7327 14.7396 10.752 15.4256 10.0494C16.1147 9.34367 17.0778 8.9707 18.2107 8.9707L20.0463 8.97368C20.4476 8.97437 20.774 9.30075 20.774 9.70129V11.8569C20.774 12.2581 20.4471 12.5845 20.0452 12.5845L18.8094 12.585C18.4325 12.585 18.3365 12.6604 18.316 12.6835C18.2821 12.7218 18.2419 12.8302 18.2419 13.1295V14.048H19.9523C20.0811 14.048 20.2059 14.0797 20.3131 14.1394C20.5444 14.2684 20.6881 14.5123 20.6881 14.7758L20.6872 17.0975C20.6872 17.4985 20.3602 17.8249 19.9582 17.8249H18.2419V23.2431C18.2419 23.6443 17.9147 23.9707 17.5127 23.9707ZM15.258 23.0913H17.3607V17.4313C17.3607 17.1634 17.5791 16.9455 17.8474 16.9455H19.8061L19.8069 14.9275H17.8473C17.579 14.9275 17.3607 14.7096 17.3607 14.4417V13.1295C17.3607 12.7859 17.3957 12.3952 17.6555 12.1016C17.9694 11.7466 18.4642 11.7056 18.8091 11.7056L19.8929 11.7052V9.85281L18.21 9.85007C16.3894 9.85007 15.258 11.0132 15.258 12.8855V14.4417C15.258 14.7095 15.0396 14.9275 14.7713 14.9275H13.1247V16.9455H14.7713C15.0396 16.9455 15.258 17.1634 15.258 17.4313V23.0913ZM20.0445 9.85304H20.0446H20.0445Z" fill="url(#paint1_linear)"/>
</g>
<defs>
<linearGradient id="paint0_linear" x1="1" y1="16" x2="31" y2="16" gradientUnits="userSpaceOnUse">
<stop stop-color="#F83600"/>
<stop offset="0.286458" stop-color="#F83B00"/>
<stop offset="1" stop-color="#FE8C00"/>
</linearGradient>
<linearGradient id="paint1_linear" x1="12.2437" y1="16.4707" x2="20.774" y2="16.4707" gradientUnits="userSpaceOnUse">
<stop stop-color="#F83600"/>
<stop offset="0.286458" stop-color="#F83B00"/>
<stop offset="1" stop-color="#FE8C00"/>
</linearGradient>
<clipPath id="clip0">
<rect width="15" height="15" fill="white" transform="translate(9 9)"/>
</clipPath>
</defs>
</svg>
