<svg width="17" height="17" viewBox="0 0 17 17" fill="none" xmlns="http://www.w3.org/2000/svg">
<g clip-path="url(#clip0)">
<path d="M9.64789 16.9668H6.92017C6.46455 16.9668 6.09392 16.5969 6.09392 16.1422V10.0017H4.50251C4.0469 10.0017 3.67627 9.63163 3.67627 9.17703V6.54582C3.67627 6.09109 4.0469 5.72118 4.50251 5.72118H6.09392V4.40356C6.09392 3.0971 6.50497 1.98557 7.28248 1.18935C8.0635 0.389488 9.15498 -0.0332031 10.4389 -0.0332031L12.5192 -0.0298309C12.9741 -0.0290527 13.344 0.340851 13.344 0.7948V3.23782C13.344 3.69255 12.9735 4.06245 12.518 4.06245L11.1174 4.06297C10.6903 4.06297 10.5815 4.14845 10.5582 4.17464C10.5199 4.21809 10.4743 4.34092 10.4743 4.68008V5.72105H12.4128C12.5587 5.72105 12.7001 5.75698 12.8216 5.82468C13.0837 5.97086 13.2467 6.24725 13.2467 6.54595L13.2457 9.17716C13.2457 9.63163 12.875 10.0015 12.4194 10.0015H10.4743V16.1422C10.4743 16.5969 10.1035 16.9668 9.64789 16.9668ZM7.09249 15.9702H9.47557V9.5555C9.47557 9.25187 9.72314 9.00492 10.0272 9.00492H12.2471L12.248 6.7178H10.0271C9.72301 6.7178 9.47557 6.47085 9.47557 6.16722V4.68008C9.47557 4.29073 9.51521 3.84793 9.80969 3.51512C10.1655 3.11279 10.7262 3.06636 11.1171 3.06636L12.3455 3.06584V0.966522L10.4381 0.96341C8.37474 0.96341 7.09249 2.28168 7.09249 4.40356V6.16722C7.09249 6.47072 6.84506 6.7178 6.54096 6.7178H4.67483V9.00492H6.54096C6.84506 9.00492 7.09249 9.25187 7.09249 9.5555V15.9702ZM12.5173 0.966782H12.5174H12.5173Z" fill="#E5E5E5"/>
</g>
<defs>
<clipPath id="clip0">
<rect width="17" height="17" fill="white"/>
</clipPath>
</defs>
</svg>
