<svg width="92" height="41" viewBox="0 0 92 41" fill="none" xmlns="http://www.w3.org/2000/svg">
<path d="M57.0706 33.7525H68.1773V28.5891H55.6381V7.25232H49.5906V33.7525H57.0706Z" fill="white" fill-opacity="0.4"/>
<path d="M81.495 23.6504H86.4252V28.2824C85.5155 28.635 83.744 28.9828 82.056 28.9828C76.6101 28.9828 74.7933 26.1837 74.7933 20.5012C74.7933 15.0794 76.5218 11.8867 81.9677 11.8867C84.9974 11.8867 86.726 12.8479 88.1513 14.6833L91.914 11.1864C89.622 7.8633 85.6015 6.85864 81.8412 6.85864C73.3655 6.85864 68.9128 11.5341 68.9128 20.4553C68.9128 29.3353 72.9334 34.1461 81.7958 34.1461C85.8593 34.1461 89.8393 33.0956 92 31.5644V18.7092H81.495V23.6504Z" fill="white" fill-opacity="0.4"/>
<path d="M20.2651 41C31.4577 41 40.5302 31.818 40.5302 20.5012C40.5302 9.17712 31.4577 0 20.2651 0C9.0725 0 0 9.17712 0 20.5012C0 31.818 9.0725 41 20.2651 41Z" fill="white" fill-opacity="0.4"/>
<path d="M19.4607 11.5002V29.4729H25.1047V27.8669H21.0699V11.5002H19.4607Z" fill="white" fill-opacity="0.6"/>
<path d="M13.795 16.4077C15.1368 16.4077 16.2279 15.304 16.2279 13.9516C16.2279 12.5967 15.1368 11.4955 13.795 11.4955C12.458 11.4955 11.3669 12.5967 11.3669 13.9516C11.3669 15.304 12.458 16.4077 13.795 16.4077Z" fill="white" fill-opacity="0.6"/>
<path d="M21.0695 3.34728C20.8665 3.33762 20.463 3.33521 20.2649 3.33521C10.9178 3.33521 3.30884 11.0319 3.30884 20.494C3.30884 25.0753 5.06365 29.3837 8.26529 32.6223C11.4789 35.8681 15.7406 37.6528 20.2649 37.6528C24.7916 37.6528 29.0533 35.8681 32.2621 32.6223C35.4637 29.3837 37.2233 25.0753 37.2233 20.494V19.714H36.5452H25.1163V21.3103H35.6141V21.5397C35.0745 29.6301 28.3943 36.0468 20.2649 36.0468C16.1608 36.0468 12.3026 34.4312 9.39458 31.4945C6.48899 28.5554 4.88936 24.6479 4.88936 20.494C4.88936 16.3426 6.48899 12.4326 9.39458 9.49354C12.3026 6.55203 16.1608 4.93637 20.2649 4.93637C20.4511 4.93637 20.8856 4.9412 21.0695 4.94603V3.34728Z" fill="white" fill-opacity="0.6"/>
</svg>
