<svg width="74" height="70" viewBox="0 0 74 70" fill="none" xmlns="http://www.w3.org/2000/svg">
<circle cx="37.1631" cy="34.5623" r="26.0156" transform="rotate(24.9522 37.1631 34.5623)" fill="white"/>
<path fill-rule="evenodd" clip-rule="evenodd" d="M18.7507 16.1758C19.3449 15.5808 19.9653 15.0177 20.6091 14.4875C18.8998 14.149 17.262 13.8921 15.7111 13.7189C11.9631 13.3004 8.66501 13.3636 6.0737 13.9815C3.49666 14.5959 1.44343 15.8071 0.511123 17.8278C-0.421179 19.8484 -0.0102332 22.1966 1.19473 24.556C2.40636 26.9285 4.49856 29.4788 7.24935 32.0587C12.759 37.2261 21.082 42.6711 30.9081 47.2048C40.7342 51.7384 50.2782 54.537 57.7852 55.3753C61.5333 55.7938 64.8313 55.7306 67.4226 55.1127C69.9997 54.4983 72.0529 53.2871 72.9852 51.2664C73.9175 49.2458 73.5066 46.8976 72.3016 44.5382C71.09 42.1657 68.9978 39.6155 66.247 37.0355C65.3066 36.1535 64.2842 35.2635 63.1864 34.3712C63.1931 35.2082 63.1593 36.0484 63.0839 36.889C63.7132 37.4271 64.312 37.9627 64.8788 38.4943C67.5403 40.9905 69.4537 43.3592 70.5204 45.4478C71.5938 47.5496 71.7339 49.2046 71.1692 50.4285C70.6045 51.6525 69.2544 52.62 66.9588 53.1673C64.6774 53.7112 61.6335 53.7926 58.0072 53.3876C50.7656 52.5789 41.4315 49.8576 31.746 45.3888C22.0604 40.9199 13.9324 35.5846 8.61753 30.5999C5.95605 28.1037 4.04259 25.735 2.97589 23.6464C1.90251 21.5446 1.76244 19.8896 2.32715 18.6657C2.89185 17.4417 4.24193 16.4742 6.53754 15.9269C8.81888 15.383 11.8628 15.3016 15.4891 15.7066C16.5344 15.8233 17.6234 15.9799 18.7507 16.1758Z" fill="url(#paint0_linear)"/>
<circle cx="27.8836" cy="17.2562" r="1.20392" fill="#C4C4C4"/>
<circle cx="52.7643" cy="42.9399" r="2.00653" fill="#C4C4C4"/>
<circle cx="21.4637" cy="46.9529" r="1.20392" fill="#C4C4C4"/>
<circle cx="37.5141" cy="33.308" r="3.61175" fill="#C4C4C4"/>
<defs>
<linearGradient id="paint0_linear" x1="0" y1="34.5471" x2="73.4963" y2="34.5471" gradientUnits="userSpaceOnUse">
<stop stop-color="#F83600"/>
<stop offset="0.286458" stop-color="#F83B00"/>
<stop offset="1" stop-color="#FE8C00"/>
</linearGradient>
</defs>
</svg>
