<svg width="17" height="17" viewBox="0 0 17 17" fill="none" xmlns="http://www.w3.org/2000/svg">
<path d="M3.04467 15.7784C2.9618 16.2501 3.42717 16.6188 3.8373 16.4084L8.50167 14.0114L13.165 16.4084C13.5751 16.6188 14.0405 16.2501 13.9576 15.7794L13.0757 10.7538L16.8179 7.18805C17.1685 6.85443 16.9879 6.24455 16.5182 6.17868L11.3141 5.43918L8.99361 0.841739C8.9494 0.748546 8.87966 0.669808 8.79249 0.614674C8.70531 0.55954 8.60429 0.530273 8.50114 0.530273C8.39799 0.530273 8.29697 0.55954 8.20979 0.614674C8.12262 0.669808 8.05288 0.748546 8.00867 0.841739L5.68817 5.44024L0.484046 6.17974C0.0154833 6.24561 -0.166204 6.85549 0.183358 7.18911L3.92655 10.7549L3.04467 15.7805V15.7784ZM8.25623 12.8384L4.33986 14.8508L5.07723 10.6465C5.09451 10.5497 5.08775 10.4502 5.05755 10.3566C5.02735 10.2631 4.97464 10.1783 4.90405 10.1099L1.81642 7.1668L6.12167 6.5548C6.21082 6.54134 6.29538 6.50647 6.3681 6.45317C6.44082 6.39988 6.49954 6.32975 6.53923 6.2488L8.49955 2.36218L10.462 6.2488C10.5017 6.32975 10.5604 6.39988 10.6331 6.45317C10.7058 6.50647 10.7904 6.54134 10.8795 6.5548L15.1848 7.16574L12.0972 10.1089C12.0264 10.1774 11.9736 10.2623 11.9434 10.356C11.9132 10.4498 11.9065 10.5495 11.924 10.6465L12.6614 14.8508L8.74498 12.8384C8.66925 12.7994 8.58528 12.779 8.50008 12.779C8.41487 12.779 8.3309 12.7994 8.25517 12.8384H8.25623Z" fill="#E5E5E5"/>
</svg>
