<svg width="15" height="15" viewBox="0 0 15 15" fill="none" xmlns="http://www.w3.org/2000/svg">
<path d="M6.57446 1.26234C6.91339 0.433866 8.08661 0.433864 8.42554 1.26234L9.66112 4.28251C9.80763 4.64064 10.1476 4.8821 10.534 4.90247L13.8423 5.07688C14.7686 5.12572 15.135 6.30001 14.4009 6.86697L11.9181 8.78424C11.5959 9.03309 11.4567 9.45246 11.5662 9.84461L12.401 12.8348C12.6451 13.7094 11.6914 14.4304 10.9165 13.9571L8.02131 12.1885C7.70127 11.9929 7.29873 11.993 6.97869 12.1885L4.08349 13.9571C3.30863 14.4304 2.35485 13.7094 2.59901 12.8348L3.43383 9.8446C3.54331 9.45246 3.40411 9.03309 3.08187 8.78424L0.599151 6.86697C-0.135014 6.30001 0.231401 5.12572 1.15771 5.07688L4.46599 4.90247C4.85239 4.8821 5.19237 4.64064 5.33888 4.28251L6.57446 1.26234Z" fill="#FDC800"/>
</svg>
